<?xml version="1.0" standalone="no"?>
<!DOCTYPE svg PUBLIC "-//W3C//DTD SVG 20010904//EN"
 "http://www.w3.org/TR/2001/REC-SVG-20010904/DTD/svg10.dtd">
<svg version="1.0" xmlns="http://www.w3.org/2000/svg"
 width="853.000000pt" height="1280.000000pt" viewBox="0 0 853.000000 1280.000000"
 preserveAspectRatio="xMidYMid meet">
<g transform="translate(0.000000,1280.000000) scale(0.100000,-0.100000)"
fill="#e91e63" stroke="none">
<path d="M130 6390 l0 -6250 4133 2 4132 3 0 6245 0 6245 -4132 3 -4133 2 0
-6250z m8238 3 l-3 -6218 -4105 0 -4105 0 -3 6205 c-1 3413 0 6211 3 6218 3 9
835 12 4110 12 l4105 0 -2 -6217z"/>
<path d="M702 12295 c-10 -21 -9 -27 4 -32 8 -3 22 1 30 9 13 13 12 16 -4 31
-18 16 -19 16 -30 -8z"/>
<path d="M905 12308 c-28 -16 -35 -28 -35 -65 0 -44 35 -68 92 -60 46 6 58 19
58 62 0 36 -8 48 -37 64 -27 14 -52 14 -78 -1z"/>
<path d="M2801 12308 c-6 -7 -24 -13 -39 -13 -20 0 -27 -5 -27 -20 0 -12 8
-21 20 -23 11 -2 27 -13 36 -24 9 -12 23 -19 31 -15 16 5 33 81 23 98 -9 13
-29 11 -44 -3z"/>
<path d="M4176 12299 c-33 -26 -35 -70 -4 -99 36 -33 108 -24 127 16 16 37 14
52 -14 79 -30 31 -73 32 -109 4z"/>
<path d="M6080 12305 c-7 -9 -21 -13 -30 -10 -20 6 -45 -19 -35 -35 3 -5 14
-10 24 -10 10 0 25 -10 34 -22 21 -31 50 -13 58 35 8 51 -23 76 -51 42z"/>
<path d="M7801 12299 c-11 -18 -11 -23 1 -30 16 -11 38 -12 38 -1 0 17 -13 52
-19 52 -3 0 -12 -10 -20 -21z"/>
<path d="M392 12290 c-45 -42 -19 -120 39 -120 35 0 58 20 65 57 5 26 1 37
-19 57 -31 31 -56 33 -85 6z"/>
<path d="M8065 12288 c-24 -18 -27 -26 -22 -61 6 -44 19 -57 60 -57 34 0 67
32 67 65 0 28 -40 75 -63 75 -8 0 -27 -10 -42 -22z"/>
<path d="M1626 12182 c-6 -11 36 -32 64 -32 20 0 27 15 13 23 -19 11 -72 17
-77 9z"/>
<path d="M4910 12181 c0 -14 33 -31 59 -31 20 0 29 14 14 23 -20 12 -73 18
-73 8z"/>
<path d="M2070 12126 c-25 -7 -61 -20 -80 -28 l-35 -15 60 -38 c98 -64 170
-90 247 -90 60 0 71 3 94 27 l27 26 -19 39 c-27 55 -88 85 -178 89 -40 2 -91
-2 -116 -10z"/>
<path d="M5325 12117 c-40 -13 -70 -29 -70 -36 0 -18 122 -86 199 -112 81 -28
147 -22 184 15 l27 26 -20 38 c-45 84 -183 114 -320 69z"/>
<path d="M744 12106 c-10 -8 -16 -17 -12 -21 8 -8 48 13 48 25 0 14 -13 12
-36 -4z"/>
<path d="M3117 12100 c-4 -16 4 -24 40 -40 26 -11 67 -20 95 -20 l50 0 -24 29
c-15 20 -32 30 -50 30 -15 1 -30 6 -33 11 -3 6 -21 10 -39 10 -25 0 -35 -5
-39 -20z"/>
<path d="M6407 12113 c-31 -30 46 -73 131 -73 l43 0 -21 30 c-15 21 -30 30
-50 30 -16 0 -32 5 -35 10 -7 11 -58 14 -68 3z"/>
<path d="M7760 12110 c0 -12 40 -33 48 -25 4 4 -2 13 -12 21 -23 16 -36 18
-36 4z"/>
<path d="M1438 12053 c7 -3 16 -2 19 1 4 3 -2 6 -13 5 -11 0 -14 -3 -6 -6z"/>
<path d="M4718 12053 c7 -3 16 -2 19 1 4 3 -2 6 -13 5 -11 0 -14 -3 -6 -6z"/>
<path d="M868 11963 c-24 -6 -22 -15 7 -36 23 -17 25 -17 35 2 20 38 9 48 -42
34z"/>
<path d="M4153 11963 c-30 -6 -29 -16 1 -32 28 -16 46 -8 46 20 0 19 -5 20
-47 12z"/>
<path d="M1097 11922 c-19 -20 -23 -42 -7 -42 12 0 32 38 28 51 -2 6 -11 2
-21 -9z"/>
<path d="M4376 11918 c-9 -12 -16 -26 -16 -30 0 -16 18 -7 34 16 20 31 3 44
-18 14z"/>
<path d="M2610 11920 c-59 -19 -120 -50 -120 -62 0 -7 4 -18 8 -24 8 -14 60
-15 68 -3 3 5 15 9 28 9 12 0 38 17 60 39 31 32 35 39 21 45 -20 7 -32 7 -65
-4z"/>
<path d="M5885 11917 c-114 -45 -126 -55 -107 -84 8 -13 49 -12 71 2 8 4 24 8
36 9 12 1 36 17 53 37 27 31 29 38 16 43 -21 8 -34 7 -69 -7z"/>
<path d="M495 11603 c7 -32 22 -50 31 -40 9 9 -16 67 -28 67 -6 0 -7 -11 -3
-27z"/>
<path d="M8020 11611 c-13 -24 -13 -51 -1 -51 12 0 16 8 25 43 7 31 -8 37 -24
8z"/>
<path d="M565 11288 c-9 -24 -19 -78 -22 -120 -5 -65 -2 -83 17 -123 21 -44
60 -75 94 -75 8 0 24 10 36 22 30 32 27 117 -6 188 -30 65 -83 150 -94 150 -4
0 -15 -19 -25 -42z"/>
<path d="M7911 11286 c-80 -116 -107 -230 -68 -289 50 -77 156 24 157 149 0
55 -21 138 -43 168 -13 18 -16 16 -46 -28z"/>
<path d="M766 10811 c-14 -32 -26 -73 -26 -91 l0 -32 40 32 c22 18 40 37 38
44 -1 6 4 29 10 50 6 22 10 41 9 42 -1 1 -11 4 -23 8 -18 6 -25 -2 -48 -53z"/>
<path d="M7712 10862 c-12 -8 -12 -15 3 -80 7 -31 55 -82 77 -82 15 0 -1 78
-27 124 -25 44 -33 50 -53 38z"/>
<path d="M390 10622 c0 -15 -5 -33 -11 -39 -22 -22 -3 -39 35 -35 49 6 67 28
39 50 -11 10 -23 25 -26 35 -10 28 -37 21 -37 -11z"/>
<path d="M8110 10636 c0 -9 -9 -24 -20 -33 -28 -24 -25 -42 8 -49 15 -3 32 -7
38 -9 6 -2 17 1 24 5 11 7 12 14 3 32 -7 13 -13 32 -15 43 -4 24 -38 34 -38
11z"/>
<path d="M563 10302 c-21 -13 8 -111 40 -134 l27 -20 0 39 c0 42 -30 123 -45
123 -5 0 -15 -4 -22 -8z"/>
<path d="M7924 10266 c-13 -27 -19 -57 -16 -79 4 -36 4 -36 28 -19 13 9 24 27
24 39 0 12 4 24 9 27 16 10 19 65 3 71 -24 9 -28 6 -48 -39z"/>
<path d="M701 9383 c-14 -31 1 -48 31 -32 17 9 17 11 2 34 -9 14 -17 25 -19
25 -1 0 -7 -12 -14 -27z"/>
<path d="M7802 9390 c-15 -25 -8 -40 19 -40 21 0 22 3 13 38 -8 27 -16 28 -32
2z"/>
<path d="M387 9372 c-42 -47 3 -131 63 -117 34 9 40 16 46 57 5 28 2 40 -15
57 -26 26 -72 27 -94 3z"/>
<path d="M8056 9368 c-32 -46 -14 -101 36 -113 21 -5 33 -1 52 19 47 46 24
116 -39 116 -24 0 -39 -7 -49 -22z"/>
<path d="M743 9193 c-7 -2 -13 -9 -13 -14 0 -14 26 -10 40 6 10 12 10 15 -1
14 -8 0 -20 -3 -26 -6z"/>
<path d="M7770 9185 c7 -8 19 -15 27 -15 13 0 13 3 3 15 -7 8 -19 15 -27 15
-13 0 -13 -3 -3 -15z"/>
<path d="M490 8708 c0 -30 13 -58 26 -58 17 0 18 11 2 45 -12 26 -28 34 -28
13z"/>
<path d="M8020 8696 c-13 -35 -13 -59 1 -51 17 11 31 57 20 68 -7 7 -14 1 -21
-17z"/>
<path d="M562 8358 c-45 -129 -19 -253 62 -292 l39 -19 24 27 c46 54 23 171
-57 294 -19 28 -37 52 -40 52 -4 0 -16 -28 -28 -62z"/>
<path d="M7897 8348 c-79 -127 -95 -229 -43 -277 22 -21 26 -21 58 -8 78 33
108 149 69 275 -12 39 -25 74 -30 77 -5 3 -30 -27 -54 -67z"/>
<path d="M770 7908 c-23 -48 -38 -128 -23 -128 14 0 74 65 67 73 -4 4 -2 12 4
19 5 7 12 27 14 43 2 25 -1 31 -19 33 -17 3 -26 -6 -43 -40z"/>
<path d="M7706 7942 c-2 -4 1 -30 7 -58 9 -37 21 -59 43 -78 18 -14 35 -26 39
-26 13 0 -4 78 -27 125 -20 41 -48 59 -62 37z"/>
<path d="M397 7733 c-4 -3 -7 -16 -7 -28 0 -11 -5 -26 -11 -32 -23 -23 -3 -42
38 -36 52 8 61 18 36 45 -11 13 -23 31 -26 41 -7 18 -19 22 -30 10z"/>
<path d="M8111 7717 c-6 -14 -18 -30 -27 -35 -27 -15 -10 -38 32 -45 47 -8 62
4 46 35 -6 13 -12 32 -14 42 -5 29 -27 31 -37 3z"/>
<path d="M567 7393 c-10 -3 -16 -11 -13 -18 3 -8 8 -31 12 -52 6 -36 38 -83
56 -83 16 0 8 81 -12 120 -11 22 -21 39 -23 39 -1 -1 -10 -3 -20 -6z"/>
<path d="M7922 7351 c-13 -33 -18 -59 -13 -80 6 -30 7 -31 29 -16 12 9 22 27
22 40 0 13 5 27 10 30 16 10 12 62 -6 69 -9 3 -17 6 -18 6 -2 0 -12 -22 -24
-49z"/>
<path d="M701 6469 c-5 -13 -7 -27 -4 -31 7 -12 30 -9 42 5 8 11 6 18 -9 32
-19 17 -20 17 -29 -6z"/>
<path d="M7801 6469 c-11 -18 -11 -23 1 -30 16 -11 38 -12 38 -1 0 17 -13 52
-19 52 -3 0 -12 -10 -20 -21z"/>
<path d="M390 6460 c-41 -41 -12 -120 43 -120 57 0 84 66 47 113 -26 32 -62
35 -90 7z"/>
<path d="M8059 6459 c-17 -17 -20 -29 -16 -61 6 -48 6 -47 50 -55 67 -10 104
68 54 115 -29 28 -61 28 -88 1z"/>
<path d="M744 6276 c-10 -8 -16 -17 -12 -21 7 -7 48 16 48 27 0 12 -14 9 -36
-6z"/>
<path d="M7760 6280 c0 -12 40 -33 48 -25 4 4 -2 13 -12 21 -23 16 -36 18 -36
4z"/>
<path d="M494 5774 c8 -32 22 -51 32 -41 9 9 -10 60 -26 65 -10 4 -11 -2 -6
-24z"/>
<path d="M8020 5781 c-12 -24 -13 -51 -1 -51 7 0 31 51 31 66 0 12 -21 1 -30
-15z"/>
<path d="M565 5458 c-23 -55 -31 -174 -16 -221 14 -41 72 -97 101 -97 10 0 28
12 39 26 34 43 28 114 -14 203 -38 79 -71 131 -85 131 -4 0 -16 -19 -25 -42z"/>
<path d="M7920 5473 c-11 -14 -37 -60 -57 -101 -43 -86 -50 -159 -20 -205 50
-77 156 24 157 150 0 53 -36 183 -51 183 -4 0 -17 -12 -29 -27z"/>
<path d="M766 4981 c-14 -32 -26 -73 -26 -90 l0 -32 40 32 c22 18 39 37 38 43
-1 6 4 29 10 50 6 22 10 41 9 42 -1 1 -11 4 -23 8 -18 6 -25 -2 -48 -53z"/>
<path d="M7712 5032 c-12 -8 -12 -45 1 -58 4 -4 7 -18 7 -30 0 -21 54 -74 75
-74 13 0 -3 69 -27 121 -23 49 -32 56 -56 41z"/>
<path d="M390 4790 c0 -16 -4 -30 -10 -30 -5 0 -10 -9 -10 -20 0 -17 7 -20 39
-20 23 0 44 6 52 16 12 15 11 19 -9 32 -12 8 -22 23 -22 33 0 12 -7 19 -20 19
-16 0 -20 -7 -20 -30z"/>
<path d="M8110 4807 c0 -8 -9 -22 -20 -32 -38 -34 -20 -55 46 -55 34 0 44 15
25 36 -5 5 -11 20 -13 34 -3 26 -38 42 -38 17z"/>
<path d="M556 4472 c-2 -4 1 -31 8 -61 8 -38 20 -59 39 -73 l27 -20 0 38 c0
55 -28 124 -51 124 -10 0 -20 -3 -23 -8z"/>
<path d="M7924 4438 c-14 -29 -19 -55 -16 -81 l4 -38 24 22 c13 12 24 30 24
40 0 10 4 20 9 23 16 10 19 65 3 71 -24 9 -27 6 -48 -37z"/>
<path d="M702 3555 c-10 -21 -9 -27 2 -31 8 -3 22 -2 30 3 13 7 13 11 -3 31
l-17 23 -12 -26z"/>
<path d="M7802 3560 c-15 -25 -8 -40 19 -40 21 0 22 3 13 38 -8 27 -16 28 -32
2z"/>
<path d="M420 3562 c-30 -9 -50 -36 -50 -67 0 -50 38 -76 92 -62 21 6 29 15
34 42 10 55 -30 101 -76 87z"/>
<path d="M8090 3562 c-30 -10 -50 -36 -50 -66 0 -39 9 -52 41 -65 56 -21 109
43 79 96 -16 28 -46 43 -70 35z"/>
<path d="M7760 3372 c0 -13 23 -32 38 -32 7 0 10 4 7 10 -9 14 -45 32 -45 22z"/>
<path d="M734 3355 c-15 -11 -16 -14 -3 -15 8 0 24 7 35 15 15 11 16 14 3 15
-8 0 -24 -7 -35 -15z"/>
<path d="M495 2863 c7 -32 22 -50 31 -40 9 9 -16 67 -28 67 -6 0 -7 -11 -3
-27z"/>
<path d="M8020 2871 c-5 -11 -10 -30 -10 -42 0 -20 2 -21 14 -9 17 19 30 70
17 70 -6 0 -15 -9 -21 -19z"/>
<path d="M561 2528 c-44 -130 -17 -253 63 -292 l39 -19 24 27 c30 35 32 121 3
185 -28 61 -90 161 -100 161 -4 0 -18 -28 -29 -62z"/>
<path d="M7905 2535 c-57 -88 -78 -144 -79 -207 -1 -50 3 -61 26 -84 l26 -27
38 20 c76 39 102 149 65 272 -12 38 -26 73 -31 76 -5 3 -26 -19 -45 -50z"/>
<path d="M7717 2118 c-25 -20 -1 -107 39 -142 18 -14 35 -26 39 -26 14 0 -7
91 -31 135 -14 25 -27 45 -28 45 -1 0 -10 -6 -19 -12z"/>
<path d="M770 2078 c-11 -24 -24 -63 -27 -88 -6 -43 -6 -44 13 -30 44 33 63
53 58 62 -3 5 -1 14 4 21 6 7 12 26 14 42 2 25 -1 31 -19 33 -17 3 -26 -6 -43
-40z"/>
<path d="M397 1903 c-4 -3 -7 -16 -7 -28 0 -11 -5 -26 -11 -32 -23 -23 -3 -42
38 -36 52 8 61 18 36 45 -11 13 -23 31 -26 41 -7 18 -19 22 -30 10z"/>
<path d="M8114 1893 c-4 -10 -16 -25 -27 -34 -26 -21 -16 -49 17 -49 13 0 31
-3 40 -6 21 -8 32 22 15 42 -7 9 -13 26 -14 37 0 26 -23 34 -31 10z"/>
<path d="M563 1562 c-26 -16 26 -152 59 -152 16 0 8 81 -12 120 -21 41 -27 45
-47 32z"/>
<path d="M7923 1523 c-14 -31 -19 -60 -16 -80 5 -31 6 -32 29 -16 14 9 24 25
24 39 0 12 5 26 10 29 16 10 12 62 -6 69 -9 3 -17 6 -18 6 -1 0 -12 -21 -23
-47z"/>
<path d="M892 1004 c-18 -12 -22 -24 -20 -51 4 -48 43 -78 87 -68 43 9 61 30
61 70 0 58 -75 86 -128 49z"/>
<path d="M2805 1011 c-6 -5 -23 -11 -40 -13 -41 -4 -45 -33 -6 -46 17 -6 31
-16 31 -21 0 -6 11 -11 25 -11 18 0 25 5 25 19 0 10 3 33 6 50 6 26 3 31 -13
31 -10 0 -23 -4 -28 -9z"/>
<path d="M4170 1000 c-47 -47 -11 -115 61 -115 66 0 98 58 59 108 -27 34 -89
38 -120 7z"/>
<path d="M6085 1011 c-6 -5 -23 -11 -39 -13 -39 -4 -44 -25 -9 -40 15 -7 32
-18 36 -25 13 -21 46 -15 52 10 13 54 10 72 -10 75 -11 1 -25 -2 -30 -7z"/>
<path d="M1630 882 c0 -10 45 -32 65 -32 24 0 17 20 -11 30 -31 12 -54 13 -54
2z"/>
<path d="M4910 882 c0 -10 45 -32 65 -32 24 0 17 20 -11 30 -31 12 -54 13 -54
2z"/>
<path d="M2035 819 c-33 -11 -64 -24 -68 -29 -8 -7 64 -56 140 -94 53 -27 145
-47 185 -41 20 4 48 18 62 32 21 21 23 29 15 51 -15 39 -39 62 -84 83 -56 26
-171 25 -250 -2z"/>
<path d="M5313 817 c-34 -12 -64 -25 -68 -28 -8 -8 118 -82 186 -110 112 -45
227 -21 222 46 -7 98 -185 146 -340 92z"/>
<path d="M3120 811 c-14 -28 -15 -26 44 -50 34 -14 69 -21 96 -19 l43 3 -31
33 c-17 19 -36 31 -42 27 -5 -3 -18 -2 -27 3 -42 22 -72 23 -83 3z"/>
<path d="M6404 808 c-7 -24 17 -48 47 -48 10 0 21 -4 24 -10 7 -12 105 -14
105 -2 0 16 -59 64 -70 57 -6 -4 -16 -2 -23 3 -7 5 -26 12 -44 15 -27 5 -33 3
-39 -15z"/>
<path d="M4718 753 c7 -3 16 -2 19 1 4 3 -2 6 -13 5 -11 0 -14 -3 -6 -6z"/>
<path d="M873 668 c-29 -14 -29 -21 3 -38 22 -12 27 -12 35 0 11 18 8 42 -6
46 -5 1 -20 -2 -32 -8z"/>
<path d="M4158 666 c-35 -12 -35 -18 -2 -33 31 -14 44 -9 44 17 0 25 -10 29
-42 16z"/>
<path d="M1096 627 c-10 -15 -16 -31 -12 -34 11 -11 38 23 34 43 -3 17 -6 15
-22 -9z"/>
<path d="M4370 619 c-7 -11 -9 -23 -6 -26 7 -7 24 5 36 28 8 15 7 19 -4 19 -9
0 -20 -9 -26 -21z"/>
<path d="M2615 623 c-17 -3 -111 -41 -124 -50 -2 -1 -1 -13 3 -27 5 -22 10
-25 39 -19 17 3 36 10 42 14 5 5 19 9 30 9 13 0 34 16 54 40 l32 40 -28 -1
c-15 -1 -37 -3 -48 -6z"/>
<path d="M5895 623 c-11 -2 -44 -15 -73 -29 -40 -18 -52 -29 -48 -40 3 -9 6
-20 6 -25 0 -10 61 0 75 12 5 5 18 9 30 9 19 0 85 56 85 73 0 7 -42 8 -75 0z"/>
</g>
</svg>
