<?xml version="1.0" standalone="no"?>
<!DOCTYPE svg PUBLIC "-//W3C//DTD SVG 20010904//EN"
 "http://www.w3.org/TR/2001/REC-SVG-20010904/DTD/svg10.dtd">
<svg version="1.0" xmlns="http://www.w3.org/2000/svg"
 width="853.000000pt" height="1280.000000pt" viewBox="0 0 853.000000 1280.000000"
 preserveAspectRatio="xMidYMid meet">
<metadata>
Created by potrace 1.15, written by Peter Selinger 2001-2017
</metadata>
<g transform="translate(0.000000,1280.000000) scale(0.100000,-0.100000)"
fill="#dbc500" stroke="none">
<path d="M121 12755 c-37 -51 -29 -61 10 -14 l26 32 22 -32 c28 -39 54 -39 82
0 l22 31 24 -31 c31 -39 53 -39 82 0 l23 32 25 -32 c31 -39 52 -39 78 -1 11
16 22 30 25 30 3 0 14 -14 25 -30 26 -38 54 -38 81 1 l21 30 26 -30 c32 -39
49 -39 80 0 l25 32 23 -32 c29 -39 51 -39 82 0 l24 31 22 -31 c28 -39 54 -39
82 0 l22 32 26 -32 c33 -39 51 -39 80 0 l23 32 25 -32 c31 -39 53 -39 82 0
l23 31 22 -31 c27 -39 55 -39 81 -1 11 16 22 30 25 30 3 0 14 -14 25 -30 26
-38 54 -38 81 1 l22 31 23 -31 c29 -39 51 -39 82 0 l25 32 23 -32 c29 -39 52
-39 80 0 l22 32 26 -32 c33 -39 54 -39 82 0 l22 31 24 -31 c31 -39 53 -39 82
0 l23 32 25 -32 c31 -39 53 -39 82 0 l23 31 22 -31 c27 -39 55 -39 81 -1 11
16 22 30 25 30 3 0 14 -14 25 -30 26 -38 47 -38 78 1 l25 32 23 -32 c29 -39
51 -39 82 0 l24 31 22 -31 c28 -39 49 -39 82 0 l26 32 22 -32 c28 -39 54 -39
82 0 l22 31 24 -31 c31 -39 53 -39 82 -1 l22 30 25 -30 c32 -38 54 -38 79 0
11 16 22 30 25 30 3 0 14 -14 25 -30 26 -38 54 -38 81 1 l22 31 23 -31 c29
-39 51 -39 82 0 l25 32 23 -32 c29 -39 51 -39 82 0 l24 31 22 -31 c12 -17 31
-31 41 -31 10 0 29 14 41 31 l22 31 24 -31 c31 -39 53 -39 82 0 l23 32 25 -32
c31 -39 53 -39 82 0 l23 31 22 -31 c27 -39 55 -39 81 -1 11 16 22 30 25 30 3
0 14 -14 25 -30 26 -38 54 -38 81 1 l22 31 23 -31 c29 -39 51 -39 82 0 l25 32
23 -32 c29 -39 52 -39 80 0 l22 32 26 -32 c33 -39 54 -39 82 0 l22 31 24 -31
c31 -39 53 -39 82 0 l23 32 25 -32 c31 -39 57 -39 80 -1 9 17 20 30 23 30 3 0
14 -14 25 -30 11 -17 29 -30 40 -30 11 0 29 13 40 30 11 16 22 30 25 30 3 0
14 -14 25 -30 26 -38 47 -38 78 1 l25 32 23 -32 c29 -39 51 -39 82 0 l24 31
22 -31 c28 -39 54 -39 82 0 l22 32 26 -32 c33 -39 54 -39 82 0 l22 31 24 -31
c31 -39 53 -39 82 -1 l22 30 25 -30 c32 -38 54 -38 79 0 11 16 22 30 25 30 3
0 14 -14 25 -30 26 -38 54 -38 81 1 l22 31 23 -31 c29 -39 51 -39 82 0 l25 32
23 -32 c29 -39 51 -39 82 0 l24 31 22 -31 c28 -39 54 -39 82 0 l22 31 24 -31
c31 -39 53 -39 82 0 l23 32 25 -32 c31 -39 53 -39 82 0 l23 31 22 -31 c27 -39
55 -39 81 -1 11 16 22 30 25 30 3 0 14 -14 25 -30 26 -38 54 -38 81 1 l22 31
23 -31 c29 -39 51 -39 82 0 l25 32 23 -32 c29 -39 52 -39 80 0 l22 32 26 -32
c33 -39 54 -39 82 0 l22 31 24 -31 c31 -39 53 -39 82 0 l23 32 25 -32 c31 -39
57 -39 80 -1 9 17 20 30 23 30 3 0 14 -14 25 -30 26 -38 54 -38 81 1 l22 31
23 -31 c29 -39 51 -39 82 0 l25 32 23 -32 c29 -39 51 -39 82 0 l24 31 22 -31
c28 -39 54 -39 82 0 l22 32 26 -32 c33 -39 51 -39 80 0 l23 32 25 -32 c31 -39
53 -39 82 0 l23 31 22 -31 c27 -39 55 -39 81 -1 11 16 22 30 25 30 3 0 14 -14
25 -30 26 -38 55 -38 80 0 l20 31 27 -32 c15 -18 30 -31 32 -28 6 6 -44 79
-54 79 -4 0 -20 -16 -36 -37 l-27 -36 -34 39 -33 39 -33 -39 -33 -39 -31 42
-31 42 -28 -40 c-16 -22 -32 -41 -36 -41 -3 0 -20 18 -36 41 l-30 40 -28 -40
c-16 -22 -32 -41 -35 -41 -4 0 -19 18 -34 40 -15 22 -29 40 -30 40 -1 0 -15
-18 -30 -40 -15 -22 -31 -40 -35 -40 -4 0 -20 18 -35 40 l-28 40 -31 -40 c-16
-22 -33 -40 -36 -40 -3 0 -18 19 -34 41 l-28 40 -31 -42 -31 -42 -33 39 -33
39 -33 -39 -33 -39 -32 39 -31 39 -34 -39 -33 -39 -31 42 -31 42 -28 -40 c-16
-22 -31 -41 -34 -41 -3 0 -20 18 -36 40 l-31 40 -28 -40 c-15 -22 -31 -40 -35
-40 -4 0 -20 18 -35 40 -15 22 -29 40 -30 40 -1 0 -15 -18 -30 -40 -15 -22
-30 -40 -34 -40 -3 0 -19 19 -35 41 l-28 40 -30 -40 c-16 -23 -33 -41 -36 -41
-4 0 -20 19 -36 41 l-28 40 -31 -42 -31 -42 -33 39 -33 39 -33 -39 -34 -39
-27 36 c-16 21 -32 37 -36 37 -4 0 -18 -16 -31 -35 -13 -19 -27 -35 -31 -35
-3 0 -20 18 -36 41 l-30 40 -28 -40 c-16 -22 -31 -41 -34 -41 -3 0 -20 18 -36
40 l-31 40 -28 -40 c-15 -22 -31 -40 -35 -40 -4 0 -20 18 -35 40 l-28 40 -31
-40 c-16 -22 -33 -40 -36 -40 -3 0 -18 19 -34 41 l-28 40 -30 -40 c-16 -23
-33 -41 -36 -41 -4 0 -18 16 -31 35 -13 19 -27 35 -31 35 -4 0 -20 -16 -36
-37 l-27 -36 -34 39 -33 39 -33 -39 -33 -39 -31 42 -31 42 -28 -40 c-16 -22
-32 -41 -36 -41 -3 0 -20 18 -36 41 l-30 40 -28 -40 c-16 -22 -32 -41 -35 -41
-4 0 -19 18 -34 40 -15 22 -29 40 -30 40 -1 0 -15 -18 -30 -40 -15 -22 -30
-40 -34 -40 -3 0 -19 18 -35 40 l-29 39 -30 -39 c-16 -22 -32 -40 -35 -40 -4
0 -20 19 -36 41 l-28 40 -31 -42 -31 -42 -33 39 -33 39 -33 -39 -33 -39 -32
39 -31 39 -34 -39 -33 -39 -31 42 -31 42 -28 -40 c-16 -22 -31 -41 -34 -41 -3
0 -20 18 -36 40 l-31 40 -28 -40 c-15 -22 -31 -40 -35 -40 -4 0 -20 18 -35 40
-15 22 -29 40 -30 40 -1 0 -15 -18 -30 -40 -15 -22 -30 -40 -34 -40 -3 0 -19
19 -35 41 l-28 40 -30 -40 c-16 -23 -33 -41 -36 -41 -4 0 -20 19 -36 41 l-28
40 -31 -42 -31 -42 -33 39 -33 39 -33 -39 -34 -39 -27 36 c-16 21 -32 37 -36
37 -4 0 -18 -16 -31 -35 -13 -19 -27 -35 -31 -35 -3 0 -20 18 -36 41 l-30 40
-28 -40 c-16 -22 -31 -41 -34 -41 -3 0 -20 18 -36 40 l-31 40 -28 -40 c-15
-22 -31 -40 -35 -40 -4 0 -20 18 -35 40 l-28 40 -31 -40 c-16 -22 -33 -40 -36
-40 -3 0 -18 19 -34 41 l-28 40 -31 -42 -31 -42 -34 39 -33 39 -33 -39 -32
-39 -32 39 -31 39 -34 -39 -33 -39 -31 42 -31 42 -28 -40 c-16 -22 -32 -41
-36 -41 -3 0 -20 18 -36 41 l-30 40 -28 -40 c-16 -22 -32 -41 -35 -41 -4 0
-19 18 -34 40 -15 22 -29 40 -30 40 -1 0 -15 -18 -30 -40 -15 -22 -30 -40 -34
-40 -3 0 -19 18 -35 40 l-29 39 -30 -39 c-16 -22 -32 -40 -35 -40 -4 0 -20 19
-36 41 l-28 40 -31 -42 -31 -42 -33 39 -33 39 -33 -39 -34 -39 -27 36 c-16 21
-32 37 -37 37 -5 0 -19 -16 -31 -35 -13 -19 -26 -35 -30 -35 -3 0 -20 18 -36
41 l-30 40 -28 -40 c-16 -22 -31 -41 -34 -41 -3 0 -20 18 -36 40 l-31 40 -28
-40 c-15 -22 -31 -40 -35 -40 -4 0 -20 18 -35 40 -15 22 -29 40 -30 40 -1 0
-15 -18 -30 -40 -15 -22 -30 -40 -34 -40 -3 0 -19 19 -35 41 l-28 40 -30 -40
c-16 -23 -33 -41 -36 -41 -4 0 -20 19 -36 41 l-28 40 -31 -42 -31 -42 -33 39
-33 39 -33 -39 -33 -39 -31 42 -31 42 -28 -40 c-16 -22 -32 -41 -36 -41 -3 0
-20 18 -36 41 l-30 40 -28 -40 c-16 -22 -32 -41 -35 -41 -4 0 -19 18 -34 40
-15 22 -29 40 -30 40 -1 0 -15 -18 -30 -40 -15 -22 -31 -40 -35 -40 -4 0 -20
18 -35 40 l-28 40 -31 -40 c-16 -22 -33 -40 -36 -40 -3 0 -18 19 -34 41 l-28
40 -31 -42 -31 -42 -33 39 -33 39 -33 -39 -33 -39 -32 39 -31 39 -34 -39 -33
-39 -31 42 -31 42 -28 -40 c-16 -22 -32 -41 -36 -41 -3 0 -20 18 -36 41 l-30
40 -28 -40 c-16 -22 -32 -41 -35 -41 -4 0 -19 18 -34 40 -15 22 -29 40 -30 40
-1 0 -16 -20 -34 -45z"/>
<path d="M38 12667 l-37 -32 40 -33 40 -34 -38 -34 -38 -34 38 -34 38 -34 -41
-34 -41 -34 41 -33 41 -33 -40 -35 -41 -35 40 -33 40 -33 -40 -35 -41 -35 42
-33 41 -32 -40 -34 -41 -34 37 -34 37 -35 -37 -35 -37 -34 41 -34 40 -34 -41
-32 -42 -33 41 -35 40 -35 -40 -33 -40 -34 41 -33 41 -33 -41 -36 -42 -35 41
-33 41 -33 -38 -34 -38 -34 38 -34 38 -34 -41 -34 -40 -35 41 -33 42 -33 -42
-34 -41 -35 40 -33 40 -33 -40 -36 -39 -35 41 -32 40 -32 -40 -34 -41 -34 37
-34 37 -35 -37 -35 -37 -34 41 -34 40 -34 -41 -32 -42 -33 40 -35 40 -34 -37
-35 -37 -34 38 -34 38 -34 -41 -34 -41 -34 41 -33 41 -33 -38 -34 -38 -34 37
-34 37 -35 -40 -34 -40 -35 42 -33 41 -32 -40 -34 -41 -34 37 -34 37 -35 -37
-35 -37 -34 41 -32 41 -33 -42 -35 -41 -36 40 -33 40 -33 -40 -34 -40 -34 41
-33 41 -33 -41 -36 -42 -35 41 -33 41 -33 -38 -34 -38 -34 38 -34 38 -34 -41
-33 -41 -33 42 -35 41 -36 -41 -33 -41 -33 40 -34 40 -33 -40 -35 -41 -35 42
-33 41 -32 -40 -34 -41 -34 37 -34 37 -35 -37 -35 -37 -34 41 -34 40 -34 -41
-32 -42 -33 40 -35 40 -34 -37 -35 -37 -34 38 -34 38 -34 -41 -34 -41 -34 41
-33 41 -33 -38 -34 -38 -34 38 -34 38 -34 -41 -35 -41 -35 42 -33 41 -32 -41
-35 -41 -34 40 -33 40 -33 -39 -35 -40 -36 41 -33 41 -34 -41 -32 -41 -33 37
-34 37 -35 -37 -35 -37 -34 41 -34 40 -34 -41 -32 -42 -33 41 -35 41 -35 -38
-34 -38 -34 38 -34 38 -34 -41 -34 -41 -34 41 -33 41 -33 -40 -35 -41 -35 40
-33 40 -33 -40 -35 -41 -35 42 -33 41 -32 -40 -34 -41 -34 37 -34 37 -35 -37
-35 -37 -34 41 -34 40 -34 -40 -32 -41 -32 39 -35 40 -36 -40 -33 -40 -34 41
-33 41 -33 -41 -36 -42 -35 41 -33 41 -33 -38 -34 -38 -34 38 -34 38 -34 -41
-34 -40 -35 41 -33 42 -33 -42 -34 -41 -35 40 -33 40 -33 -40 -36 -39 -35 41
-32 40 -32 -40 -34 -41 -34 37 -34 37 -35 -37 -35 -37 -34 41 -34 40 -34 -41
-32 -42 -33 41 -35 40 -35 -40 -33 -40 -33 40 -35 41 -35 -41 -34 -41 -34 41
-33 41 -33 -38 -34 -38 -34 37 -34 37 -35 -40 -34 -40 -35 42 -33 41 -32 -40
-34 -41 -34 37 -34 37 -35 -37 -34 -36 -35 40 -33 41 -34 -41 -32 -41 -33 37
-34 37 -35 -37 -35 -37 -34 41 -34 41 -34 -42 -33 -41 -33 40 -35 41 -34 -38
-34 -38 -34 38 -34 38 -34 -41 -33 -41 -33 42 -35 41 -36 -41 -33 -41 -33 40
-34 40 -33 -40 -35 -41 -35 42 -33 41 -32 -40 -34 -41 -34 37 -34 37 -35 -37
-35 -37 -34 41 -34 40 -34 -41 -32 -42 -33 41 -35 40 -35 -40 -33 -40 -34 41
-33 41 -33 -41 -36 -42 -35 41 -33 41 -33 -38 -34 -38 -34 38 -34 38 -34 -41
-34 -40 -35 41 -33 42 -33 -42 -34 -41 -35 40 -33 40 -34 -40 -33 -40 -33 41
-36 42 -35 -41 -33 -41 -32 37 -34 37 -35 -37 -35 -37 -34 41 -34 40 -34 -41
-32 -42 -33 40 -35 40 -34 -37 -35 -37 -34 38 -34 38 -34 -41 -34 -41 -34 41
-33 41 -33 -38 -34 -38 -34 38 -34 38 -34 -41 -35 -41 -35 42 -33 41 -32 -40
-34 -41 -34 37 -34 37 -35 -37 -34 -36 -35 40 -33 41 -34 -41 -32 -41 -33 37
-34 37 -35 -37 -35 -37 -34 41 -34 41 -34 -42 -33 -41 -33 40 -35 41 -34 -38
-34 -38 -34 33 -30 c18 -16 38 -30 45 -30 6 1 -4 14 -23 31 l-35 30 33 25 c40
32 40 48 1 81 l-30 26 30 31 c17 18 31 37 31 43 0 6 -14 23 -32 38 l-32 27 32
27 c40 33 40 51 1 80 l-31 23 31 32 c17 18 31 36 31 41 0 5 -14 23 -31 41
l-31 32 31 23 c39 29 39 47 -1 80 l-32 27 32 27 c18 15 32 32 32 38 0 6 -14
25 -31 43 l-30 31 30 26 c39 33 39 46 -1 79 l-33 28 33 26 c40 32 40 47 1 82
l-31 28 31 26 c39 34 39 50 -2 82 l-32 26 33 26 c40 32 40 48 1 81 l-30 26 30
31 c17 18 31 37 31 43 0 6 -14 23 -32 38 l-32 27 32 27 c40 33 40 48 0 81
l-33 27 33 28 c17 15 32 32 32 38 0 6 -14 25 -31 43 l-31 32 31 23 c39 29 39
47 -1 80 l-32 27 32 27 c18 15 32 32 32 38 0 6 -14 25 -31 43 l-30 31 30 26
c39 33 39 49 -1 81 l-33 26 32 26 c41 32 41 48 2 81 l-30 26 30 31 c17 18 31
37 31 43 0 6 -14 23 -32 38 l-32 27 32 27 c40 33 40 51 1 80 l-31 23 31 32
c17 18 31 37 31 43 0 6 -15 23 -32 38 l-33 28 33 27 c40 33 40 48 0 81 l-32
27 32 27 c18 15 32 32 32 38 0 6 -14 25 -31 43 l-31 32 31 23 c40 29 39 47 -1
81 l-33 28 33 26 c40 32 40 47 1 82 l-31 28 31 26 c39 34 39 50 -2 82 l-32 26
32 26 c41 32 41 48 2 81 l-30 26 30 31 c17 18 31 37 31 43 0 6 -14 23 -32 38
l-32 27 32 27 c40 33 40 51 1 80 l-31 23 31 32 c17 18 31 36 31 41 0 5 -14 23
-31 41 l-31 32 31 23 c39 29 39 47 -1 80 l-32 27 32 27 c18 15 32 32 32 38 0
6 -14 25 -31 43 l-30 31 30 26 c39 33 39 49 -1 81 l-33 26 33 26 c40 32 40 47
1 82 l-31 28 31 26 c39 34 39 50 -1 82 l-33 26 33 28 c40 33 40 46 1 79 l-30
26 30 31 c17 18 31 37 31 43 0 6 -14 23 -32 38 l-32 27 32 27 c40 33 40 48 0
81 l-33 27 33 28 c17 15 32 32 32 38 0 6 -14 25 -31 43 l-31 32 31 23 c39 29
39 47 -1 80 l-32 27 32 27 c18 15 32 32 32 38 0 6 -14 25 -31 43 l-30 31 30
26 c39 33 39 49 -2 81 l-32 26 33 26 c40 32 40 48 1 81 l-30 26 30 31 c17 18
31 37 31 43 0 6 -14 23 -32 38 l-32 27 32 27 c40 33 40 51 1 80 l-31 23 31 32
c17 18 31 37 31 43 0 6 -15 23 -32 38 l-33 28 33 27 c40 33 40 48 0 81 l-32
27 32 27 c18 15 32 32 32 38 0 6 -14 25 -31 43 l-30 31 30 26 c39 33 39 46 -1
78 l-32 27 32 27 c40 33 40 48 1 83 l-31 28 31 26 c39 34 39 50 -2 82 l-32 26
32 26 c41 32 41 48 2 81 l-30 26 30 31 c17 18 31 37 31 43 0 6 -14 23 -32 38
l-32 27 32 27 c40 33 40 48 0 81 l-33 27 33 28 c17 15 32 32 32 38 0 6 -14 25
-31 43 l-31 32 31 23 c39 29 39 47 -1 80 l-32 27 32 27 c18 15 32 32 32 38 0
6 -14 25 -31 43 l-30 31 30 26 c39 33 39 49 -2 81 l-32 26 32 26 c41 32 41 47
2 82 l-31 28 31 26 c39 34 39 49 -1 83 l-32 27 32 27 c40 33 40 51 1 80 l-31
23 31 32 c17 18 31 37 31 43 0 6 -14 23 -32 38 l-32 27 32 27 c40 33 40 48 0
81 l-33 27 33 28 c17 15 32 32 32 38 0 6 -14 25 -31 43 l-31 32 31 23 c39 29
39 47 -1 80 l-32 27 32 27 c18 15 32 32 32 38 0 6 -14 25 -31 43 l-30 31 30
26 c39 33 39 49 -1 81 l-33 26 33 26 c40 32 40 48 1 81 l-30 26 30 31 c17 18
31 37 31 43 0 6 -14 23 -32 38 l-32 27 32 27 c40 33 40 51 1 80 l-31 23 31 32
c17 18 31 37 31 43 0 6 -15 23 -32 38 l-33 28 33 27 c40 33 40 48 0 81 l-32
27 32 27 c18 15 32 32 32 38 0 6 -14 25 -31 43 l-31 32 31 23 c40 29 39 51 -2
83 l-32 26 33 26 c40 32 40 48 1 82 l-31 26 31 28 c39 35 39 50 -1 82 l-33 26
33 26 c40 32 40 48 1 81 l-30 26 30 31 c17 18 31 37 31 43 0 6 -14 23 -32 38
l-32 27 32 27 c40 33 40 51 1 80 l-31 23 31 32 c17 18 31 36 31 41 0 5 -14 23
-31 41 l-31 32 31 23 c39 29 39 47 -1 80 l-32 27 32 27 c18 15 32 32 32 38 0
6 -14 25 -31 43 l-30 31 30 26 c39 33 39 49 -2 81 l-32 26 32 26 c41 32 41 48
2 82 l-31 26 31 28 c39 35 39 50 -1 83 l-32 27 32 27 c40 33 40 51 1 80 l-31
23 31 32 c17 18 31 37 31 43 0 6 -15 23 -32 38 l-33 28 33 27 c40 33 40 47 0
80 l-33 27 33 28 c17 15 32 32 32 38 0 6 -14 25 -31 43 l-31 32 31 23 c39 29
39 47 -1 80 l-32 27 32 27 c40 34 40 49 1 83 l-31 26 31 28 c39 35 39 50 -2
82 l-32 26 33 26 c40 32 40 48 1 81 l-30 26 32 33 c42 43 26 44 -23 1z"/>
<path d="M8469 12670 l35 -30 -27 -28 c-34 -36 -34 -57 1 -88 l27 -24 -31 -28
c-26 -22 -30 -31 -23 -49 4 -12 17 -28 29 -35 11 -7 20 -17 20 -23 0 -6 -9
-16 -20 -23 -12 -7 -25 -23 -29 -35 -7 -18 -3 -27 23 -49 l31 -26 -27 -29
c-35 -36 -35 -50 -1 -85 l28 -29 -32 -24 c-37 -30 -37 -48 3 -80 l29 -23 -27
-29 c-16 -16 -28 -35 -28 -43 0 -8 12 -27 28 -43 l27 -29 -29 -23 c-40 -32
-40 -50 -3 -80 l32 -24 -28 -29 c-34 -35 -34 -49 1 -85 l27 -28 -32 -27 c-26
-22 -30 -31 -23 -49 5 -12 18 -28 30 -35 11 -7 20 -17 20 -23 0 -6 -9 -16 -20
-23 -12 -7 -25 -23 -29 -35 -7 -18 -3 -27 23 -49 l31 -28 -31 -27 c-26 -23
-30 -32 -23 -50 4 -12 17 -28 29 -35 25 -16 25 -30 0 -46 -12 -7 -25 -23 -30
-35 -7 -18 -3 -27 23 -49 l32 -27 -27 -28 c-35 -36 -35 -50 -1 -85 l28 -29
-32 -24 c-37 -30 -37 -48 3 -80 l29 -23 -27 -29 c-16 -16 -28 -35 -28 -43 0
-8 12 -27 28 -43 l27 -29 -29 -23 c-40 -32 -40 -50 -3 -80 l32 -24 -28 -29
c-34 -35 -34 -49 1 -85 l27 -29 -31 -26 c-26 -22 -30 -31 -23 -49 4 -12 17
-28 29 -35 11 -7 20 -17 20 -23 0 -6 -9 -16 -20 -23 -12 -7 -25 -23 -29 -35
-7 -18 -3 -27 23 -49 l31 -28 -27 -24 c-35 -31 -35 -52 -1 -88 l28 -29 -32
-24 c-37 -30 -37 -48 3 -80 l29 -23 -27 -29 c-35 -36 -35 -50 -1 -85 l28 -29
-32 -24 c-37 -30 -37 -50 3 -81 l28 -23 -27 -29 c-34 -35 -34 -49 1 -85 l27
-28 -32 -27 c-25 -22 -30 -31 -23 -48 5 -12 19 -29 31 -38 l23 -16 -26 -27
c-37 -41 -38 -53 -4 -85 l31 -28 -31 -28 c-26 -22 -30 -31 -23 -49 4 -12 17
-28 29 -35 11 -7 20 -17 20 -23 0 -6 -9 -16 -20 -23 -12 -7 -25 -23 -29 -35
-7 -18 -3 -27 23 -49 l31 -26 -27 -29 c-35 -36 -35 -50 -1 -85 l28 -29 -32
-24 c-37 -30 -37 -48 3 -80 l29 -23 -27 -29 c-16 -16 -28 -35 -28 -43 0 -8 12
-27 28 -43 l27 -29 -29 -23 c-40 -32 -40 -50 -3 -80 l32 -24 -28 -29 c-34 -35
-34 -49 1 -85 l27 -29 -31 -26 c-26 -22 -30 -31 -23 -49 4 -12 17 -28 29 -35
11 -7 20 -17 20 -23 0 -6 -9 -16 -20 -23 -12 -7 -25 -23 -29 -35 -7 -18 -3
-27 23 -49 l31 -28 -31 -28 c-34 -31 -33 -45 4 -84 l25 -27 -31 -26 c-36 -30
-35 -49 4 -80 l29 -23 -27 -29 c-35 -36 -35 -50 -1 -85 l28 -29 -32 -24 c-37
-30 -37 -48 3 -80 l29 -23 -27 -29 c-16 -16 -28 -35 -28 -43 0 -8 12 -27 28
-43 l27 -29 -29 -23 c-40 -32 -40 -50 -3 -80 l32 -24 -28 -29 c-34 -36 -34
-57 1 -88 l27 -24 -31 -28 c-26 -22 -30 -31 -23 -49 4 -12 17 -28 29 -35 25
-16 25 -30 0 -46 -12 -7 -25 -23 -29 -35 -7 -18 -3 -27 23 -49 l31 -26 -27
-29 c-35 -36 -35 -50 -1 -85 l28 -29 -32 -24 c-37 -30 -37 -48 3 -80 l29 -23
-27 -29 c-16 -16 -28 -35 -28 -43 0 -8 12 -27 28 -43 l27 -29 -29 -23 c-40
-32 -40 -50 -3 -80 l32 -24 -28 -29 c-34 -35 -34 -49 1 -85 l27 -28 -32 -27
c-25 -22 -30 -31 -23 -49 5 -12 18 -27 29 -33 27 -14 27 -32 1 -48 -12 -7 -25
-23 -29 -35 -7 -18 -3 -27 23 -49 l31 -28 -31 -27 c-26 -23 -30 -32 -23 -50 4
-12 17 -28 29 -35 25 -16 25 -30 0 -46 -12 -7 -25 -23 -29 -35 -7 -18 -3 -27
23 -49 l31 -26 -27 -29 c-35 -36 -35 -50 -1 -85 l28 -29 -32 -24 c-37 -30 -37
-48 3 -80 l29 -23 -27 -29 c-16 -16 -28 -35 -28 -43 0 -8 12 -27 28 -43 l27
-29 -29 -23 c-40 -32 -40 -50 -3 -80 l32 -24 -28 -29 c-34 -35 -34 -49 1 -85
l27 -29 -31 -26 c-26 -22 -30 -31 -23 -49 4 -12 17 -28 29 -35 25 -16 25 -30
0 -46 -12 -7 -25 -23 -29 -35 -7 -18 -3 -27 23 -49 l31 -28 -27 -24 c-35 -31
-35 -52 -1 -88 l28 -29 -32 -24 c-37 -30 -37 -48 3 -80 l29 -23 -27 -29 c-35
-36 -35 -50 -1 -85 l28 -29 -32 -24 c-37 -30 -37 -50 3 -81 l28 -23 -27 -29
c-34 -35 -34 -49 1 -85 l27 -29 -30 -24 c-35 -28 -34 -50 3 -81 l26 -22 -27
-29 c-34 -35 -34 -49 1 -85 l27 -29 -31 -26 c-26 -22 -30 -31 -23 -49 4 -12
17 -28 29 -35 25 -16 25 -30 0 -46 -12 -7 -25 -23 -29 -35 -7 -18 -3 -27 23
-49 l31 -26 -27 -29 c-35 -36 -35 -50 -1 -85 l28 -29 -32 -24 c-37 -30 -37
-48 3 -80 l29 -23 -27 -29 c-35 -36 -35 -50 0 -86 l27 -29 -29 -23 c-40 -32
-40 -50 -3 -80 l32 -24 -28 -29 c-34 -35 -34 -49 1 -85 l27 -29 -31 -26 c-36
-30 -33 -57 7 -86 l23 -16 -26 -27 c-37 -39 -37 -56 -3 -86 l30 -27 -31 -28
c-26 -22 -30 -31 -23 -49 4 -12 17 -28 29 -35 25 -16 25 -30 0 -46 -12 -7 -25
-23 -30 -35 -7 -18 -3 -27 23 -49 l32 -27 -27 -28 c-35 -36 -35 -50 -1 -85
l28 -29 -32 -24 c-37 -30 -37 -48 3 -80 l29 -23 -27 -29 c-35 -36 -35 -50 0
-86 l27 -29 -29 -23 c-40 -32 -40 -50 -3 -80 l32 -24 -28 -29 c-34 -35 -34
-49 1 -85 l27 -29 -31 -26 c-26 -22 -30 -31 -23 -49 4 -12 17 -28 29 -35 25
-16 25 -30 0 -46 -12 -7 -25 -23 -29 -35 -7 -18 -3 -27 23 -49 l31 -26 -27
-29 c-35 -36 -35 -50 -1 -85 l28 -29 -32 -24 c-37 -30 -37 -48 3 -80 l29 -23
-27 -29 c-35 -36 -35 -50 -1 -85 l28 -29 -32 -24 c-37 -30 -37 -50 3 -81 l28
-23 -27 -29 c-34 -35 -34 -49 1 -85 l27 -29 -29 -23 c-40 -32 -40 -50 -3 -80
l32 -24 -27 -28 c-37 -39 -37 -56 -3 -86 l30 -27 -33 -29 c-19 -16 -30 -31
-25 -34 4 -3 25 10 46 30 l38 35 -38 33 -38 34 39 34 38 33 -38 33 -38 34 38
35 39 35 -39 33 -39 33 39 34 38 33 -36 32 c-20 17 -36 34 -36 37 0 3 16 20
36 37 l36 32 -38 33 -39 34 39 33 39 33 -39 35 -38 35 38 34 38 33 -38 33 -39
34 38 34 38 33 -38 35 -38 36 39 33 39 34 -39 32 -39 33 38 35 38 36 -38 33
-38 34 39 34 38 33 -38 33 -38 34 38 35 39 35 -39 33 -39 34 39 34 39 33 -39
35 -38 35 38 34 38 33 -38 33 -39 34 38 34 38 33 -38 35 -38 36 39 33 39 34
-39 33 -39 32 39 35 39 34 -39 34 -39 34 39 34 39 34 -39 33 -38 34 38 34 37
35 -38 33 -38 34 39 34 38 33 -37 33 -38 33 37 37 36 37 -37 32 -38 32 39 33
39 34 -39 35 -38 35 38 34 38 33 -38 33 -39 34 38 34 38 33 -38 35 -38 36 39
33 39 34 -39 32 -39 33 38 35 38 36 -38 33 -38 34 39 34 38 33 -38 33 -38 34
38 35 39 35 -39 33 -39 33 39 34 38 33 -36 32 c-20 17 -36 34 -36 37 0 3 16
20 36 37 l36 32 -38 33 -39 34 39 33 39 33 -39 35 -38 35 38 34 38 33 -38 33
-39 34 38 34 38 33 -38 35 -38 36 39 33 39 34 -39 32 -39 33 38 35 38 36 -38
33 -38 34 39 34 38 33 -38 33 -38 34 38 35 39 35 -39 33 -39 34 39 34 39 33
-39 35 -38 35 38 34 38 33 -38 33 -39 34 38 34 38 33 -38 35 -38 36 39 33 39
34 -39 33 -39 32 39 35 39 34 -39 35 -39 34 39 34 39 33 -39 33 -39 32 39 36
39 36 -39 33 -39 33 39 34 38 33 -38 33 -38 34 38 35 39 35 -39 33 -39 34 39
34 39 33 -39 35 -38 35 38 34 38 33 -38 33 -39 34 38 34 38 33 -38 35 -38 36
39 33 39 34 -39 32 -39 33 38 35 38 36 -38 33 -38 34 39 34 38 33 -38 33 -38
34 38 35 39 35 -39 33 -39 34 39 34 39 33 -39 35 -38 35 38 34 38 33 -38 33
-39 34 39 33 39 33 -39 35 -38 35 38 34 39 33 -39 34 -39 34 39 34 39 34 -39
34 -39 34 39 34 39 34 -39 32 -39 33 38 35 38 36 -38 33 -38 34 39 34 38 33
-38 33 -38 34 38 35 39 35 -39 33 -39 34 39 34 39 33 -39 35 -38 35 38 34 38
33 -38 33 -39 34 38 34 38 33 -38 35 -38 36 39 33 39 34 -39 32 -39 33 38 35
38 36 -38 33 -38 33 39 34 39 34 -39 33 -38 34 38 35 39 35 -39 33 -39 33 39
34 38 33 -37 33 -38 33 37 37 36 37 -37 32 -38 32 39 33 39 34 -39 35 -38 35
38 34 38 33 -38 33 -39 34 38 34 38 33 -38 35 -38 36 39 33 39 34 -39 32 -39
33 38 35 38 36 -38 33 -38 34 39 34 38 33 -38 33 -38 34 38 35 39 35 -39 33
-39 34 39 34 39 33 -39 35 -38 35 38 34 38 33 -38 33 -39 34 39 33 39 33 -39
36 -39 36 39 33 39 34 -39 33 -39 32 39 35 39 34 -39 34 -39 34 39 34 39 34
-39 32 -39 33 39 36 39 36 -39 33 -39 33 39 34 38 33 -38 33 -38 34 38 35 39
35 -39 33 -39 34 39 34 39 33 -39 35 -38 35 38 34 38 33 -38 33 -39 34 38 34
38 33 -38 36 -38 35 39 33 39 32 -39 34 -39 33 38 36 38 35 -38 33 -38 34 39
34 38 33 -36 32 c-20 18 -42 32 -49 32 -7 -1 4 -14 22 -30z"/>
<path d="M120 6390 l0 -6260 4145 0 4145 0 0 6260 0 6260 -4145 0 -4145 0 0
-6260z m8240 0 l0 -6210 -4100 0 -4100 0 0 6210 0 6210 4100 0 4100 0 0 -6210z"/>
<path d="M254 12491 c-2 -2 -4 -2749 -4 -6103 l0 -6098 4013 2 4012 3 0 6098
0 6097 -4008 3 c-2205 1 -4011 0 -4013 -2z m8006 -6096 l0 -6085 -4000 0
-4000 0 0 6078 c0 3343 3 6082 7 6085 3 4 1803 7 4000 7 l3993 0 0 -6085z"/>
<path d="M699 12330 c-2 -14 -5 -22 -14 -44 -6 -13 -3 -23 8 -31 10 -7 17 -25
17 -41 0 -46 -26 -184 -57 -296 l-27 -103 -13 81 c-15 98 -44 178 -86 242 -27
39 -31 52 -23 74 17 49 -26 108 -80 108 -28 0 -64 -47 -64 -83 0 -50 37 -81
89 -74 39 5 41 3 70 -42 47 -73 74 -165 79 -269 4 -81 1 -106 -24 -190 -15
-53 -32 -101 -37 -107 -6 -6 -8 -2 -4 14 8 33 -18 82 -39 74 -22 -8 -9 -70 19
-93 21 -18 21 -18 4 -91 -73 -303 -30 -609 153 -1085 l24 -60 -25 -90 -24 -89
-3 50 c-3 46 -22 104 -44 131 -6 9 -15 9 -33 0 -18 -8 -24 -18 -21 -38 1 -15
8 -34 15 -42 7 -8 10 -20 6 -26 -4 -7 10 -30 33 -53 l41 -42 -30 -115 c-17
-63 -38 -167 -48 -230 l-17 -115 -32 50 c-33 50 -52 103 -52 142 0 13 16 70
35 127 46 136 47 204 6 325 -23 66 -71 227 -71 237 0 1 9 4 20 7 30 8 37 37
13 57 -12 9 -23 25 -25 36 -2 13 -12 19 -28 19 -20 0 -25 -5 -25 -25 0 -14 -6
-29 -12 -33 -18 -12 -16 -54 3 -61 9 -4 22 -2 29 4 10 8 16 -1 25 -42 7 -29
30 -106 51 -171 52 -155 52 -209 3 -355 -26 -78 -35 -118 -31 -149 5 -45 36
-111 71 -153 18 -22 22 -41 24 -116 3 -121 50 -340 68 -321 3 3 -1 27 -9 54
-20 62 -37 146 -37 183 l0 29 26 -24 c36 -33 87 -42 130 -22 39 19 68 58 61
84 -4 15 -5 14 -6 -3 0 -12 -13 -33 -28 -48 -50 -50 -104 -47 -161 10 l-35 35
6 102 c4 56 13 139 21 184 14 78 29 137 105 423 40 146 61 275 61 367 0 74 5
84 52 117 12 9 22 23 23 33 0 10 4 24 9 31 4 7 9 28 12 46 3 30 1 35 -23 41
-21 5 -31 1 -45 -17 -10 -13 -18 -31 -18 -40 0 -10 -4 -18 -10 -18 -5 0 -10
-8 -11 -17 0 -10 -9 13 -20 50 -11 38 -26 82 -34 97 -14 27 -14 30 11 55 24
24 26 32 22 93 -4 71 -36 146 -100 240 l-31 45 -25 -59 c-33 -79 -41 -187 -18
-249 18 -45 66 -95 92 -95 13 0 44 -51 59 -99 7 -23 7 -23 -16 -7 -53 37 -109
3 -109 -66 0 -45 28 -78 65 -78 43 0 59 56 25 90 -33 33 -72 1 -49 -41 13 -25
32 -20 40 12 6 22 7 22 14 5 5 -10 4 -26 -2 -35 -27 -44 -83 -11 -83 49 0 86
88 93 131 10 28 -54 18 -440 -11 -440 -11 0 -95 232 -130 358 -43 156 -70 328
-70 452 0 167 26 295 122 589 22 67 50 164 63 215 20 80 26 91 46 94 29 5 59
30 59 50 0 19 -48 7 -67 -16 -12 -15 -13 -14 -9 13 3 17 8 55 12 85 4 31 13
60 22 66 14 10 13 15 -7 43 -22 31 -40 40 -42 21z m-55 -1529 c3 -5 -3 -11
-15 -14 -16 -4 -18 -3 -8 9 13 16 16 17 23 5z m-4 -37 c0 -8 -5 -12 -10 -9 -6
4 -8 11 -5 16 9 14 15 11 15 -7z"/>
<path d="M7803 12320 c-3 -11 -9 -20 -14 -20 -5 0 -9 -9 -9 -20 0 -11 6 -20
13 -20 9 0 16 -26 23 -84 l9 -84 -24 19 c-26 21 -47 24 -56 9 -9 -14 35 -49
62 -50 16 0 24 -8 29 -27 20 -89 40 -160 80 -286 137 -431 152 -607 79 -931
-26 -115 -97 -335 -135 -421 l-23 -50 -8 30 c-5 17 -14 77 -20 135 -16 145 1
271 42 312 32 33 61 36 89 8 38 -38 15 -120 -35 -120 -26 0 -40 28 -30 60 6
19 45 29 45 11 0 -5 -7 -8 -16 -7 -20 1 -27 -14 -16 -32 13 -19 42 -3 42 23 0
34 -22 48 -48 29 -24 -17 -30 -62 -10 -82 33 -33 98 12 98 68 0 35 -35 80 -64
80 -12 0 -32 -7 -44 -16 -27 -19 -28 -10 -1 52 16 39 29 53 62 69 94 46 113
186 47 341 l-21 48 -36 -53 c-96 -144 -125 -270 -74 -325 l24 -25 -27 -71
c-14 -39 -26 -80 -26 -91 0 -17 -2 -18 -13 -7 -7 7 -21 30 -30 51 -19 40 -23
42 -62 27 -20 -8 -24 -13 -17 -27 5 -10 8 -23 5 -29 -2 -6 3 -16 11 -23 7 -6
12 -20 9 -29 -3 -12 9 -29 36 -50 l41 -33 0 -90 c0 -108 21 -217 94 -485 66
-243 86 -358 86 -485 0 -93 -1 -98 -28 -127 -48 -52 -111 -54 -157 -7 -14 13
-27 35 -31 49 -15 61 48 128 99 105 33 -15 50 -54 37 -79 -24 -46 -80 -42 -80
4 0 24 24 41 41 30 18 -11 9 -34 -13 -34 -19 0 -20 -2 -8 -10 10 -6 19 -5 29
5 27 27 -14 70 -44 45 -23 -19 -18 -57 10 -76 23 -15 27 -15 50 0 33 22 42 59
21 92 -50 75 -151 33 -151 -63 0 -39 5 -49 37 -79 54 -49 105 -46 167 10 l24
21 -7 -55 c-4 -30 -16 -90 -28 -133 -26 -97 -17 -114 11 -21 27 91 41 183 41
273 0 65 3 77 27 105 33 39 63 104 62 136 0 16 -5 9 -13 -21 -7 -25 -26 -65
-43 -88 l-30 -41 -17 107 c-9 60 -30 161 -46 225 -16 64 -27 124 -24 132 3 8
21 27 41 42 22 17 32 31 29 41 -4 9 -2 21 3 27 5 6 12 25 15 41 5 25 2 32 -18
41 -30 14 -35 10 -62 -42 -17 -32 -21 -53 -17 -90 8 -69 -4 -50 -32 49 l-23
84 43 110 c157 395 204 748 137 1025 l-19 77 23 23 c31 30 42 83 20 91 -18 7
-46 -37 -47 -75 0 -30 -56 153 -65 213 -12 91 27 249 85 341 29 45 30 46 73
41 40 -5 47 -2 66 22 29 37 28 80 -3 110 -31 32 -69 32 -101 -1 -22 -21 -25
-32 -22 -67 4 -34 -1 -52 -28 -97 -42 -71 -73 -165 -81 -247 -3 -37 -9 -59
-14 -52 -15 28 -69 267 -77 340 -7 68 -6 78 10 88 13 8 16 16 9 29 -5 9 -12
25 -15 35 -7 23 -27 22 -33 -3z m111 -1561 c-3 -5 -10 -7 -15 -3 -5 3 -7 10
-3 15 3 5 10 7 15 3 5 -3 7 -10 3 -15z"/>
<path d="M884 12307 c-38 -33 -37 -81 1 -115 25 -21 36 -24 77 -19 42 5 55 2
95 -23 68 -44 145 -70 257 -89 l98 -17 -78 -22 c-114 -31 -212 -50 -310 -62
-82 -9 -87 -8 -103 12 -14 16 -21 18 -37 10 -10 -6 -27 -13 -36 -16 -10 -3
-18 -10 -18 -16 0 -6 8 -14 18 -17 9 -4 22 -13 28 -22 13 -17 44 -8 44 14 0
11 12 15 49 15 26 0 70 2 97 5 27 3 43 2 36 -1 -7 -3 -19 -19 -28 -35 -13 -26
-13 -30 1 -35 22 -9 55 24 55 56 0 25 4 27 83 44 45 10 172 45 282 78 373 111
508 135 709 125 144 -8 269 -27 430 -68 118 -29 320 -95 399 -128 l42 -18 -65
-12 c-36 -7 -119 -15 -185 -18 -150 -7 -253 8 -295 44 -70 59 -4 146 83 109
43 -18 58 -53 31 -73 -24 -18 -64 -13 -78 9 -16 27 5 43 35 27 17 -8 20 -14
10 -17 -7 -2 -17 1 -21 8 -5 7 -10 8 -14 2 -3 -5 1 -15 10 -23 12 -10 18 -9
31 4 14 13 14 19 3 32 -16 20 -49 16 -64 -7 -14 -23 18 -58 54 -58 34 0 64 32
56 58 -17 53 -97 73 -149 39 -32 -20 -37 -69 -11 -105 l15 -22 -52 20 c-73 29
-89 39 -89 54 0 23 -40 66 -83 87 -80 41 -196 35 -312 -16 l-50 -22 59 -38
c167 -107 307 -134 367 -71 l23 24 45 -20 c25 -11 78 -28 116 -38 42 -11 59
-19 43 -19 -16 -1 -28 -5 -28 -11 0 -5 -6 -10 -13 -10 -13 0 -77 -28 -77 -34
0 -16 34 -65 41 -60 6 3 22 7 37 9 14 1 28 8 30 14 2 6 14 8 26 5 17 -4 29 4
53 34 l31 39 119 6 c149 8 226 23 538 102 277 70 428 95 565 95 l92 0 39 -39
c34 -33 39 -45 39 -83 0 -36 -6 -50 -28 -71 -56 -53 -134 -51 -175 5 -17 23
-18 31 -8 57 17 41 64 60 100 40 33 -18 38 -50 12 -73 -16 -14 -23 -15 -41 -6
-26 14 -22 45 5 45 14 0 19 -6 17 -20 -3 -16 -1 -17 9 -8 10 10 9 15 -1 28
-21 25 -54 15 -58 -17 -5 -39 36 -58 73 -34 31 21 33 58 3 86 -28 25 -68 26
-101 0 -62 -49 -35 -125 56 -154 31 -10 78 6 113 39 28 27 34 40 34 74 0 50
-12 78 -48 109 l-27 23 55 -6 c49 -6 197 -37 243 -51 9 -3 17 -1 17 4 0 23
-263 71 -394 72 -57 0 -75 4 -100 24 -55 42 -118 68 -175 73 -47 5 -74 -1
-166 -33 -96 -34 -121 -38 -195 -38 -72 1 -104 7 -205 42 -67 22 -149 46 -183
52 -52 11 -60 15 -53 29 21 39 -30 68 -63 36 -8 -8 -22 -12 -30 -9 -21 8 -46
-13 -46 -37 0 -14 9 -21 30 -25 17 -4 30 -12 30 -20 0 -16 31 -27 54 -18 9 3
16 15 16 25 0 10 5 19 11 19 21 0 134 -31 244 -68 94 -31 123 -36 200 -35 77
0 106 5 197 36 117 41 143 43 209 24 55 -17 132 -65 124 -77 -3 -6 -23 -10
-44 -10 -54 0 -208 -27 -340 -61 -125 -31 -135 -30 -171 22 -16 21 -29 29 -45
27 -12 -1 -28 2 -36 8 -8 6 -21 11 -29 11 -8 1 -23 4 -32 8 -13 5 -20 0 -28
-21 -12 -30 -7 -54 10 -54 6 0 27 -7 48 -16 22 -10 59 -16 92 -14 30 1 53 -1
50 -3 -3 -3 -51 -17 -108 -31 -79 -20 -107 -24 -123 -16 -93 50 -451 155 -654
191 -176 32 -408 30 -565 -4 l-115 -25 -25 24 c-44 40 -109 42 -110 4 0 -9 63
-30 91 -31 13 0 -28 -16 -91 -35 -186 -55 -336 -44 -500 38 -68 35 -84 47 -82
63 9 59 5 79 -22 102 -17 14 -40 23 -61 23 -21 0 -44 -9 -61 -23z"/>
<path d="M4185 12318 c-53 -29 -62 -93 -17 -128 22 -18 36 -21 74 -17 41 5 54
2 105 -29 69 -41 166 -73 276 -88 l80 -12 -129 -32 c-129 -32 -199 -45 -306
-57 -48 -5 -58 -4 -58 8 0 21 -17 25 -57 13 -32 -10 -49 -46 -21 -46 6 0 20
-8 30 -17 19 -17 20 -16 36 4 14 17 32 22 105 27 l87 6 -20 -20 c-22 -22 -27
-56 -7 -63 17 -5 57 43 57 69 0 19 12 24 93 43 50 12 182 48 292 81 322 97
417 114 625 114 201 0 331 -20 560 -84 129 -37 313 -99 347 -119 53 -29 -381
-50 -474 -23 -46 14 -83 52 -83 87 0 52 80 77 134 41 50 -32 16 -90 -41 -70
-31 10 -42 38 -20 47 10 4 13 0 10 -12 -5 -21 17 -33 38 -20 11 6 11 13 3 26
-14 23 -54 23 -67 1 -26 -41 61 -78 97 -42 22 22 20 47 -6 71 -33 29 -72 36
-113 19 -43 -18 -56 -57 -31 -99 l16 -29 -27 7 c-60 15 -113 44 -113 62 0 30
-62 83 -115 99 -70 20 -133 17 -222 -11 -116 -37 -116 -36 -28 -90 90 -57 190
-95 246 -95 47 0 107 23 115 44 5 12 10 12 42 -2 20 -8 73 -26 117 -38 47 -13
69 -23 53 -23 -16 -1 -28 -5 -28 -11 0 -5 -7 -10 -15 -10 -17 0 -56 -20 -66
-34 -4 -4 0 -21 8 -37 11 -22 18 -27 30 -20 9 4 23 6 33 4 9 -2 22 2 29 10 6
8 20 13 30 10 12 -3 28 8 49 35 l31 39 118 6 c151 8 220 21 539 101 292 72
429 96 561 96 67 0 94 -4 113 -17 61 -42 79 -91 56 -146 -40 -97 -206 -88
-206 12 0 32 38 71 69 71 51 0 82 -68 41 -90 -26 -14 -63 4 -58 28 5 24 43 22
41 -2 -1 -12 2 -15 9 -8 15 15 2 42 -20 42 -21 0 -42 -18 -42 -37 0 -7 11 -20
25 -29 23 -15 27 -15 50 0 33 21 34 68 3 90 -54 38 -128 -1 -128 -67 0 -82
125 -121 192 -60 57 51 59 118 6 178 -16 19 -26 35 -20 35 24 0 192 -32 236
-45 27 -8 52 -13 54 -10 9 9 -2 13 -83 34 -94 24 -224 41 -313 41 -51 0 -69 5
-95 24 -54 41 -117 67 -171 73 -42 4 -71 -2 -161 -32 -159 -54 -236 -54 -405
2 -69 23 -153 47 -186 54 -55 11 -61 15 -51 30 21 34 -32 66 -62 37 -6 -7 -24
-13 -38 -13 -33 0 -52 -27 -34 -49 8 -9 21 -16 30 -16 9 0 22 -9 29 -20 7 -11
21 -20 32 -20 20 0 44 32 33 44 -3 3 -1 6 6 6 25 0 208 -50 281 -77 111 -40
223 -38 345 4 50 18 109 35 131 39 52 8 133 -15 193 -55 52 -34 58 -31 -99
-51 -52 -7 -158 -28 -234 -46 l-140 -35 -41 41 c-22 22 -50 40 -62 40 -12 0
-25 4 -28 10 -3 5 -16 9 -28 8 -12 0 -30 3 -39 7 -14 5 -18 2 -18 -13 0 -11
-5 -22 -12 -24 -43 -15 74 -68 150 -68 30 0 53 -2 50 -5 -3 -3 -49 -16 -102
-29 l-96 -24 -134 49 c-373 136 -704 195 -948 170 -62 -7 -151 -20 -198 -31
l-85 -18 -26 24 c-33 31 -93 43 -102 20 -7 -19 22 -37 73 -45 31 -6 22 -10
-81 -39 -135 -37 -226 -41 -345 -15 -92 20 -240 91 -237 113 1 8 5 27 9 42 5
22 0 33 -24 58 -32 32 -70 38 -107 18z m1715 -276 c0 -13 -12 -22 -22 -16 -10
6 -1 24 13 24 5 0 9 -4 9 -8z"/>
<path d="M8107 10654 c-4 -4 -7 -15 -7 -25 0 -9 -9 -19 -21 -22 -27 -7 -22
-48 7 -61 l22 -10 -24 -87 c-13 -48 -36 -118 -51 -156 -37 -97 -36 -200 2
-303 16 -41 32 -91 36 -110 6 -30 7 -31 8 -8 0 15 -13 64 -30 110 -44 117 -44
199 1 327 18 51 40 123 50 160 13 53 20 66 36 66 27 0 44 13 44 35 0 10 -6 23
-12 27 -7 4 -13 19 -13 33 0 18 -6 26 -20 28 -12 2 -24 0 -28 -4z"/>
<path d="M662 9635 c-41 -34 -43 -75 -6 -104 33 -26 36 -26 64 -3 18 14 21 25
17 44 -12 45 -67 47 -67 3 0 -24 25 -41 35 -25 4 6 -1 10 -9 10 -18 0 -22 25
-5 36 15 9 43 -21 36 -40 -3 -8 -15 -20 -26 -26 -17 -8 -24 -7 -41 10 -11 11
-20 29 -20 39 0 30 33 64 64 64 31 0 73 -35 79 -67 4 -21 4 -21 6 1 1 28 -36
70 -70 78 -19 5 -34 0 -57 -20z"/>
<path d="M699 9413 c-1 -4 -1 -12 0 -17 1 -4 -4 -15 -11 -23 -10 -12 -9 -17 5
-28 9 -7 17 -25 17 -42 0 -50 -29 -201 -57 -303 l-27 -95 -12 75 c-15 97 -45
181 -88 246 -24 35 -31 55 -25 65 28 44 -12 109 -67 109 -70 0 -101 -84 -49
-135 26 -27 46 -31 76 -14 25 13 38 -1 79 -86 68 -140 78 -282 31 -428 -15
-48 -32 -91 -36 -95 -5 -4 -5 1 -2 11 9 24 -19 77 -40 77 -22 0 -11 -66 17
-95 l21 -22 -21 -101 c-28 -140 -35 -259 -21 -382 22 -194 73 -388 163 -619
40 -101 40 -105 28 -159 -7 -30 -18 -71 -25 -91 l-14 -36 0 46 c-1 26 -10 68
-22 94 -17 39 -24 46 -42 41 -12 -3 -25 -6 -29 -6 -11 0 -4 -68 9 -81 6 -6 9
-18 6 -26 -4 -9 10 -29 35 -51 l42 -37 -35 -140 c-20 -77 -41 -180 -47 -229
l-12 -89 -28 34 c-16 19 -36 57 -45 85 -18 60 -13 101 31 219 40 108 36 180
-18 345 -57 178 -60 196 -36 203 30 8 37 37 13 57 -12 9 -23 25 -25 36 -2 13
-12 19 -28 19 -21 0 -26 -5 -28 -32 -2 -18 -8 -33 -13 -33 -6 0 -9 -12 -7 -27
2 -23 8 -28 31 -28 22 1 29 -5 33 -25 3 -14 25 -90 51 -170 42 -134 45 -150
40 -225 -3 -57 -13 -98 -33 -145 -21 -49 -28 -81 -28 -130 0 -70 13 -105 66
-173 17 -20 28 -43 25 -51 -14 -37 35 -361 59 -385 12 -13 12 10 -2 54 -8 28
-21 87 -28 132 l-13 82 36 -29 c52 -44 111 -42 157 4 21 21 34 43 33 58 -1 19
-2 18 -10 -9 -13 -44 -53 -73 -102 -73 -33 0 -46 7 -80 40 l-40 41 6 102 c9
138 27 232 97 492 66 243 90 373 90 482 l0 72 40 32 c22 18 39 40 38 48 -1 9
2 23 7 31 17 27 16 67 -3 74 -9 3 -22 9 -29 12 -8 3 -19 -10 -30 -35 -10 -23
-21 -41 -25 -41 -5 0 -8 -8 -9 -17 0 -10 -7 2 -14 27 -7 25 -22 68 -33 97 -17
42 -19 54 -8 60 44 26 49 130 10 213 -29 63 -96 170 -106 170 -4 0 -17 -26
-29 -57 -27 -70 -37 -190 -19 -236 17 -41 69 -97 92 -97 19 0 32 -19 53 -80
l14 -38 -35 14 c-25 11 -40 12 -54 4 -46 -25 -54 -97 -15 -135 31 -32 50 -31
71 0 14 21 15 31 6 51 -15 32 -40 41 -60 20 -13 -13 -14 -20 -6 -34 16 -25 44
-28 44 -4 0 26 -11 34 -27 21 -9 -9 -13 -8 -13 0 0 6 7 14 16 18 17 6 44 -20
44 -43 0 -15 -27 -44 -41 -44 -20 0 -49 42 -49 71 0 48 16 69 54 69 69 0 95
-66 96 -238 0 -103 -16 -240 -29 -255 -8 -8 -88 206 -127 341 -56 194 -68 276
-68 467 -1 203 8 251 99 535 26 80 59 195 75 255 24 92 31 110 48 110 10 1 31
9 47 19 24 16 26 20 12 33 -14 14 -18 13 -47 -7 l-31 -22 5 24 c3 12 8 49 11
80 4 39 12 61 23 67 16 9 16 12 0 38 -16 27 -47 43 -49 26z m-63 -1570 c-10
-10 -19 5 -10 18 6 11 8 11 12 0 2 -7 1 -15 -2 -18z"/>
<path d="M7796 9395 c-19 -29 -20 -42 -4 -47 14 -5 39 -168 26 -168 -4 0 -8 4
-8 8 0 5 -12 14 -27 21 -21 10 -28 9 -35 -1 -10 -17 38 -57 62 -51 14 4 21
-12 43 -99 14 -57 51 -181 81 -276 87 -272 101 -349 100 -532 -1 -128 -5 -178
-28 -285 -25 -120 -110 -396 -152 -490 l-17 -40 -13 60 c-36 173 -25 371 24
420 50 51 126 10 108 -58 -9 -36 -51 -64 -71 -47 -19 16 -19 54 0 70 13 11 18
11 28 0 8 -8 8 -11 1 -7 -17 10 -40 -21 -26 -35 17 -17 42 -1 42 26 0 30 -13
40 -40 31 -39 -12 -38 -88 1 -100 31 -10 67 20 75 61 13 71 -38 119 -98 90
-28 -14 -29 -14 -22 6 20 64 36 89 67 102 94 39 122 161 70 309 -14 42 -30 77
-34 77 -4 0 -28 -33 -54 -74 -49 -78 -85 -169 -85 -211 0 -34 26 -94 43 -101
12 -4 10 -15 -9 -62 -13 -31 -26 -72 -30 -89 -7 -39 -17 -35 -41 15 -22 48
-29 52 -64 35 -24 -12 -27 -18 -19 -29 7 -7 9 -17 6 -22 -3 -6 0 -15 8 -21 8
-7 12 -20 9 -30 -3 -12 8 -28 36 -50 l41 -33 0 -88 c0 -109 23 -233 89 -473
81 -297 86 -329 86 -532 -1 -154 -4 -192 -23 -262 -25 -93 -26 -101 -12 -87
19 19 51 182 57 289 5 92 9 115 28 140 36 49 65 112 64 142 0 22 -3 17 -13
-19 -12 -44 -63 -134 -71 -126 -2 2 -11 50 -19 107 -9 57 -30 158 -47 224
l-32 121 39 35 c20 19 38 42 39 50 1 9 5 23 8 31 20 54 18 70 -10 81 -30 11
-48 -4 -60 -48 -3 -13 -9 -23 -14 -23 -4 0 -5 -24 -2 -52 8 -75 -8 -52 -33 45
l-20 82 28 69 c157 384 213 737 159 1014 -11 56 -23 107 -26 112 -3 5 6 21 20
34 15 14 29 40 32 60 5 31 3 36 -14 36 -21 0 -43 -36 -43 -73 -1 -12 -15 19
-32 68 -26 76 -31 104 -31 185 0 110 30 217 82 299 31 47 34 49 61 40 47 -17
99 21 100 72 1 70 -82 105 -130 54 -19 -20 -22 -32 -17 -65 4 -34 0 -50 -28
-96 -44 -72 -74 -163 -82 -243 -4 -42 -9 -58 -15 -48 -18 32 -68 255 -74 330
-6 69 -5 79 12 92 15 11 17 16 7 26 -7 7 -13 21 -13 31 0 26 -25 22 -44 -7z
m121 -1551 c-9 -9 -28 6 -21 18 4 6 10 6 17 -1 6 -6 8 -13 4 -17z"/>
<path d="M8100 7730 c-6 -11 -7 -20 -3 -20 4 0 -3 -7 -15 -16 -29 -20 -26 -58
5 -62 l21 -3 -23 -87 c-13 -48 -35 -119 -49 -158 -35 -100 -41 -157 -22 -237
9 -37 23 -81 32 -98 8 -17 19 -49 24 -72 5 -28 8 -34 9 -16 1 14 -13 63 -30
110 -46 124 -45 189 9 349 23 69 45 143 50 165 7 35 11 39 37 40 23 0 31 5 33
21 2 11 -4 26 -12 33 -8 7 -12 19 -9 27 6 17 -14 44 -33 44 -7 0 -18 -9 -24
-20z"/>
<path d="M655 6715 c-14 -13 -25 -36 -25 -50 0 -29 32 -65 58 -65 22 0 52 30
52 52 0 21 -25 40 -47 36 -24 -4 -25 -51 0 -56 9 -2 17 1 17 7 0 6 -7 8 -15 5
-10 -4 -15 0 -15 15 0 26 37 29 47 5 15 -40 -35 -68 -68 -38 -25 22 -24 55 1
82 36 39 92 24 115 -31 11 -25 14 -28 15 -11 0 12 -12 33 -26 48 -34 34 -77
34 -109 1z"/>
<path d="M7775 6716 c-47 -47 -45 -110 7 -158 23 -21 40 -28 72 -28 42 0 106
31 106 51 0 6 -14 -1 -31 -15 -64 -54 -162 -18 -175 65 -5 29 -1 41 21 68 35
40 78 40 108 -1 17 -23 19 -31 9 -53 -14 -31 -39 -42 -61 -28 -24 15 -21 58 4
58 11 0 20 -7 20 -15 0 -9 -7 -14 -20 -12 -16 3 -17 1 -8 -8 16 -17 43 -5 43
19 0 26 -30 43 -53 30 -27 -16 -22 -67 7 -81 31 -13 50 -6 72 27 14 21 14 30
4 55 -23 55 -84 67 -125 26z"/>
<path d="M699 6500 c-2 -14 -5 -22 -14 -44 -6 -14 -3 -23 10 -32 17 -13 18
-20 6 -106 -6 -51 -26 -147 -43 -213 l-32 -120 -12 77 c-17 106 -57 216 -98
267 -6 8 -11 39 -11 68 0 45 -4 58 -24 74 -50 41 -121 6 -121 -60 0 -55 35
-86 89 -77 39 6 42 5 67 -35 51 -81 76 -167 81 -274 5 -92 3 -108 -27 -202
-17 -57 -34 -103 -37 -103 -3 0 -3 10 0 22 8 30 -19 79 -39 71 -22 -8 -9 -70
19 -93 21 -18 21 -18 4 -91 -10 -40 -23 -117 -29 -171 -26 -224 33 -521 182
-913 l23 -60 -24 -90 -24 -90 -3 50 c-3 46 -22 104 -44 131 -6 9 -15 9 -33 0
-25 -11 -29 -45 -10 -76 5 -8 8 -22 7 -30 -1 -9 16 -33 38 -54 28 -26 39 -44
35 -55 -18 -46 -67 -268 -77 -349 l-11 -94 -19 24 c-73 92 -80 152 -34 290 47
138 48 206 7 327 -30 86 -71 228 -71 244 0 4 4 6 9 3 4 -3 16 0 26 8 20 15 13
56 -11 56 -8 0 -14 8 -14 19 0 10 -7 24 -15 31 -21 17 -48 -6 -42 -36 2 -14
-2 -25 -9 -28 -19 -7 -18 -41 1 -56 11 -9 18 -10 29 -1 11 10 16 2 26 -41 7
-29 30 -106 51 -171 52 -156 52 -211 3 -354 -29 -84 -35 -113 -30 -149 6 -49
33 -106 69 -150 20 -25 24 -41 25 -119 2 -88 28 -241 51 -299 22 -57 20 -18
-4 78 -14 54 -25 114 -25 133 l0 35 31 -26 c36 -31 69 -41 105 -32 37 10 84
60 83 88 -1 20 -2 21 -6 3 -3 -11 -16 -32 -30 -47 -74 -78 -193 -15 -193 101
0 89 29 272 64 406 19 72 48 182 65 245 41 155 61 277 61 370 l0 77 41 32 c27
22 38 38 34 49 -3 8 -1 18 5 22 6 4 13 23 16 43 4 33 2 36 -27 42 -17 4 -32 5
-33 3 -1 -1 -14 -27 -28 -56 l-25 -53 -7 38 c-3 21 -17 64 -30 96 l-24 58 24
24 c20 20 24 34 24 79 0 69 -23 132 -84 226 -53 82 -52 82 -85 -17 -45 -134
-18 -258 66 -298 35 -17 45 -29 62 -73 26 -66 26 -67 -1 -48 -52 37 -108 4
-108 -62 0 -65 56 -104 94 -66 22 21 20 50 -4 74 -33 33 -72 1 -49 -41 13 -25
32 -20 40 12 5 20 7 21 13 7 10 -23 -11 -58 -34 -58 -44 0 -68 91 -32 123 44
40 105 4 121 -74 20 -92 11 -326 -15 -399 -8 -21 -77 156 -124 315 -80 274
-99 504 -60 708 11 57 42 175 70 263 27 87 64 211 81 274 17 63 33 121 35 128
2 6 12 12 24 12 23 0 60 29 60 47 0 21 -37 15 -61 -9 l-21 -23 6 30 c3 17 8
56 12 87 4 34 12 59 20 62 19 7 18 32 -1 40 -8 3 -15 12 -15 21 0 16 -29 21
-31 5z m-65 -1541 c-10 -4 -13 -8 -6 -8 6 -1 12 -9 12 -18 -1 -16 -2 -16 -15
1 -16 21 -2 52 18 39 6 -4 3 -9 -9 -14z"/>
<path d="M7803 6490 c-3 -11 -9 -20 -14 -20 -14 0 -11 -28 4 -37 8 -5 17 -42
23 -91 7 -60 6 -79 -1 -68 -15 20 -61 31 -70 17 -9 -15 34 -50 62 -51 16 0 24
-8 29 -27 12 -58 66 -244 114 -398 91 -289 108 -475 65 -715 -28 -158 -99
-396 -156 -526 l-22 -49 -8 30 c-22 76 -32 235 -20 322 12 96 30 132 75 148
48 17 87 -31 72 -89 -14 -56 -86 -56 -86 0 0 29 37 53 46 29 3 -8 3 -23 0 -32
-5 -13 -9 -14 -19 -4 -9 9 -9 14 3 21 9 6 10 10 3 10 -19 0 -26 -20 -13 -36
16 -19 40 -1 40 31 0 30 -28 40 -51 19 -34 -31 -17 -94 26 -94 30 0 65 43 65
80 0 59 -72 104 -108 68 -22 -22 -23 0 -2 49 16 38 29 51 59 64 29 13 44 28
64 70 40 79 36 160 -14 277 l-20 46 -36 -53 c-95 -142 -122 -257 -75 -320 l23
-31 -29 -84 c-16 -46 -33 -81 -38 -78 -5 4 -17 24 -26 45 -19 40 -23 42 -63
27 -21 -8 -25 -13 -16 -24 6 -7 9 -20 6 -28 -3 -8 1 -20 9 -27 8 -7 12 -19 9
-27 -3 -9 9 -28 34 -49 l40 -34 6 -123 c5 -125 13 -161 116 -548 43 -163 61
-278 61 -391 0 -95 -1 -98 -30 -128 -59 -58 -143 -47 -177 24 -21 43 -9 90 30
118 34 26 76 15 95 -26 19 -39 -6 -80 -46 -75 -23 2 -27 8 -27 33 0 23 4 30
20 30 11 0 21 -8 23 -17 2 -11 -3 -18 -13 -18 -9 0 -13 -5 -9 -11 10 -16 38
16 31 35 -15 39 -67 25 -67 -18 0 -29 18 -46 51 -46 30 0 44 14 54 52 6 22 1
33 -23 58 -17 16 -40 30 -52 30 -31 0 -90 -62 -90 -95 0 -53 46 -112 96 -121
41 -8 66 0 106 34 l31 26 -7 -54 c-4 -30 -16 -90 -28 -133 -26 -97 -17 -114
11 -21 27 91 41 182 41 271 0 67 2 75 40 130 25 36 42 73 45 98 4 34 3 36 -4
10 -9 -36 -37 -92 -61 -123 -18 -22 -18 -22 -25 30 -10 85 -34 206 -63 312
l-26 99 44 37 c27 23 40 41 36 49 -4 6 -3 17 2 24 5 7 12 26 15 42 5 25 1 32
-18 41 -29 14 -34 10 -61 -42 -17 -32 -21 -53 -17 -90 8 -69 -4 -51 -31 49
l-24 85 44 109 c156 395 203 748 136 1025 l-19 77 23 22 c29 27 42 78 23 90
-18 11 -35 -8 -46 -50 -8 -33 -10 -30 -38 65 -47 156 -37 291 32 429 38 75 48
84 93 78 32 -5 43 -1 64 20 34 34 34 79 1 112 -31 32 -69 32 -102 -1 -22 -22
-25 -32 -20 -66 5 -36 0 -51 -33 -105 -42 -69 -80 -194 -80 -264 -1 -30 -3
-39 -9 -29 -17 28 -71 265 -79 340 -6 66 -5 77 11 90 17 14 17 17 2 48 -19 37
-34 41 -42 12z"/>
<path d="M8113 4833 c-7 -3 -13 -15 -13 -28 0 -14 -7 -25 -20 -28 -24 -6 -26
-39 -3 -58 9 -8 18 -13 20 -11 1 1 5 2 7 2 7 0 -38 -158 -69 -240 -40 -108
-39 -205 4 -319 17 -47 32 -96 32 -110 2 -24 2 -25 6 -3 3 12 -10 64 -28 115
-47 132 -45 195 9 357 23 69 47 144 53 168 8 36 13 41 25 32 11 -10 17 -10 29
0 19 15 20 49 1 56 -8 3 -11 15 -9 29 5 25 -21 46 -44 38z"/>
<path d="M675 3818 c-28 -16 -44 -39 -45 -63 -1 -60 79 -91 102 -39 15 33 0
59 -33 59 -19 0 -25 -6 -27 -27 -3 -24 0 -28 20 -27 18 1 19 2 5 6 -21 5 -19
38 2 38 8 0 19 -7 24 -17 14 -22 -7 -48 -39 -48 -50 0 -56 75 -8 106 23 16 28
16 59 1 24 -11 37 -26 44 -49 7 -26 9 -28 10 -10 1 28 -49 82 -76 82 -10 0
-27 -6 -38 -12z"/>
<path d="M703 3589 c-6 -6 -9 -18 -6 -25 3 -8 0 -14 -6 -14 -17 0 -13 -30 5
-37 23 -8 13 -113 -26 -270 -43 -176 -44 -177 -57 -84 -13 87 -59 208 -96 255
-21 25 -22 34 -13 58 13 36 -7 77 -47 96 -22 11 -31 10 -55 -2 -33 -17 -42
-34 -42 -76 0 -56 43 -82 114 -69 15 3 28 -12 57 -65 75 -138 89 -284 42 -441
-14 -49 -31 -94 -36 -100 -6 -6 -8 -2 -4 14 8 32 -12 71 -36 71 -17 0 -19 -5
-14 -36 4 -20 16 -47 27 -59 l22 -23 -21 -96 c-65 -297 -18 -597 164 -1067 18
-46 18 -48 -6 -135 l-24 -89 -6 55 c-3 30 -13 72 -23 94 -14 31 -21 37 -39 32
-12 -3 -25 -6 -30 -6 -10 0 0 -71 12 -83 5 -5 7 -16 4 -23 -3 -8 12 -30 36
-52 l41 -37 -31 -115 c-16 -63 -38 -167 -47 -230 l-18 -115 -32 47 c-62 91
-64 141 -8 293 37 100 35 192 -4 305 -17 47 -37 112 -46 145 -8 33 -17 67 -20
76 -3 11 3 18 16 22 30 8 37 37 13 57 -12 9 -23 25 -25 36 -2 13 -12 19 -28
19 -20 0 -25 -5 -25 -25 0 -14 -6 -30 -13 -36 -8 -5 -12 -21 -10 -35 2 -19 8
-24 30 -22 23 1 29 -3 33 -25 3 -15 26 -90 50 -167 58 -180 59 -231 10 -371
-19 -54 -35 -113 -35 -130 0 -46 25 -110 66 -166 19 -28 33 -56 30 -63 -16
-42 42 -385 65 -385 11 0 12 -3 -7 61 -22 74 -43 209 -33 209 5 0 9 -5 9 -10
0 -19 65 -50 104 -50 30 0 45 7 72 34 21 21 34 43 33 58 -1 19 -2 18 -10 -9
-13 -44 -53 -73 -102 -73 -33 0 -46 7 -80 40 l-40 41 6 103 c8 132 35 269 93
476 65 235 84 329 91 458 l6 114 39 31 c26 21 38 37 35 49 -3 9 0 22 7 27 14
12 15 76 1 76 -5 0 -16 4 -24 9 -16 10 -38 -14 -48 -51 -3 -13 -9 -23 -14 -23
-5 0 -9 -8 -10 -17 0 -10 -8 9 -18 42 -10 33 -25 76 -33 96 -15 34 -14 36 8
63 34 39 33 121 -2 196 -29 63 -96 170 -106 170 -4 0 -17 -26 -29 -57 -30 -78
-36 -181 -14 -238 17 -45 65 -95 91 -95 12 0 64 -94 64 -115 0 -3 -16 3 -35
12 -34 16 -36 16 -63 -4 -39 -29 -43 -93 -8 -128 30 -30 40 -31 66 -5 25 25
25 52 0 75 -32 29 -78 -6 -50 -40 17 -21 40 -19 40 3 0 26 -11 34 -28 19 -13
-10 -14 -9 -10 3 7 23 35 23 48 0 6 -11 8 -29 5 -39 -16 -51 -85 -14 -85 45 0
36 28 74 55 74 30 0 77 -54 86 -100 17 -91 7 -335 -17 -400 -6 -17 -23 22 -85
200 -89 254 -125 465 -116 669 6 140 27 237 102 471 25 80 59 194 75 255 27
106 29 110 58 116 17 3 38 13 46 22 14 13 14 16 0 28 -12 10 -20 8 -45 -10
l-30 -22 5 23 c3 13 8 50 11 83 4 36 13 64 23 71 14 10 13 15 -7 43 -26 36
-24 34 -38 20z m-67 -1576 c-10 -10 -19 5 -10 18 6 11 8 11 12 0 2 -7 1 -15
-2 -18z"/>
<path d="M7815 3592 c-13 -9 -35 -49 -35 -62 0 -5 6 -10 13 -10 9 0 16 -26 23
-85 5 -47 6 -85 2 -85 -5 0 -8 4 -8 8 0 5 -12 14 -27 21 -21 10 -28 9 -35 -1
-10 -17 26 -48 57 -48 20 0 25 -9 40 -72 10 -40 44 -158 76 -261 33 -104 68
-223 78 -265 50 -195 51 -374 6 -598 -24 -118 -110 -398 -151 -489 l-18 -40
-12 65 c-22 113 -27 220 -14 305 14 96 21 110 62 131 29 15 32 15 57 -4 37
-27 40 -74 7 -107 -21 -21 -29 -24 -46 -15 -22 12 -27 49 -8 68 14 14 38 16
38 2 0 -5 -6 -7 -14 -4 -16 6 -31 -25 -17 -39 18 -18 43 1 39 30 -6 54 -68 33
-68 -22 0 -30 31 -56 58 -48 26 6 52 50 52 88 0 27 -40 75 -62 75 -7 0 -25 -7
-40 -14 -16 -8 -28 -13 -28 -11 0 2 9 29 21 60 15 42 25 55 41 55 31 0 85 61
98 110 16 61 9 143 -21 218 -13 34 -27 62 -30 62 -10 0 -85 -119 -108 -170
-40 -91 -36 -186 9 -210 18 -10 18 -12 -5 -64 -13 -29 -27 -70 -30 -90 -9 -43
-19 -39 -45 20 -18 39 -50 61 -50 34 0 -5 -6 -7 -14 -4 -18 7 -32 -14 -18 -28
6 -6 8 -16 6 -23 -3 -6 2 -17 10 -24 7 -6 12 -20 9 -29 -3 -12 9 -29 36 -50
l41 -33 0 -89 c0 -108 25 -241 86 -460 68 -247 85 -332 91 -471 6 -140 1 -158
-50 -189 -44 -27 -89 -25 -125 5 -53 44 -51 126 2 155 53 28 117 -20 97 -72
-12 -31 -46 -45 -66 -28 -29 24 -7 80 24 60 20 -12 6 -41 -16 -33 -14 5 -16 3
-6 -7 16 -17 43 -5 43 19 0 26 -30 43 -53 30 -36 -20 -10 -89 33 -89 10 0 28
12 40 27 55 70 -42 149 -113 93 -35 -28 -44 -78 -22 -124 38 -80 142 -89 203
-16 11 12 12 5 7 -44 -4 -33 -15 -91 -26 -130 -21 -82 -23 -94 -9 -80 19 19
51 183 57 294 5 102 9 118 30 144 36 43 63 101 62 133 0 22 -3 17 -13 -19 -10
-38 -60 -128 -71 -128 -2 0 -8 39 -15 88 -7 48 -28 150 -47 226 l-34 140 42
42 c23 24 38 47 34 54 -4 6 -2 16 3 23 5 7 12 24 16 40 5 23 2 29 -20 39 -23
11 -28 9 -45 -12 -10 -14 -19 -33 -19 -42 0 -10 -4 -18 -10 -18 -5 0 -7 -22
-3 -52 8 -76 -10 -50 -34 49 -20 81 -20 82 -1 125 40 87 137 396 158 502 41
205 42 389 4 579 l-18 89 21 16 c12 10 25 34 28 55 6 32 5 37 -12 37 -21 0
-43 -36 -44 -73 0 -33 -58 159 -65 218 -12 97 44 292 102 363 18 21 22 22 47
11 24 -11 31 -10 55 8 38 28 50 67 31 101 -21 38 -54 53 -90 40 -38 -13 -53
-42 -46 -90 4 -32 0 -48 -22 -81 -51 -78 -82 -176 -94 -292 -6 -67 -87 263
-87 357 0 27 6 45 18 54 14 10 15 15 5 25 -7 7 -13 21 -13 30 0 21 -12 31 -25
21z m99 -1573 c-3 -5 -10 -7 -15 -3 -5 3 -7 10 -3 15 3 5 10 7 15 3 5 -3 7
-10 3 -15z"/>
<path d="M8107 1913 c-4 -3 -7 -14 -7 -22 0 -9 -9 -22 -21 -29 -27 -17 -22
-56 8 -60 l21 -3 -23 -87 c-13 -48 -35 -118 -48 -157 -14 -38 -28 -89 -32
-111 -8 -50 9 -148 36 -212 12 -26 24 -65 29 -87 5 -28 8 -32 9 -14 1 14 -13
63 -30 110 -45 120 -44 190 4 334 20 61 42 135 50 165 12 50 15 54 42 55 35 0
45 27 21 54 -9 10 -13 20 -10 24 3 3 3 15 -1 26 -6 20 -34 28 -48 14z"/>
<path d="M883 1008 c-44 -50 -35 -98 22 -125 30 -14 41 -15 67 -5 26 10 35 9
57 -7 84 -60 239 -111 335 -111 71 0 49 -14 -69 -44 -216 -54 -349 -69 -370
-39 -9 11 -18 14 -31 8 -10 -5 -23 -9 -29 -10 -15 -1 -35 -15 -35 -25 0 -5 16
-17 36 -26 33 -16 38 -16 48 -2 7 10 37 17 86 22 41 4 84 9 95 12 18 4 18 4 4
-8 -9 -7 -21 -24 -28 -37 -11 -19 -11 -25 0 -32 8 -5 17 -9 21 -9 13 0 38 44
38 67 0 16 7 24 28 29 106 24 213 53 387 104 286 85 365 100 542 107 213 8
409 -20 655 -92 115 -34 318 -107 318 -115 0 -7 -118 -26 -225 -36 -83 -7
-245 10 -286 31 -33 18 -49 43 -49 79 0 55 91 76 135 31 31 -30 31 -40 1 -60
-30 -20 -79 -5 -74 23 4 20 49 24 56 5 2 -7 -3 -13 -12 -13 -9 0 -16 5 -16 11
0 5 -5 7 -10 4 -6 -4 -8 -11 -5 -16 8 -12 42 -12 50 1 11 18 -17 41 -44 38
-35 -4 -40 -40 -9 -62 29 -21 51 -20 78 2 46 37 -4 102 -78 102 -43 0 -82 -35
-82 -72 0 -17 8 -40 18 -51 16 -19 16 -19 -8 -12 -72 22 -115 44 -119 61 -7
35 -33 63 -84 89 -70 34 -173 35 -271 0 -38 -13 -73 -28 -78 -33 -17 -17 157
-113 249 -137 70 -19 123 -12 162 21 l29 24 49 -21 c26 -11 73 -26 103 -33
l54 -12 -57 -28 c-32 -16 -59 -32 -62 -36 -2 -4 1 -19 8 -33 10 -21 18 -25 44
-23 18 2 39 8 47 15 7 6 20 9 29 6 9 -4 30 10 57 39 l43 46 97 0 c127 0 222
17 530 95 271 68 387 90 541 100 81 6 103 4 134 -11 93 -44 101 -164 15 -209
-58 -30 -127 -9 -149 44 -20 47 14 91 72 91 26 0 57 -28 57 -52 0 -42 -72 -51
-78 -10 -3 20 0 23 20 20 14 -2 22 -9 20 -18 -3 -12 -1 -13 10 -2 11 11 10 16
-6 27 -37 27 -76 -21 -44 -53 30 -30 88 -2 88 43 0 45 -81 73 -121 42 -70 -54
-22 -157 74 -157 76 0 126 50 127 127 0 34 -7 50 -32 79 l-33 37 63 -7 c35 -4
104 -17 153 -30 49 -12 89 -19 89 -15 0 8 -34 20 -105 38 -69 18 -182 31 -273
32 -77 1 -90 4 -117 27 -96 81 -195 91 -350 37 -138 -48 -214 -48 -363 -1 -59
19 -125 39 -147 45 -125 31 -121 29 -120 58 0 22 -5 29 -24 31 -14 2 -30 -2
-35 -10 -6 -7 -24 -13 -41 -13 -21 0 -31 -5 -33 -19 -5 -23 23 -47 44 -39 8 3
14 -1 14 -11 0 -22 31 -37 53 -25 9 6 17 17 17 24 0 9 10 15 23 15 29 0 147
-32 259 -70 125 -43 214 -42 355 5 152 50 210 47 318 -19 l49 -30 -122 -18
c-67 -9 -179 -31 -248 -47 -69 -17 -133 -31 -143 -31 -9 0 -35 18 -56 40 -22
22 -45 38 -53 35 -7 -2 -23 1 -35 8 -27 16 -82 16 -82 0 0 -6 -3 -15 -7 -19
-5 -4 -8 -11 -8 -15 0 -9 58 -39 77 -39 7 0 13 -4 13 -10 0 -5 26 -10 58 -11
l57 0 -85 -25 c-47 -13 -98 -23 -115 -20 -16 2 -115 34 -220 69 -415 143 -725
178 -1034 117 -113 -23 -115 -23 -130 -4 -22 27 -92 48 -103 31 -4 -7 -8 -15
-8 -19 0 -12 56 -38 82 -39 38 0 -172 -59 -237 -65 -113 -12 -280 27 -383 89
-47 28 -52 35 -46 57 11 40 7 61 -17 86 -31 33 -97 33 -126 2z"/>
<path d="M4166 1009 c-70 -55 4 -162 92 -131 21 7 33 6 48 -5 74 -56 243 -113
336 -113 26 0 48 -4 48 -8 0 -10 -232 -67 -330 -82 -96 -15 -141 -13 -155 7
-8 11 -18 14 -31 8 -10 -4 -24 -7 -30 -6 -6 0 -17 -5 -23 -13 -10 -11 -6 -18
18 -35 33 -24 61 -27 61 -7 0 9 22 15 78 20 42 4 88 10 100 13 l24 6 -26 -26
c-28 -28 -33 -51 -15 -63 15 -9 56 37 61 67 3 20 13 25 83 41 82 18 96 22 370
102 252 75 320 87 505 93 126 4 192 1 280 -12 148 -22 380 -81 545 -139 71
-25 131 -46 132 -46 2 0 3 -4 3 -9 0 -9 -100 -25 -225 -37 -78 -7 -246 10
-279 28 -11 7 -33 13 -47 14 -14 1 -46 11 -72 22 -34 15 -50 29 -60 55 -38 90
-195 125 -339 76 -109 -37 -109 -37 -47 -76 174 -111 297 -137 368 -77 l28 23
53 -20 c30 -11 76 -26 104 -33 l49 -13 -56 -28 c-58 -28 -61 -33 -51 -72 5
-18 12 -21 40 -19 18 2 40 8 48 15 7 6 21 9 29 5 11 -4 30 9 58 40 l42 46 97
0 c124 0 236 19 498 86 323 83 403 97 582 109 80 5 100 3 129 -12 114 -60 94
-206 -31 -220 -37 -4 -49 -1 -76 22 -38 32 -43 74 -12 105 36 36 110 20 110
-24 0 -32 -24 -50 -56 -42 -32 8 -29 40 5 44 18 3 22 0 18 -12 -4 -9 -2 -16 3
-16 17 0 11 29 -8 39 -37 20 -70 -27 -40 -57 15 -15 61 -15 76 0 18 18 14 63
-6 81 -44 40 -132 3 -132 -54 0 -41 15 -66 50 -84 67 -35 152 -3 178 67 18 47
10 78 -31 124 l-32 37 63 -7 c35 -4 104 -17 153 -30 95 -24 124 -17 37 9 -89
26 -215 45 -313 46 -84 1 -97 4 -127 26 -109 83 -190 91 -351 38 -152 -50
-212 -49 -398 10 -78 25 -147 45 -153 45 -6 0 -28 5 -49 11 -30 8 -36 13 -28
23 6 8 9 21 5 30 -7 19 -59 22 -71 4 -4 -7 -19 -13 -32 -13 -13 0 -29 -8 -35
-18 -9 -15 -7 -21 9 -33 11 -8 25 -12 32 -10 7 3 13 -1 13 -9 0 -8 9 -19 21
-25 16 -9 25 -8 40 6 10 9 16 21 13 25 -14 23 89 0 286 -62 126 -41 230 -38
364 9 132 47 202 43 299 -20 l51 -33 -122 -17 c-67 -9 -179 -31 -248 -47 -69
-17 -133 -31 -143 -31 -10 0 -34 18 -55 41 -24 28 -42 39 -52 35 -9 -4 -23 -1
-30 5 -24 20 -81 20 -88 1 -3 -9 -8 -22 -12 -29 -5 -11 48 -43 73 -43 7 0 13
-4 13 -10 0 -6 28 -10 63 -11 l62 -1 -90 -24 c-49 -13 -103 -22 -120 -20 -16
2 -102 30 -190 61 -415 147 -755 187 -1058 125 -107 -22 -108 -22 -130 -3 -31
27 -99 46 -109 30 -4 -7 -8 -15 -8 -19 0 -13 74 -39 94 -34 10 3 15 1 10 -3
-5 -4 -54 -21 -109 -37 -168 -49 -326 -37 -485 37 -85 40 -103 56 -89 81 13
25 4 63 -21 88 -27 27 -89 27 -124 -1z"/>
<path d="M651 884 c-26 -34 -27 -68 -1 -94 25 -25 52 -26 73 -2 22 24 21 45
-3 67 -16 15 -22 15 -35 5 -17 -14 -20 -46 -4 -56 6 -3 16 -1 22 6 9 9 9 11
-2 8 -8 -2 -17 5 -19 15 -2 12 3 17 17 17 25 0 34 -14 26 -40 -10 -31 -46 -36
-67 -10 -23 29 -23 55 2 80 39 39 109 14 123 -45 4 -18 5 -17 6 3 3 63 -98 97
-138 46z"/>
<path d="M5798 790 c-32 -24 -37 -64 -13 -96 17 -23 20 -12 4 15 -26 41 15 91
75 91 31 0 76 -36 76 -61 0 -30 -46 -44 -77 -24 -24 16 -27 35 -6 42 6 2 10
-4 9 -14 0 -12 6 -18 19 -18 32 0 26 39 -6 43 -58 7 -62 -52 -5 -71 32 -11 76
13 76 42 0 60 -100 93 -152 51z m102 -51 c0 -5 -7 -9 -15 -9 -15 0 -20 12 -9
23 8 8 24 -1 24 -14z"/>
<path d="M99 73 c6 -10 21 -31 34 -47 l24 -29 29 41 29 42 36 -41 35 -42 31
42 31 42 33 -42 33 -41 17 23 c50 68 43 66 75 21 16 -23 31 -42 34 -42 3 0 18
19 34 42 l29 41 20 -24 c11 -13 26 -33 33 -44 14 -19 14 -19 28 0 7 11 22 31
33 44 l19 23 29 -42 29 -42 36 41 35 41 29 -42 29 -41 36 41 36 42 29 -41 29
-42 28 34 c16 19 29 39 29 44 0 6 18 -10 38 -34 l38 -43 29 42 29 42 23 -26
c12 -14 27 -34 32 -43 12 -19 11 -20 64 51 13 18 15 17 43 -22 16 -23 31 -42
34 -42 3 0 18 19 34 42 24 33 31 38 40 26 54 -71 56 -73 70 -52 8 10 22 30 33
43 l19 23 29 -42 29 -42 36 41 35 41 29 -41 29 -41 34 38 33 39 33 -39 34 -38
29 41 29 41 35 -41 36 -41 29 42 29 42 19 -23 c11 -13 25 -33 33 -43 14 -21
16 -19 70 52 9 12 16 7 40 -26 27 -39 44 -52 44 -34 0 4 13 22 28 40 l28 34
28 -41 c16 -23 31 -41 35 -41 3 1 19 19 34 41 l28 41 32 -41 32 -42 35 40 35
41 29 -41 29 -42 28 34 c16 19 29 39 29 44 0 6 17 -9 38 -33 l37 -43 32 42 32
41 28 -41 c15 -22 31 -40 34 -41 4 0 19 18 35 41 l28 41 28 -34 c15 -18 28
-36 28 -40 0 -18 17 -5 44 34 24 33 31 38 40 26 54 -71 56 -73 70 -52 8 10 22
30 33 43 l19 23 29 -42 29 -42 36 41 35 41 29 -42 30 -41 33 39 34 39 33 -39
33 -38 29 41 29 41 35 -41 36 -41 29 42 29 42 23 -26 c12 -14 27 -34 32 -43
12 -20 11 -20 60 46 l18 24 29 -41 c16 -23 31 -42 34 -42 3 0 18 19 34 42 l29
41 18 -24 c49 -66 48 -66 60 -46 5 9 20 29 32 43 l23 26 29 -42 29 -42 36 41
35 41 29 -41 29 -41 34 38 33 39 33 -39 34 -38 30 41 31 42 33 -42 c36 -46 28
-48 78 20 l18 24 29 -41 c16 -23 31 -42 34 -42 3 0 18 19 34 42 l29 41 20 -24
c11 -13 26 -33 33 -44 14 -19 14 -19 28 0 7 11 22 31 33 44 l19 23 29 -42 29
-42 36 41 35 41 30 -41 30 -40 35 40 35 41 29 -41 29 -42 28 34 c16 19 29 39
29 44 0 6 17 -9 38 -33 l37 -43 30 40 30 41 35 -41 36 -41 29 42 29 42 28 -34
c15 -18 28 -36 28 -40 0 -18 17 -5 44 34 24 33 31 38 40 26 54 -71 56 -73 70
-52 8 10 22 30 33 43 l19 23 29 -42 29 -42 36 41 35 41 29 -41 29 -42 35 42
34 42 31 -42 31 -41 27 33 c16 19 29 39 29 44 0 6 18 -10 38 -34 l38 -43 29
42 29 42 19 -23 c11 -13 26 -33 34 -44 l14 -20 15 20 c9 11 23 31 33 44 l18
24 29 -41 c16 -23 31 -42 34 -42 3 0 18 19 34 42 l29 41 18 -24 c49 -66 48
-66 60 -46 5 9 20 29 32 43 l23 26 29 -42 29 -42 36 41 35 41 29 -41 29 -42
28 34 c16 19 29 39 29 44 0 6 18 -10 39 -34 l38 -44 29 41 29 42 35 -41 36
-41 29 42 29 42 19 -23 c11 -13 26 -33 33 -44 14 -19 14 -19 28 0 7 11 22 31
33 44 l20 24 29 -41 c16 -23 31 -42 34 -42 3 0 18 19 34 42 l29 41 18 -24 c50
-68 42 -66 78 -20 l33 42 31 -42 31 -42 35 42 36 41 29 -41 29 -42 28 34 c16
19 29 39 29 44 0 6 18 -10 38 -34 l38 -43 29 42 29 42 36 -42 36 -42 29 42 29
42 19 -23 c11 -13 26 -33 33 -44 14 -19 14 -19 28 0 7 11 22 31 33 44 l19 23
28 -41 c16 -23 31 -41 35 -41 11 1 63 81 57 88 -4 3 -10 2 -14 -4 -4 -6 -15
-21 -25 -35 l-17 -24 -26 33 c-32 40 -46 40 -78 0 l-26 -33 -26 33 c-32 40
-47 40 -74 2 -12 -17 -24 -30 -28 -30 -4 0 -16 14 -27 30 -25 38 -48 38 -75 0
-12 -17 -24 -30 -28 -30 -4 0 -16 14 -27 30 -26 38 -45 38 -75 -2 l-23 -32
-27 32 c-33 40 -47 40 -80 0 l-26 -31 -23 31 c-28 40 -50 40 -76 2 -11 -16
-23 -30 -27 -30 -4 0 -16 14 -28 30 -27 38 -42 38 -74 -3 l-26 -32 -26 33
c-32 40 -46 40 -78 -1 l-26 -32 -26 33 c-32 40 -47 40 -74 2 -12 -17 -24 -30
-28 -30 -4 0 -16 14 -27 30 -26 38 -48 38 -76 -2 l-23 -31 -26 31 c-33 40 -50
40 -80 0 l-23 -32 -27 32 c-33 40 -49 40 -75 2 -11 -16 -23 -30 -27 -30 -4 0
-16 14 -28 30 -27 38 -50 38 -75 0 -11 -16 -23 -30 -27 -30 -4 0 -16 14 -28
30 -27 38 -42 38 -74 -3 l-26 -32 -26 33 c-32 40 -46 40 -78 0 l-25 -32 -20
25 c-11 13 -20 27 -21 32 -1 19 -41 4 -60 -23 -12 -17 -24 -30 -28 -30 -4 0
-16 14 -27 30 -26 38 -45 38 -75 -2 l-23 -32 -27 32 c-33 40 -50 40 -80 0
l-23 -32 -27 32 c-33 40 -49 40 -75 2 -11 -16 -23 -30 -27 -30 -4 0 -16 14
-28 30 -19 27 -59 42 -60 23 -1 -5 -10 -19 -21 -32 l-20 -25 -25 32 c-32 40
-46 40 -78 0 l-26 -33 -26 33 c-32 40 -47 40 -74 2 -12 -17 -24 -30 -28 -30
-4 0 -16 14 -27 30 -26 38 -48 38 -76 -1 l-22 -32 -29 32 c-35 39 -48 39 -78
-1 l-23 -32 -27 32 c-14 18 -32 32 -38 32 -7 0 -25 -14 -40 -31 l-29 -32 -22
32 c-28 39 -50 39 -76 1 -11 -16 -23 -30 -27 -30 -4 0 -16 14 -28 30 -27 38
-42 38 -74 -3 l-26 -32 -26 33 c-32 40 -46 40 -77 0 l-25 -32 -27 32 c-33 40
-48 40 -75 2 -12 -17 -24 -30 -28 -30 -4 0 -16 14 -27 30 -26 38 -48 38 -76
-2 l-23 -31 -26 31 c-33 40 -50 40 -80 0 l-23 -32 -27 32 c-33 40 -49 40 -75
2 -11 -16 -23 -30 -27 -30 -4 0 -16 13 -28 30 -27 38 -50 38 -75 0 -11 -16
-23 -30 -27 -30 -4 0 -16 14 -28 30 -27 38 -42 38 -74 -3 l-26 -32 -26 33
c-32 40 -46 40 -78 0 l-25 -32 -20 25 c-11 13 -20 27 -21 32 -1 19 -41 4 -60
-23 -12 -17 -24 -30 -28 -30 -4 0 -16 14 -27 30 -26 38 -45 38 -75 -2 l-23
-32 -27 32 c-33 40 -47 40 -80 0 l-27 -32 -23 32 c-30 40 -49 40 -75 2 -11
-16 -23 -30 -27 -30 -4 0 -16 14 -28 30 -27 38 -51 38 -73 0 -10 -16 -22 -30
-26 -30 -4 0 -17 13 -29 30 -29 38 -44 38 -76 -2 l-26 -33 -26 33 c-32 40 -47
40 -74 2 -12 -17 -24 -30 -28 -30 -4 0 -16 14 -27 30 -25 38 -48 38 -75 0 -12
-17 -24 -30 -28 -30 -4 0 -16 14 -27 30 -26 38 -45 38 -75 -2 l-23 -32 -27 32
c-33 40 -49 40 -75 2 -11 -16 -23 -30 -27 -30 -4 0 -16 13 -28 30 -27 38 -50
38 -75 0 -11 -16 -23 -30 -27 -30 -4 0 -16 14 -28 30 -27 38 -42 38 -74 -3
l-26 -32 -26 33 c-32 40 -46 40 -78 0 l-25 -32 -20 25 c-11 13 -20 27 -21 32
-1 19 -41 4 -60 -23 -12 -17 -24 -30 -28 -30 -4 0 -16 14 -27 30 -26 38 -45
38 -75 -2 l-23 -32 -27 32 c-33 40 -50 40 -80 0 l-23 -32 -27 32 c-33 40 -49
40 -75 2 -11 -16 -23 -30 -27 -30 -4 0 -16 14 -28 30 -19 27 -59 42 -60 23 -1
-5 -10 -19 -21 -32 l-20 -25 -25 32 c-32 40 -46 40 -78 0 l-26 -33 -26 33
c-32 40 -47 40 -74 2 -12 -17 -24 -30 -28 -30 -4 0 -16 14 -27 30 -25 38 -48
38 -75 0 -12 -17 -24 -30 -28 -30 -4 0 -16 14 -27 30 -26 38 -45 38 -75 -2
l-23 -32 -27 32 c-33 40 -47 40 -80 0 l-26 -31 -23 31 c-28 40 -50 40 -76 2
-11 -16 -23 -30 -27 -30 -4 0 -16 14 -28 30 -27 38 -51 38 -73 0 -22 -37 -28
-37 -55 0 -29 38 -44 38 -76 -2 l-26 -33 -26 33 c-32 40 -47 40 -74 2 -12 -17
-24 -30 -28 -30 -4 0 -16 14 -27 30 -26 38 -48 38 -76 -1 l-22 -32 -29 32
c-35 39 -48 39 -78 -1 l-23 -32 -27 32 c-29 34 -47 43 -31 15z"/>
</g>
</svg>
