<?xml version="1.0" standalone="no"?>
<!DOCTYPE svg PUBLIC "-//W3C//DTD SVG 20010904//EN"
 "http://www.w3.org/TR/2001/REC-SVG-20010904/DTD/svg10.dtd">
<svg version="1.0" xmlns="http://www.w3.org/2000/svg"
 width="880.000000pt" height="1280.000000pt" viewBox="0 0 880.000000 1280.000000"
 preserveAspectRatio="xMidYMid meet">
<metadata>
Created by potrace 1.15, written by Peter Selinger 2001-2017
</metadata>
<g transform="translate(0.000000,1280.000000) scale(0.100000,-0.100000)"
fill="#fb2904" stroke="none">
<path d="M3469 12789 c-9 -6 0 -9 29 -9 46 0 56 -14 17 -24 -14 -4 -23 -11
-20 -16 3 -6 1 -10 -6 -10 -7 0 -10 -2 -8 -5 3 -2 21 0 40 5 l34 10 -30 -25
c-21 -18 -24 -23 -10 -18 25 8 18 0 -14 -17 -18 -9 -22 -9 -16 0 4 7 -4 4 -19
-5 -30 -20 -33 -27 -8 -19 9 4 4 -5 -13 -20 -32 -27 -15 -37 19 -11 33 25 43
16 13 -10 -15 -14 -23 -25 -16 -25 8 0 8 -5 -2 -17 -11 -15 -10 -14 9 1 12 11
22 16 22 12 0 -4 15 3 33 15 l32 23 -39 -49 -40 -50 35 33 c41 38 63 43 29 7
-13 -14 -25 -33 -26 -43 -2 -12 6 -7 24 14 35 40 77 65 96 58 23 -9 20 -19
-16 -61 l-33 -38 43 34 c24 19 53 47 65 62 11 16 25 29 29 29 5 0 -20 -37 -55
-82 -106 -137 -105 -149 1 -17 60 75 151 163 159 155 2 -2 -21 -27 -52 -56
-30 -29 -53 -55 -50 -58 3 -3 -7 -19 -22 -36 l-28 -31 30 25 c17 13 48 40 69
60 38 34 38 34 18 5 -12 -16 -34 -46 -49 -65 -15 -20 -5 -12 24 18 27 28 55
52 61 52 23 0 27 2 42 14 52 44 36 3 -24 -61 -52 -57 -23 -45 50 20 74 67 71
55 -10 -32 -28 -30 -38 -45 -22 -33 15 12 32 20 36 17 4 -2 20 9 35 25 16 17
33 30 39 30 5 0 23 12 40 28 16 15 -1 -9 -39 -53 -59 -69 -62 -73 -20 -33 28
25 68 56 89 68 l40 22 -39 -48 c-22 -26 -34 -45 -27 -40 16 10 15 0 -4 -29 -9
-14 -14 -25 -12 -25 3 0 26 32 52 71 26 39 50 68 54 65 3 -4 0 -12 -6 -18 -7
-7 -12 -17 -12 -23 0 -5 5 -2 11 8 6 9 13 16 17 13 4 -2 8 7 8 20 1 14 -2 21
-9 17 -6 -3 -7 -1 -3 6 4 6 11 9 15 6 5 -2 16 4 26 15 10 11 14 20 10 20 -12
0 37 50 60 62 11 5 2 -6 -20 -26 -41 -36 -38 -48 5 -20 14 10 3 -7 -25 -37
-27 -29 -40 -45 -27 -35 26 23 29 11 5 -18 -17 -20 -17 -20 1 -6 23 18 48 22
43 7 -2 -7 -9 -12 -15 -12 -5 0 -13 -3 -17 -7 -4 -3 1 -5 12 -4 10 2 28 18 41
37 25 37 51 65 36 39 -4 -8 -9 -23 -9 -33 -1 -9 -15 -32 -31 -50 -26 -29 -25
-28 11 4 34 32 43 35 63 26 29 -13 28 -21 -8 -47 -30 -22 -38 -44 -20 -55 6
-4 30 5 55 19 24 14 52 26 63 26 17 0 52 -28 52 -43 0 -3 -40 -29 -90 -57 -64
-37 -90 -57 -90 -71 0 -10 4 -19 9 -19 6 0 52 23 103 51 l93 50 60 -12 59 -13
-59 -13 c-72 -16 -85 -26 -25 -18 34 4 40 3 25 -5 -16 -8 -12 -9 23 -7 23 1
42 2 42 0 0 -1 -13 -11 -30 -23 -27 -19 -31 -20 -59 -5 -17 8 -35 15 -41 15
-20 0 -10 -38 15 -54 31 -21 31 -29 1 -46 -59 -31 -29 -65 31 -36 27 13 38 14
43 5 6 -8 9 -8 12 1 3 9 13 8 41 -3 54 -23 50 -35 -29 -85 -70 -44 -95 -42
-189 22 -44 29 -91 56 -103 60 -20 7 -23 5 -20 -15 2 -16 27 -37 85 -73 101
-63 102 -65 79 -82 -29 -20 -60 -17 -116 11 -40 20 -50 22 -50 10 0 -16 29
-49 51 -58 10 -4 4 -14 -21 -36 -28 -24 -33 -32 -22 -42 10 -11 18 -10 43 5
36 21 46 14 51 -33 5 -57 25 -47 31 16 5 43 12 63 28 76 45 36 54 21 57 -90 2
-90 5 -104 22 -113 19 -10 20 -7 20 124 l0 136 77 45 c88 51 96 48 87 -32 -6
-45 -10 -52 -50 -77 -24 -15 -44 -32 -44 -37 0 -18 30 -21 55 -5 33 22 35 21
35 -19 0 -23 6 -37 19 -44 26 -14 31 -5 31 55 0 50 2 55 37 79 65 44 73 38 73
-59 0 -98 9 -87 -142 -172 -49 -27 -88 -52 -88 -56 0 -4 9 -9 19 -13 13 -4 49
10 104 40 46 25 87 45 90 45 4 0 7 -18 7 -40 0 -36 -4 -42 -42 -67 -24 -15
-45 -28 -47 -30 -2 -1 2 -9 9 -17 11 -14 15 -14 41 -1 38 20 38 20 45 -25 5
-29 11 -40 24 -40 13 0 19 11 24 40 6 38 27 53 41 30 8 -13 52 -13 60 -1 3 5
-17 22 -44 36 -28 16 -52 36 -55 49 -9 34 -7 66 5 66 6 0 50 -21 98 -47 56
-30 93 -44 105 -40 9 4 15 11 12 16 -3 5 -53 36 -111 70 l-105 61 0 90 c0 101
3 105 63 65 36 -25 37 -28 37 -85 0 -53 2 -60 20 -60 15 0 21 9 26 41 6 36 9
40 28 34 36 -12 71 -11 71 2 0 7 -21 26 -47 42 -47 30 -48 32 -48 80 0 27 5
53 11 56 5 4 40 -11 77 -32 l67 -38 5 -132 c3 -72 8 -135 13 -139 17 -18 26
18 29 116 2 86 6 105 19 108 32 6 61 -31 66 -83 6 -67 10 -76 28 -69 10 4 15
19 15 45 0 45 -1 44 47 24 27 -12 39 -12 50 -4 11 10 11 14 -2 29 -14 16 -14
19 7 32 47 30 52 31 29 5 -14 -15 -21 -28 -18 -28 26 -5 34 -4 49 9 18 15 18
20 2 -68 -6 -34 -5 -34 10 -15 16 19 16 19 10 -8 -5 -22 -3 -26 10 -21 9 3 16
12 16 19 0 7 7 19 16 26 15 12 16 10 10 -21 -7 -33 -6 -34 9 -16 15 19 15 19
15 -3 0 -34 25 -5 37 44 l10 40 7 -42 c4 -24 12 -43 18 -43 5 0 7 12 4 28 -3
15 -2 34 4 42 7 11 10 6 10 -21 0 -26 4 -36 16 -36 12 0 14 7 9 34 -4 20 -2
33 5 33 5 0 10 9 10 20 0 11 4 20 8 20 5 0 7 -25 4 -56 -3 -41 -2 -55 7 -50 6
4 11 16 11 27 0 11 4 18 9 15 5 -4 5 10 0 32 -11 48 -11 60 1 42 9 -13 10 -13
11 0 1 24 17 -21 19 -55 2 -23 4 -18 11 20 5 28 6 65 2 84 -4 24 -2 32 6 27 6
-4 11 -13 11 -19 0 -19 43 -158 47 -153 2 2 -3 30 -11 63 -19 71 -25 188 -11
202 7 7 9 -10 7 -49 -4 -61 13 -86 21 -32 2 15 5 -2 7 -38 3 -71 5 -67 16 25
l7 60 13 -58 c8 -32 19 -66 25 -75 9 -15 10 -15 4 2 -3 11 -8 45 -12 77 -5 48
-3 60 10 65 9 3 19 20 23 37 l6 31 14 -25 c7 -13 14 -44 14 -69 0 -30 3 -40 9
-31 7 11 10 9 14 -10 3 -17 5 -13 6 14 0 20 6 37 11 37 7 0 9 -16 7 -40 -2
-22 -3 -40 -2 -40 0 0 16 11 35 25 34 25 52 26 32 2 -7 -7 -13 -22 -15 -33 -1
-10 -6 -25 -10 -31 -8 -13 -2 -17 18 -14 6 1 -1 -7 -15 -18 -59 -46 -64 -53
-27 -32 51 28 53 27 15 -10 -29 -26 -30 -29 -8 -18 24 11 24 11 -4 -20 -34
-36 -25 -42 12 -8 l25 22 -17 -26 c-15 -25 -15 -27 0 -33 14 -5 15 -9 2 -29
-13 -19 -12 -24 3 -39 12 -12 20 -13 28 -5 6 6 11 7 11 2 0 -5 12 2 26 16 l26
24 -7 -25 c-7 -22 -6 -23 9 -11 15 13 16 -18 14 -447 -2 -291 0 -458 7 -452
12 13 78 13 91 0 6 -6 8 66 6 195 l-3 205 33 0 c33 -1 33 -1 9 -14 -19 -11
-21 -14 -7 -19 9 -4 24 -4 34 -1 9 4 4 -5 -13 -20 -16 -14 -25 -25 -18 -26 6
0 14 4 18 9 3 6 14 9 25 8 10 -1 16 -5 14 -9 -3 -5 -9 -6 -13 -4 -4 3 -6 -7
-5 -22 2 -38 3 -39 19 -18 11 14 15 16 15 5 0 -12 2 -12 10 1 6 10 10 11 10 3
0 -7 7 -13 15 -13 8 0 15 -8 15 -17 0 -10 9 0 19 22 21 43 27 43 11 -1 -10
-24 -9 -26 6 -13 9 7 20 22 25 34 7 14 7 11 3 -14 -4 -23 -3 -31 5 -27 6 4 11
14 11 23 0 9 3 13 7 10 3 -4 12 1 19 11 11 14 13 -37 14 -311 l0 -327 -39 25
c-21 15 -69 37 -107 50 l-69 24 3 38 c2 21 5 45 7 53 9 31 -12 44 -82 48 -42
3 -76 10 -88 20 -12 10 -15 10 -7 2 14 -16 16 -34 3 -26 -5 3 -23 3 -41 -1
l-32 -6 4 -68 5 -67 -33 -6 c-64 -13 -173 -76 -237 -139 -221 -219 -222 -563
-2 -782 178 -178 441 -214 663 -90 24 14 46 25 48 25 2 0 4 -240 4 -534 l0
-534 48 -4 47 -3 -3 578 -2 579 39 59 c127 190 129 431 6 615 l-45 67 0 366 0
366 31 50 31 50 -6 -42 c-4 -24 -2 -43 3 -43 5 0 16 19 25 43 l16 42 -6 -38
c-4 -33 -3 -38 12 -35 10 2 22 18 27 38 8 29 11 32 16 16 6 -16 10 -13 24 20
l16 39 2 -70 c1 -64 2 -67 10 -30 4 22 9 63 10 90 2 42 3 45 7 15 l4 -35 18
55 18 55 -5 -45 c-6 -41 -5 -44 10 -32 14 12 19 12 32 -1 14 -14 13 -17 -7
-31 -12 -9 -19 -16 -15 -16 5 0 28 14 52 30 24 17 47 30 52 30 12 0 -40 -46
-79 -70 -39 -24 -23 -26 29 -5 42 18 59 12 18 -7 -23 -10 -25 -13 -9 -18 16
-6 15 -9 -11 -23 -39 -21 -24 -22 18 -1 l32 16 -30 -33 -30 -33 40 29 40 29
-27 -34 c-20 -27 -33 -34 -54 -33 l-28 2 27 -25 c28 -26 36 -69 15 -77 -9 -3
-7 -7 6 -12 11 -5 27 -3 38 4 16 10 19 8 24 -18 4 -18 15 -33 27 -37 19 -6 19
-7 -6 -22 -17 -10 -27 -25 -27 -40 0 -20 -3 -21 -20 -12 -14 7 -26 8 -39 0
-28 -14 -31 -13 -31 15 0 14 -8 29 -20 35 -20 11 -20 12 -2 28 25 23 44 70 31
77 -5 4 -7 10 -4 15 3 5 1 11 -5 15 -5 3 -10 1 -10 -5 0 -7 -7 -10 -15 -6 -8
3 -15 1 -15 -3 0 -5 7 -11 15 -15 8 -3 15 -15 15 -26 0 -24 -4 -25 -35 -4 -19
13 -25 26 -27 58 l-1 41 -4 -38 c-5 -42 -23 -46 -34 -6 -4 13 -7 18 -8 12 -1
-7 -8 -13 -17 -13 -14 0 -14 -3 -4 -15 9 -10 9 -15 1 -15 -6 0 -11 -5 -11 -10
0 -6 8 -5 20 2 15 9 22 10 31 1 8 -8 3 -15 -21 -28 -43 -22 -32 -30 13 -9 31
15 41 15 64 5 26 -12 27 -13 9 -26 -14 -11 -24 -12 -40 -3 -18 10 -19 9 -9 -4
10 -11 10 -17 0 -27 -10 -10 -7 -11 15 -6 42 11 54 -4 22 -26 -27 -18 -29 -18
-62 3 -18 11 -35 18 -38 15 -3 -2 10 -14 28 -25 27 -18 30 -22 15 -28 -9 -3
-23 -1 -31 5 -11 10 -14 7 -12 -14 0 -16 6 -23 14 -20 6 2 12 -3 13 -13 1 -11
4 -8 8 7 11 42 29 36 34 -11 l4 -43 1 46 c2 37 7 50 27 63 13 9 27 16 30 16
12 0 4 -35 -12 -52 -15 -17 -15 -18 -1 -13 11 4 18 0 21 -12 4 -15 5 -14 6 4
0 12 10 27 21 33 18 10 20 8 20 -23 0 -28 -5 -36 -36 -51 -20 -9 -34 -19 -31
-22 3 -3 19 2 36 11 35 18 42 4 14 -27 -16 -18 -16 -18 0 -12 12 4 17 1 17
-12 1 -17 2 -17 13 -3 7 9 19 14 27 12 11 -3 10 -1 -2 10 -10 8 -18 22 -18 32
0 16 2 16 25 1 13 -9 30 -16 37 -16 7 0 -4 10 -24 22 -32 18 -38 27 -38 55 0
25 4 31 15 27 8 -4 15 -18 15 -33 1 -22 2 -24 13 -10 7 9 19 14 27 11 12 -4
11 -1 -2 15 -10 11 -18 27 -18 36 0 14 4 15 25 5 21 -9 25 -18 25 -55 0 -23 5
-43 10 -43 6 0 10 16 10 36 0 31 2 35 15 24 8 -7 15 -20 16 -29 0 -10 2 -11 6
-3 2 6 10 12 17 12 6 0 12 9 12 20 0 15 -5 18 -18 14 -35 -11 -40 8 -8 28 18
10 30 21 27 24 -2 3 -21 -5 -40 -16 -34 -20 -37 -20 -61 -5 -33 22 -23 39 16
31 26 -5 29 -4 18 9 -9 10 -9 15 -1 15 6 0 11 5 11 10 0 7 -6 7 -19 1 -13 -7
-24 -6 -37 4 -18 13 -17 14 10 26 25 12 33 11 67 -8 22 -12 39 -17 39 -12 0 5
-11 15 -25 21 -14 6 -24 16 -22 22 5 12 11 12 39 1 12 -5 18 0 21 17 3 20 5
19 12 -10 10 -44 24 -23 26 38 l1 45 11 -32 c14 -37 27 -52 27 -32 1 10 5 8
16 -6 16 -20 16 -19 9 4 -5 15 -3 21 3 17 6 -3 4 14 -4 42 l-14 47 25 -30 c14
-16 25 -33 25 -37 0 -5 5 -8 10 -8 6 0 1 18 -10 40 -11 22 -16 40 -10 40 6 0
16 -11 22 -25 6 -14 17 -25 24 -25 8 0 16 -10 19 -22 3 -13 4 -356 3 -763 l-3
-740 50 0 50 0 -3 372 c-2 349 -1 372 15 376 17 4 17 5 1 6 -12 1 -18 9 -18
25 0 23 2 24 63 19 34 -3 64 -7 65 -9 2 -1 -18 -9 -45 -18 -40 -13 -42 -14
-13 -11 l35 5 -30 -15 c-35 -16 -11 -20 32 -5 l28 10 -25 -22 c-14 -13 -39
-33 -55 -46 -20 -14 -23 -20 -10 -16 11 4 29 14 40 23 49 40 54 43 51 27 -1
-9 -13 -28 -26 -43 -17 -19 -12 -16 13 6 47 44 48 32 2 -22 -37 -42 -47 -69
-18 -46 15 12 16 12 10 -3 -9 -25 0 -22 14 3 9 17 8 20 -2 14 -8 -5 -10 -4 -5
4 4 6 11 9 16 6 5 -3 16 2 24 11 9 9 16 11 16 4 0 -6 4 -9 9 -6 10 7 21 -16
22 -47 0 -18 3 -15 12 10 7 17 16 35 21 40 5 5 6 0 3 -10 -4 -10 -9 -37 -12
-60 l-5 -42 14 38 c17 42 46 87 46 70 0 -6 -7 -28 -15 -49 -14 -35 -14 -37 0
-20 14 18 15 10 15 -93 0 -79 -3 -110 -11 -105 -8 5 -8 1 0 -14 14 -27 14 -35
-1 -26 -10 6 -10 4 0 -8 10 -13 10 -17 0 -21 -7 -2 -30 14 -52 37 l-38 41 34
-45 c52 -68 55 -79 10 -36 -23 22 -44 37 -47 34 -3 -3 1 -11 10 -18 30 -25 14
-30 -18 -6 -47 36 -59 33 -17 -4 19 -16 30 -29 23 -30 -6 0 -25 12 -42 26 -34
28 -41 23 -13 -10 l17 -20 -30 18 -30 19 24 -27 c14 -14 19 -26 13 -26 -6 0
-13 4 -16 9 -3 5 -14 11 -25 14 -19 5 -22 -7 -7 -31 6 -10 1 -11 -21 -6 l-28
7 25 -22 c14 -13 19 -19 11 -15 -9 5 -12 3 -7 -4 4 -7 13 -12 20 -12 8 0 19
-7 26 -15 10 -12 10 -15 -4 -15 -21 0 -21 -17 2 -23 14 -4 14 -5 -3 -6 -11 -1
-27 -6 -35 -12 -11 -8 -5 -9 25 -4 29 4 36 3 25 -4 -13 -10 -13 -11 0 -11 8
-1 3 -7 -12 -16 -32 -17 -34 -20 -12 -28 8 -3 12 -2 9 4 -4 6 5 5 19 -1 22
-10 24 -15 13 -27 -8 -11 -8 -14 0 -9 7 4 14 -1 18 -14 6 -18 9 -19 23 -6 33
28 47 30 22 3 -21 -24 -22 -26 -5 -20 11 4 33 19 50 33 30 27 21 9 -19 -36
-23 -27 -11 -31 16 -6 29 26 48 25 48 -4 0 -13 -5 -34 -11 -46 -10 -21 -10
-21 5 -3 15 18 16 7 16 -128 l0 -147 -62 34 c-35 19 -81 40 -103 47 -72 21
-69 20 -57 32 7 7 12 36 12 65 l0 53 -41 0 c-34 0 -40 3 -35 16 5 13 3 14 -6
7 -27 -21 -58 -21 -85 0 -16 11 -22 14 -15 7 20 -23 14 -30 -29 -30 l-42 0 5
-69 5 -69 -29 -6 c-100 -20 -251 -132 -318 -236 -107 -166 -113 -383 -17 -565
46 -86 124 -159 274 -255 83 -53 132 -91 130 -100 -1 -8 -16 -18 -33 -23 -25
-7 -41 -4 -82 17 -49 25 -52 25 -52 7 0 -10 11 -26 25 -35 33 -22 31 -37 -5
-58 -58 -33 -29 -47 48 -23 19 6 22 4 22 -19 0 -31 16 -66 30 -66 6 0 10 27
10 59 0 51 3 62 22 75 12 9 30 16 40 16 16 0 18 -11 18 -98 0 -97 8 -122 37
-122 10 0 13 31 13 133 l0 133 73 42 c40 23 76 42 80 42 12 0 7 -106 -5 -122
-7 -8 -30 -25 -51 -38 -34 -20 -37 -24 -24 -37 13 -13 18 -13 45 1 41 21 40
22 44 -21 2 -27 8 -39 21 -41 14 -3 17 5 17 52 0 53 2 57 38 80 20 14 46 26
57 28 18 3 19 -2 16 -82 -1 -48 -8 -90 -14 -97 -7 -6 -55 -36 -107 -66 -52
-30 -96 -59 -97 -64 -10 -28 35 -19 111 22 45 25 88 45 94 45 7 0 12 -15 12
-35 0 -30 -6 -40 -42 -66 -62 -44 -53 -66 18 -44 18 6 22 2 27 -32 4 -21 7
-94 7 -161 0 -109 -2 -127 -20 -149 -26 -33 -26 -83 1 -117 l20 -26 -56 0 -57
0 3 -97 3 -97 -47 -12 c-60 -15 -164 -64 -224 -105 -151 -104 -259 -258 -309
-440 -25 -88 -25 -289 0 -379 70 -259 266 -460 526 -542 65 -20 95 -23 220
-23 132 1 152 3 225 29 256 88 439 282 507 535 28 106 28 277 0 382 -70 260
-266 462 -519 539 -40 12 -73 26 -73 31 0 5 5 9 10 9 6 0 10 35 10 85 l0 85
-55 0 c-56 0 -67 8 -40 30 22 18 19 82 -5 113 -18 23 -20 40 -20 176 0 144 1
151 20 151 26 0 26 27 0 35 -17 5 -20 15 -20 57 l0 50 64 -36 c35 -20 71 -36
80 -36 37 0 11 31 -64 75 l-80 47 0 94 c0 52 4 94 8 94 23 0 42 -39 42 -88 0
-45 3 -52 19 -52 15 0 21 10 26 40 l7 40 30 -16 c32 -17 58 -13 58 8 0 7 -20
25 -45 40 -45 27 -45 28 -45 83 0 42 4 55 15 55 15 0 110 -54 131 -75 7 -7 12
-60 12 -139 1 -71 4 -131 7 -134 12 -13 28 20 33 67 2 28 9 51 14 51 5 0 6 -4
3 -10 -3 -5 11 -2 31 6 42 18 37 1 -8 -22 -37 -19 -32 -27 10 -15 36 11 44 -2
12 -19 -11 -6 -18 -15 -15 -20 3 -5 -3 -14 -12 -20 -16 -10 -15 -10 4 -5 19 5
22 3 16 -12 -7 -17 -6 -17 21 0 36 24 45 15 15 -16 -13 -13 -25 -31 -25 -40
-2 -14 3 -13 30 5 22 16 27 17 17 5 -8 -10 -12 -20 -9 -22 8 -8 49 26 42 36
-3 5 -2 9 3 8 4 -1 10 0 13 1 38 14 40 8 15 -37 -14 -25 -23 -48 -20 -51 3 -3
5 -1 5 4 0 5 9 20 20 34 12 15 18 18 14 8 -10 -29 5 -21 27 15 l21 32 -6 -60
c-5 -59 -5 -60 9 -27 18 39 34 41 37 5 1 -19 3 -13 8 17 l7 45 1 -43 c2 -31
-5 -54 -20 -75 l-22 -32 27 24 c39 36 42 21 6 -30 -28 -39 -29 -41 -6 -20 14
12 30 20 36 17 5 -4 13 -1 17 5 5 8 9 8 14 -1 4 -7 13 -9 19 -6 6 4 9 11 6 16
-6 10 63 66 71 58 2 -3 -7 -13 -21 -22 -14 -9 -23 -21 -20 -26 3 -4 -7 -18
-22 -29 -18 -15 -29 -18 -33 -10 -6 8 -9 8 -14 0 -4 -6 -2 -11 4 -11 6 0 -2
-12 -17 -26 -15 -14 2 -5 40 20 37 25 67 42 67 38 0 -3 -26 -33 -57 -66 -43
-43 -49 -52 -22 -32 40 29 58 34 39 11 -10 -12 -10 -15 1 -15 7 0 -13 -28 -46
-62 -34 -35 -42 -47 -20 -28 22 20 55 49 74 65 19 17 30 23 26 15 -14 -25 -69
-93 -90 -113 -20 -18 -19 -18 12 -2 45 21 48 19 16 -11 l-28 -26 40 22 40 22
-50 -48 c-42 -40 -44 -43 -12 -20 46 33 55 30 25 -10 -11 -16 5 -4 36 26 32
30 54 46 48 35 -5 -11 -16 -33 -23 -49 -10 -20 -31 -37 -66 -53 -60 -28 -72
-41 -17 -18 45 19 50 19 34 0 -7 -8 -43 -32 -81 -52 -80 -43 -86 -57 -7 -17
l53 26 -25 -28 c-17 -20 -19 -23 -4 -11 23 19 39 23 28 5 -4 -7 -3 -8 5 -4 6
4 9 11 6 16 -5 8 66 70 80 70 4 0 -4 -10 -19 -21 -15 -12 -25 -24 -22 -27 4
-3 -1 -13 -10 -23 -8 -9 -17 -24 -18 -33 -1 -9 -22 -37 -47 -63 -56 -60 -23
-37 61 41 36 34 50 45 32 26 -34 -39 -43 -61 -14 -39 15 13 16 12 3 -3 -7 -10
-18 -15 -24 -11 -5 3 -7 1 -3 -5 3 -5 -6 -25 -21 -44 -20 -25 -22 -28 -5 -14
29 25 28 15 -3 -37 l-26 -42 43 47 c45 49 108 91 78 52 -8 -10 -37 -46 -65
-79 -27 -33 -41 -53 -31 -45 18 14 19 13 13 -5 -5 -13 4 -7 25 16 32 35 88 76
88 64 0 -3 -7 -19 -15 -34 -8 -16 -12 -31 -8 -34 7 -7 -16 -67 -26 -67 -3 0
-26 -19 -51 -41 -39 -35 -40 -38 -10 -18 19 12 53 36 75 53 42 33 41 29 -12
-49 l-35 -50 41 45 c23 25 41 40 41 35 0 -6 -5 -16 -12 -23 -6 -6 -9 -14 -6
-18 4 -3 25 18 47 46 l41 52 0 1768 c0 1405 -3 1769 -12 1773 -10 4 -9 8 2 16
10 7 11 11 3 11 -15 0 -17 46 -3 55 14 8 14 702 0 710 -6 3 -19 23 -30 43 -13
22 -18 28 -14 13 4 -16 3 -21 -5 -17 -6 4 -11 22 -12 39 0 18 -4 41 -9 52 -7
16 -9 12 -10 -20 l-2 -40 -13 40 -13 40 4 -50 4 -50 -15 48 c-18 53 -30 63
-20 16 5 -22 4 -29 -4 -25 -6 4 -11 16 -11 27 0 10 -9 24 -20 31 -11 7 -20 24
-21 38 0 21 -2 22 -8 7 -6 -16 -9 -16 -18 -5 -14 18 -23 108 -11 108 6 0 26
-17 44 -37 l34 -37 60 59 c33 33 60 57 60 53 0 -22 -34 -79 -52 -89 -14 -8
-18 -14 -10 -17 6 -2 9 -9 6 -15 -4 -7 6 0 23 16 45 42 52 32 8 -13 -50 -51
-41 -61 13 -14 42 36 55 35 27 -2 -20 -26 -19 -39 3 -23 15 13 16 12 4 -3 -8
-9 -20 -14 -28 -11 -20 7 -10 -34 25 -112 l19 -40 -1 42 c-1 23 -4 38 -8 32
-3 -6 -11 3 -17 19 -9 25 -8 33 6 44 11 9 14 10 8 1 -4 -7 -3 -21 3 -30 7 -13
10 10 10 80 0 74 -3 96 -12 91 -9 -5 -9 -3 1 7 6 7 12 24 12 37 0 22 -2 23
-17 11 -17 -13 -17 -13 0 7 13 15 17 39 17 92 0 69 -1 71 -18 55 -9 -10 -39
-36 -65 -57 -36 -29 -51 -36 -59 -28 -9 9 -5 19 17 42 29 30 58 43 35 15 -7
-8 -9 -15 -4 -15 13 1 35 20 67 58 l27 34 0 424 c0 390 -1 424 -17 424 -9 0
-26 -8 -37 -17 -20 -17 -20 -17 -7 0 13 17 -49 17 -1398 17 -892 -1 -1411 -4
-1411 -10 0 -6 -12 -10 -27 -11 l-28 -1 26 -11 c31 -14 27 -37 -7 -37 -14 0
-22 -4 -19 -10 3 -5 34 -11 68 -11 l62 -2 -52 -10 c-55 -10 -87 -6 -117 18
-18 13 -18 15 4 49 l22 36 -627 0 -626 0 -37 -26 -37 -26 30 26 30 26 -556 -1
c-306 0 -562 -5 -570 -10z m1481 -3 c0 -3 -4 -8 -10 -11 -5 -3 -10 -1 -10 4 0
6 5 11 10 11 6 0 10 -2 10 -4z m1136 -5 c-8 -12 -55 -20 -61 -10 -5 8 16 16
48 18 10 0 16 -3 13 -8z m2564 0 c0 -14 -29 -21 -36 -9 -4 7 -3 8 4 4 7 -4 12
-2 12 3 0 6 5 11 10 11 6 0 10 -4 10 -9z m135 -11 c-3 -5 -11 -10 -16 -10 -6
0 -7 5 -4 10 3 6 11 10 16 10 6 0 7 -4 4 -10z m-4430 -46 c-54 -48 -106 -83
-73 -49 20 21 111 93 118 94 3 0 -17 -20 -45 -45z m4335 42 c0 -2 -8 -10 -17
-17 -16 -13 -17 -12 -4 4 13 16 21 21 21 13z m-4060 -10 c0 -2 -8 -10 -17 -17
-16 -13 -17 -12 -4 4 13 16 21 21 21 13z m4094 -11 c-8 -19 -44 -40 -44 -26 0
8 38 41 47 41 1 0 0 -7 -3 -15z m-3974 -15 c0 -5 -4 -10 -9 -10 -6 0 -13 5
-16 10 -3 6 1 10 9 10 9 0 16 -4 16 -10z m-280 -19 c-5 -11 -15 -23 -20 -26
-6 -3 -10 -11 -10 -17 0 -6 6 -6 15 2 27 22 26 4 -1 -21 -21 -19 -24 -20 -18
-5 6 16 4 18 -13 14 -14 -4 -19 0 -18 13 1 10 5 22 10 26 4 5 5 3 1 -4 -15
-27 14 -21 34 7 24 34 36 40 20 11z m111 6 c-6 -8 -7 -18 -3 -22 4 -5 1 -5 -6
-1 -10 6 -10 11 -1 22 6 8 14 14 16 14 3 0 0 -6 -6 -13z m4054 -7 c-10 -11
-20 -18 -23 -16 -5 6 21 35 32 36 5 0 1 -9 -9 -20z m-3905 -5 c0 -12 -19 -12
-23 0 -4 9 -1 12 9 8 7 -3 14 -7 14 -8z m4010 10 c0 -2 -10 -9 -22 -15 -22
-11 -22 -10 -4 4 21 17 26 19 26 11z m-4080 -24 c0 -12 -20 -25 -27 -18 -7 7
6 27 18 27 5 0 9 -4 9 -9z m160 -1 c0 -5 -4 -10 -9 -10 -6 0 -13 5 -16 10 -3
6 1 10 9 10 9 0 16 -4 16 -10z m1043 -29 c6 -6 -8 -5 -32 1 -22 6 -41 14 -41
19 0 9 60 -7 73 -20z m-1533 16 c0 -2 -10 -12 -22 -23 l-23 -19 19 23 c18 21
26 27 26 19z m312 -37 c10 0 18 -4 18 -10 0 -12 -58 -2 -87 16 -29 18 -32 18
-30 -6 1 -12 11 -23 24 -26 13 -4 23 -10 23 -16 0 -12 -42 1 -52 15 -4 6 -4
15 -2 19 3 4 0 8 -7 8 -8 0 -6 7 6 19 17 20 17 20 53 0 20 -10 45 -19 54 -19z
m43 19 c-10 -15 -25 -10 -19 6 4 8 10 12 15 9 5 -3 7 -10 4 -15z m90 11 c3 -6
-1 -7 -9 -4 -18 7 -21 14 -7 14 6 0 13 -4 16 -10z m1195 -1 c11 -7 4 -8 -25
-3 -50 8 -58 14 -19 14 16 0 36 -5 44 -11z m-362 -24 c-6 -14 -13 -23 -15 -21
-5 5 15 46 22 46 3 0 -1 -11 -7 -25z m-1728 -10 c-7 -8 -17 -15 -23 -15 -6 0
-2 7 9 15 25 19 30 19 14 0z m240 12 c0 -2 -10 -12 -22 -23 l-23 -19 19 23
c18 21 26 27 26 19z m232 -32 c-3 -5 -7 -4 -10 3 -2 7 -8 10 -13 7 -5 -4 -6 1
-3 9 5 12 9 13 19 3 7 -7 10 -16 7 -22z m101 1 c-15 -19 -32 -35 -37 -35 -6
-1 5 15 24 34 43 45 50 45 13 1z m1287 25 c0 -6 -4 -13 -10 -16 -5 -3 -10 1
-10 9 0 9 5 16 10 16 6 0 10 -4 10 -9z m50 -12 c0 -5 -9 -9 -20 -9 -19 0 -26
11 -14 23 8 8 34 -3 34 -14z m-1840 8 c0 -2 -10 -12 -21 -23 -22 -19 -22 -19
-10 4 10 18 31 31 31 19z m263 -14 c-5 -12 -3 -14 8 -8 8 5 11 4 6 0 -10 -11
-37 -15 -37 -6 0 7 21 31 27 31 1 0 -1 -7 -4 -17z m1624 11 c-3 -3 -12 -4 -19
-1 -8 3 -5 6 6 6 11 1 17 -2 13 -5z m-281 -83 c-28 -54 -35 -92 -10 -51 l15
25 -6 -30 c-6 -29 -6 -29 9 -10 15 19 15 19 10 -5 l-5 -25 15 25 15 25 2 -30
c1 -17 3 -23 6 -12 3 13 15 17 47 17 23 0 46 -3 50 -7 10 -10 -84 -43 -124
-43 -23 0 -31 -3 -21 -9 7 -5 43 -7 80 -5 54 4 62 2 41 -7 -14 -6 -50 -9 -82
-6 -32 3 -58 2 -58 -2 0 -4 19 -8 42 -9 71 -3 55 -12 -23 -13 -63 0 -70 -2
-49 -11 l25 -11 -23 -4 c-15 -3 -34 6 -56 25 -19 16 -40 32 -47 34 -11 4 -10
10 0 36 20 48 35 52 27 8 -10 -51 8 -45 30 12 l19 47 5 -59 c3 -33 10 -61 16
-63 6 -2 9 8 6 26 -2 16 1 31 6 35 6 4 8 22 5 40 -4 25 2 45 23 82 36 61 43
42 10 -25z m117 49 c-3 -11 -12 -20 -21 -20 -13 0 -12 3 3 20 10 11 19 20 21
20 1 0 0 -9 -3 -20z m-1198 -17 c-9 -36 -9 -36 -35 -28 l-22 7 23 24 c30 32
43 30 34 -3z m1041 15 c-12 -40 -17 -50 -22 -46 -5 6 13 58 20 58 3 0 4 -6 2
-12z m-1746 -13 c0 -2 -10 -10 -22 -16 -21 -11 -22 -11 -9 4 13 16 31 23 31
12z m795 -11 c19 -15 19 -15 -9 -12 -16 2 -31 9 -34 16 -5 17 19 15 43 -4z
m1208 9 c-13 -2 -33 -2 -45 0 -13 2 -3 4 22 4 25 0 35 -2 23 -4z m-1843 -37
c0 -2 -8 -10 -17 -17 -16 -13 -17 -12 -4 4 13 16 21 21 21 13z m1730 -26 c0
-5 -9 -10 -20 -10 -11 0 -20 5 -20 10 0 6 9 10 20 10 11 0 20 -4 20 -10z m85
0 c-3 -5 -22 -10 -41 -10 -19 0 -34 5 -34 10 0 6 18 10 41 10 24 0 38 -4 34
-10z m-338 -42 c-3 -8 -6 -5 -6 6 -1 11 2 17 5 13 3 -3 4 -12 1 -19z m353 12
c0 -5 -8 -10 -17 -10 -15 0 -16 2 -3 10 19 12 20 12 20 0z m-383 -52 c-3 -8
-6 -5 -6 6 -1 11 2 17 5 13 3 -3 4 -12 1 -19z m1603 -7 c0 -6 -4 -13 -10 -16
-5 -3 -10 1 -10 9 0 9 5 16 10 16 6 0 10 -4 10 -9z m-1660 -97 c-14 -99 -11
-144 5 -69 10 45 13 52 15 30 2 -30 2 -30 10 -5 4 14 8 40 9 58 1 34 21 37 21
3 0 -14 14 -20 62 -29 34 -6 64 -15 67 -20 3 -5 13 -12 21 -15 8 -3 -5 -6 -30
-7 -37 -1 -41 -3 -22 -10 29 -12 28 -24 -2 -16 -13 3 -39 -1 -57 -9 l-34 -16
59 6 c41 5 56 3 52 -4 -4 -6 -17 -11 -30 -11 -13 0 -70 -27 -127 -60 -57 -33
-107 -60 -110 -60 -18 0 -150 83 -147 92 2 6 22 20 43 33 l40 22 57 -23 c31
-12 59 -19 62 -16 13 13 4 33 -19 44 -28 13 -33 36 -10 44 9 4 27 31 42 60 14
30 28 52 30 51 2 -2 -1 -35 -7 -73z m-334 40 c-4 -9 -9 -15 -11 -12 -3 3 -3
13 1 22 4 9 9 15 11 12 3 -3 3 -13 -1 -22z m1632 -2 c2 -13 -2 -30 -8 -38 -7
-7 -8 -14 -3 -14 6 0 11 -34 12 -75 1 -47 -2 -75 -8 -75 -6 0 -11 -9 -11 -19
0 -23 -16 -36 -25 -21 -8 13 -35 13 -35 0 0 -5 13 -16 29 -25 19 -9 29 -22 28
-35 -2 -25 -7 -25 -65 4 -26 13 -53 21 -59 19 -7 -3 -13 0 -13 5 0 6 -3 19 -7
29 -7 17 -6 17 20 0 44 -29 53 -19 16 20 -35 37 -23 37 20 -1 13 -12 21 -16
17 -9 -3 6 -1 15 5 18 7 5 1 18 -18 37 l-28 31 30 -19 30 -19 -22 37 -22 38
37 -16 c55 -24 70 -27 42 -10 -14 8 -20 16 -15 16 6 1 -8 10 -30 20 -22 10
-34 19 -27 19 6 1 12 8 12 17 0 9 5 12 12 8 8 -5 9 -2 5 10 -5 13 -1 19 13 23
15 4 18 9 10 18 -8 10 -6 16 7 24 27 16 48 9 51 -17z m-1438 -42 c-18 -33 -24
-16 -9 27 11 31 14 34 17 16 2 -12 -2 -32 -8 -43z m2798 35 c-3 -3 -9 2 -12
12 -6 14 -5 15 5 6 7 -7 10 -15 7 -18z m-2851 -22 c-3 -3 -11 -2 -17 2 -8 5
-7 11 2 22 12 15 13 14 16 -1 2 -10 1 -20 -1 -23z m1803 27 c0 -5 -4 -10 -10
-10 -5 0 -10 5 -10 10 0 6 5 10 10 10 6 0 10 -4 10 -10z m-1490 -30 c0 -4 -11
-5 -25 -2 -14 2 -25 10 -25 18 0 11 5 11 25 2 14 -6 25 -14 25 -18z m1533 23
c-7 -2 -19 -2 -25 0 -7 3 -2 5 12 5 14 0 19 -2 13 -5z m-2059 -42 c-4 -17 -9
-30 -11 -27 -3 2 -2 19 2 36 9 41 17 33 9 -9z m42 -7 c-4 -20 -10 -34 -12 -31
-3 3 -2 21 2 41 3 21 9 35 11 32 3 -3 2 -21 -1 -42z m739 36 c-3 -5 -18 -10
-33 -9 l-27 1 25 8 c35 11 42 11 35 0z m-1100 -21 c-4 -5 -16 -9 -28 -9 -20 0
-20 0 -2 14 21 15 40 12 30 -5z m1010 11 c18 -8 17 -9 -7 -9 -15 -1 -30 4 -33
9 -7 12 12 12 40 0z m2375 -51 c0 -20 -7 -42 -15 -49 -13 -11 -15 -8 -15 18 0
16 3 44 6 62 9 40 24 20 24 -31z m-2980 -11 c-15 -52 -16 -59 -3 -40 8 12 19
22 23 22 12 0 0 -38 -16 -51 -10 -8 -14 -34 -14 -80 l0 -69 -60 30 c-33 16
-65 30 -72 30 -7 0 -33 -14 -58 -30 -64 -43 -70 -40 -70 31 0 61 14 104 30 94
5 -3 16 8 25 24 20 39 38 51 25 17 -5 -15 -17 -40 -26 -57 l-16 -31 25 18 c14
11 28 33 32 51 8 43 22 51 18 10 l-4 -32 19 34 19 34 7 -28 c4 -15 5 -48 2
-74 -4 -39 -2 -36 14 24 l18 70 2 -65 c2 -66 4 -65 15 3 3 20 10 37 15 37 4 0
6 -10 4 -22 -4 -21 26 36 47 90 17 44 17 21 -1 -40z m535 52 l20 -9 -20 1
c-11 0 -31 4 -45 8 l-25 8 25 0 c14 0 34 -3 45 -8z m1225 0 c13 -8 13 -10 -2
-10 -9 0 -20 5 -23 10 -8 13 5 13 25 0z m-1734 -42 c-19 -26 -20 -20 -5 19 6
15 13 22 16 16 2 -7 -3 -23 -11 -35z m1720 5 c-3 -8 -6 -17 -6 -19 0 -2 -7 -4
-15 -4 -9 0 -15 9 -15 24 0 19 4 23 21 19 12 -4 18 -11 15 -20z m1101 5 c-3
-8 -6 -5 -6 6 -1 11 2 17 5 13 3 -3 4 -12 1 -19z m-2763 6 c26 -10 18 -38 -15
-58 -39 -23 -44 -17 -25 28 16 39 16 39 40 30z m479 -1 c-7 -2 -21 -2 -30 0
-10 3 -4 5 12 5 17 0 24 -2 18 -5z m50 -10 c-7 -2 -19 -2 -25 0 -7 3 -2 5 12
5 14 0 19 -2 13 -5z m1354 1 c-3 -3 -12 -4 -19 -1 -8 3 -5 6 6 6 11 1 17 -2
13 -5z m-2214 -46 c-10 -18 -19 -35 -20 -37 -2 -2 -6 -1 -9 2 -4 4 4 22 17 41
29 43 37 39 12 -6z m3327 28 c0 -23 -16 -27 -17 -5 -1 10 2 19 8 19 5 0 9 -6
9 -14z m-3417 -11 c-3 -9 -8 -14 -10 -11 -3 3 -2 9 2 15 9 16 15 13 8 -4z m50
-5 c-5 -19 -23 -39 -23 -25 0 9 20 45 24 45 2 0 2 -9 -1 -20z m2067 10 c12 -8
11 -10 -7 -10 -13 0 -23 5 -23 10 0 13 11 13 30 0z m-40 -20 c13 -8 13 -10 -2
-10 -9 0 -20 5 -23 10 -8 13 5 13 25 0z m1046 -74 c1 -6 2 -15 3 -21 1 -5 5
-4 9 3 6 8 15 3 32 -20 l23 -33 -26 24 c-18 17 -27 20 -27 11 0 -22 -40 22
-45 49 -2 13 -11 31 -20 41 -8 9 -15 20 -15 25 0 11 65 -65 66 -79z m19 42
l16 -33 -21 24 c-11 13 -20 27 -20 32 0 18 10 8 25 -23z m45 -17 c-1 -10 -6
-7 -15 9 -19 33 -18 50 0 26 8 -11 15 -27 15 -35z m-1800 29 c0 -5 -2 -10 -4
-10 -3 0 -8 5 -11 10 -3 6 -1 10 4 10 6 0 11 -4 11 -10z m33 -5 c4 -8 2 -17
-3 -20 -6 -4 -10 3 -10 14 0 25 6 27 13 6z m672 -15 c4 -6 -5 -10 -19 -10 -14
0 -26 5 -26 10 0 6 9 10 19 10 11 0 23 -4 26 -10z m-1255 -20 c-20 -13 -43
-13 -35 0 3 6 16 10 28 10 18 0 19 -2 7 -10z m590 -25 c0 -14 -4 -25 -10 -25
-5 0 -10 11 -10 25 0 14 5 25 10 25 6 0 10 -11 10 -25z m1670 -15 c16 -22 18
-30 7 -30 -7 0 -19 11 -25 25 -21 46 -13 48 18 5z m-1017 13 c-7 -2 -19 -2
-25 0 -7 3 -2 5 12 5 14 0 19 -2 13 -5z m-1290 -20 c-7 -2 -19 -2 -25 0 -7 3
-2 5 12 5 14 0 19 -2 13 -5z m2522 -59 c0 -32 -3 -63 -6 -69 -4 -5 -9 -19 -12
-30 -2 -11 -5 22 -6 73 -1 71 2 93 12 89 8 -2 12 -25 12 -63z m-2565 36 c-12
-7 -8 -10 15 -11 l30 -1 -35 -13 c-32 -12 -33 -14 -10 -15 25 -2 25 -2 -4 -14
-19 -9 -24 -15 -15 -18 9 -4 3 -9 -15 -13 -33 -9 -81 11 -81 34 0 15 79 58
110 60 16 1 17 -1 5 -9z m730 -6 c-8 -8 -23 -20 -34 -25 -15 -7 -13 -3 7 15
31 29 47 35 27 10z m1950 -9 c-17 -18 -27 -22 -34 -14 -12 12 17 39 43 39 10
0 8 -7 -9 -25z m-253 -21 c-4 10 -3 15 4 11 6 -4 9 -43 8 -96 -2 -87 -2 -89
-20 -73 -19 18 -69 97 -69 110 0 4 14 -5 32 -22 l31 -29 -29 39 c-20 28 -24
38 -12 34 10 -4 19 -1 22 8 4 10 2 13 -7 8 -6 -4 -9 -4 -5 1 4 4 0 14 -10 22
-9 8 1 4 22 -8 34 -20 39 -20 33 -5z m292 9 c-44 -59 -69 -77 -69 -50 1 6 17
24 38 39 45 32 48 33 31 11z m561 7 c0 -5 -5 -10 -11 -10 -5 0 -7 5 -4 10 3 6
8 10 11 10 2 0 4 -4 4 -10z m-2230 -35 c0 -7 5 -17 12 -21 6 -4 8 -3 5 3 -12
20 20 22 51 3 61 -37 72 -52 72 -97 0 -44 -7 -50 -41 -33 -13 8 -19 21 -19 45
0 38 -19 48 -27 15 -4 -15 -9 -17 -23 -10 -25 13 -30 13 -30 -5 0 -8 9 -19 20
-25 25 -13 45 -59 32 -72 -6 -6 -26 -1 -51 11 -31 16 -40 26 -38 44 1 12 7 25
12 29 6 5 5 8 -2 8 -7 0 -13 5 -13 10 0 6 9 10 21 10 12 0 17 4 13 11 -4 8 1
9 17 4 23 -7 24 -7 4 9 -11 8 -16 16 -11 16 5 0 -1 11 -14 25 -13 14 -20 25
-16 25 5 0 2 7 -5 17 -13 15 -12 15 9 4 12 -6 22 -18 22 -26z m1220 14 c0 -6
-4 -7 -10 -4 -5 3 -10 11 -10 16 0 6 5 7 10 4 6 -3 10 -11 10 -16z m480 -14
c-7 -9 -15 -13 -18 -10 -3 3 -15 -3 -26 -12 -21 -18 -21 -18 -2 4 10 13 22 20
27 18 4 -3 10 -1 14 5 3 5 9 10 12 10 3 0 0 -7 -7 -15z m510 5 c0 -5 -2 -10
-4 -10 -3 0 -8 5 -11 10 -3 6 -1 10 4 10 6 0 11 -4 11 -10z m-25 -10 c3 -5 1
-10 -4 -10 -6 0 -11 5 -11 10 0 6 2 10 4 10 3 0 8 -4 11 -10z m95 -9 c-5 -11
-14 -22 -19 -25 -5 -4 -7 -14 -4 -24 5 -21 -32 -72 -52 -72 -8 0 -27 11 -42
25 l-28 25 28 -10 c38 -13 44 -13 23 3 -16 11 -15 14 11 39 23 21 78 56 91 58
1 0 -2 -9 -8 -19z m-156 -22 c-3 -5 0 -8 7 -7 6 2 14 -3 16 -9 8 -22 -25 -14
-41 9 -18 25 -11 44 10 27 7 -6 11 -15 8 -20z m-44 1 c0 -5 -2 -10 -4 -10 -3
0 -8 5 -11 10 -3 6 -1 10 4 10 6 0 11 -4 11 -10z m216 -18 c-18 -16 -18 -16
-6 6 6 13 14 21 18 18 3 -4 -2 -14 -12 -24z m-3276 12 c0 -10 -33 -33 -47 -34
-21 0 -15 16 10 28 26 13 37 14 37 6z m710 2 c0 -2 -8 -10 -17 -17 -16 -13
-17 -12 -4 4 13 16 21 21 21 13z m1604 -71 l56 -74 0 -95 c0 -88 -12 -129 -26
-92 -3 9 -11 16 -18 16 -15 1 -130 109 -123 116 3 3 18 -2 34 -12 17 -11 10
-1 -19 27 -33 31 -48 53 -48 71 0 15 -3 35 -6 45 -3 10 7 -4 23 -30 36 -59 62
-85 39 -39 -10 19 -12 32 -6 32 7 0 7 7 -1 23 -8 15 2 9 31 -18 l43 -40 -29
40 c-29 41 -23 39 36 -10 l25 -20 -25 30 c-14 16 -35 38 -47 48 -13 10 -23 24
-23 30 0 7 10 1 21 -13 17 -21 19 -22 10 -3 -11 22 -14 43 -7 43 2 0 29 -34
60 -75z m787 28 c13 -16 12 -17 -3 -4 -17 13 -22 21 -14 21 2 0 10 -8 17 -17z
m-3013 -28 c-6 -14 -13 -23 -15 -21 -5 5 15 46 22 46 3 0 -1 -11 -7 -25z
m2052 -14 c0 -9 5 -22 12 -29 6 -6 9 -14 6 -18 -7 -6 -38 48 -38 66 0 6 5 8
10 5 6 -3 10 -14 10 -24z m980 -1 c19 -17 29 -30 22 -30 -8 0 -10 -5 -6 -12 6
-9 3 -9 -9 0 -9 8 -15 17 -14 22 1 4 -9 17 -23 28 -14 12 -20 21 -15 21 6 0
26 -13 45 -29z m-620 10 c-8 -5 -19 -10 -25 -10 -5 0 -3 5 5 10 8 5 20 10 25
10 6 0 3 -5 -5 -10z m742 -22 c-12 -12 -25 -18 -29 -14 -4 4 3 16 17 26 32 24
40 16 12 -12z m-1967 -9 c-7 -37 -45 -68 -45 -37 0 10 38 58 46 58 2 0 1 -9
-1 -21z m-135 -140 l0 -85 -35 -17 c-20 -9 -38 -17 -40 -17 -3 0 -5 16 -5 35
0 30 -5 39 -35 56 -19 12 -35 24 -35 28 0 3 16 15 35 25 32 17 35 23 35 63 l0
44 40 -23 40 -23 0 -86z m2063 125 c3 -4 1 -12 -6 -20 -7 -7 -18 -21 -26 -30
-14 -16 -15 -16 -22 2 -8 24 7 45 28 37 11 -4 14 -2 9 5 -7 12 6 17 17 6z
m-701 -51 c3 -34 0 -54 -11 -67 -15 -18 -15 -18 9 -6 22 12 24 11 13 -2 -7 -8
-9 -18 -5 -22 4 -4 -1 -14 -12 -21 -18 -14 -18 -15 3 -56 26 -50 22 -62 -8
-21 -25 36 -27 59 -4 84 14 16 14 18 2 13 -13 -5 -16 5 -18 60 -1 36 1 70 4
75 13 22 23 8 27 -37z m-1011 14 c-10 -9 -11 -8 -5 6 3 10 9 15 12 12 3 -3 0
-11 -7 -18z m1674 -67 c-10 -17 -45 -17 -57 -1 -12 14 -11 15 5 2 21 -16 23 1
2 19 -8 7 -12 17 -9 22 3 5 -2 19 -12 31 -10 12 3 2 28 -22 26 -24 45 -48 43
-51z m-2195 60 c47 -24 50 -36 14 -52 -19 -9 -33 -9 -55 -1 -23 9 -29 8 -29
-2 0 -7 8 -16 18 -20 16 -6 16 -7 0 -16 -10 -6 -18 -17 -18 -25 0 -13 4 -13
29 2 25 15 34 16 56 6 33 -15 29 -29 -17 -56 -35 -20 -38 -20 -72 -3 -35 16
-36 18 -36 72 0 69 13 95 46 95 14 0 22 4 19 10 -9 15 1 12 45 -10z m577 -2
c-3 -8 -6 -5 -6 6 -1 11 2 17 5 13 3 -3 4 -12 1 -19z m643 -19 c0 -6 -4 -7
-10 -4 -5 3 -10 11 -10 16 0 6 5 7 10 4 6 -3 10 -11 10 -16z m1066 -25 c-25
-23 -42 -32 -48 -26 -7 7 4 19 28 36 55 37 66 32 20 -10z m-1942 2 c-3 -9 -10
-13 -16 -10 -5 3 -4 12 3 20 15 18 22 13 13 -10z m79 -3 c-2 -16 -5 -34 -5
-40 -2 -18 -13 -16 -29 4 -8 9 -9 14 -2 10 7 -5 14 4 18 23 8 38 24 40 18 3z
m827 -56 c0 -5 -6 -5 -12 -1 -9 5 -8 2 1 -9 8 -10 16 -15 19 -12 3 3 12 -1 20
-8 11 -8 9 -2 -4 18 -15 24 -7 20 44 -23 34 -30 62 -57 62 -60 0 -3 -5 -1 -12
6 -26 26 -29 10 -4 -23 l27 -35 -36 21 c-19 12 -35 24 -35 28 0 4 -10 7 -21 8
l-21 2 21 -23 c11 -12 21 -26 21 -32 0 -5 14 -22 32 -37 l33 -28 -30 18 c-28
16 -29 16 -16 0 7 -9 10 -17 5 -17 -4 0 1 -7 12 -15 10 -9 -6 -4 -36 10 -30
14 -47 20 -37 13 49 -34 53 -39 24 -28 -36 13 -26 -7 10 -21 39 -15 23 -19
-35 -10 -29 4 -52 5 -52 1 0 -10 37 -20 73 -20 42 0 22 -20 -21 -22 -36 -1
-36 -1 8 -7 l45 -7 -57 -7 c-75 -11 -82 -24 -17 -33 l52 -7 -29 -13 -29 -14
35 5 35 6 -37 -21 c-21 -11 -38 -23 -38 -26 0 -2 9 0 21 6 26 14 36 6 19 -16
-9 -10 -2 -8 24 6 20 13 39 20 42 17 3 -2 -16 -17 -41 -32 -50 -29 -56 -46 -8
-22 36 18 101 31 87 17 -5 -5 -27 -16 -49 -25 -22 -8 -30 -14 -18 -11 12 2 24
-1 25 -6 3 -7 11 -7 26 1 17 9 22 9 22 -1 0 -7 -17 -20 -38 -29 l-37 -16 38 3
37 2 0 -42 c0 -23 -6 -48 -12 -55 -10 -11 -10 -13 0 -7 9 6 12 -26 12 -143 0
-83 -3 -151 -6 -151 -3 0 -15 5 -27 11 -16 7 -14 4 6 -11 39 -31 36 -54 -5
-47 l-33 6 29 -13 c18 -8 30 -22 31 -35 1 -11 -1 -21 -4 -21 -6 0 -73 38 -128
72 -18 11 -33 17 -33 14 0 -4 39 -32 86 -62 84 -55 108 -83 42 -48 -18 10 -40
18 -48 19 -8 1 -26 5 -40 9 -24 7 -24 7 3 -12 16 -11 28 -23 27 -27 -1 -4 4
-12 12 -16 23 -15 -9 -11 -40 5 -25 12 -112 29 -112 21 0 -2 29 -13 65 -25 36
-12 67 -25 69 -28 8 -13 -83 -5 -99 8 -14 12 -18 11 -25 -1 -7 -10 -4 -15 8
-18 9 -2 26 -10 37 -17 16 -12 17 -14 3 -14 -9 0 -29 5 -44 10 -44 17 -40 2 5
-18 l42 -19 -48 -6 c-26 -3 -51 -3 -55 0 -5 2 -8 164 -8 360 l0 356 21 -19
c22 -19 22 -19 10 3 -6 12 -15 24 -20 27 -5 3 -9 38 -9 78 l-1 73 35 -40 36
-40 -36 51 c-32 46 -36 59 -36 114 0 56 2 61 16 49 8 -7 24 -29 34 -49 16 -32
50 -51 50 -29 0 11 -18 20 -23 12 -2 -5 -2 -2 0 5 1 7 -11 40 -27 72 -17 33
-30 63 -30 66 0 17 45 -36 66 -78 13 -27 27 -48 30 -48 2 0 1 8 -4 18 -5 9
-12 31 -16 47 l-7 30 21 -25 c15 -18 13 -8 -10 38 -17 35 -26 61 -19 57 7 -5
10 -3 7 6 -3 8 -11 13 -17 11 -7 -1 -10 2 -6 8 3 5 1 19 -5 30 -25 47 2 14 45
-55 25 -41 51 -78 58 -82 7 -4 5 4 -4 17 -30 47 -43 75 -44 97 -1 12 -8 30
-16 40 -13 16 -12 17 4 4 21 -17 23 2 1 19 -8 8 -20 23 -25 34 -6 12 5 3 25
-19 19 -22 35 -44 36 -48z m-970 32 c0 -5 5 -7 10 -4 17 10 11 -1 -10 -20 -20
-18 -20 -17 -20 8 0 15 5 27 10 27 6 0 10 -5 10 -11z m185 1 c3 -6 -1 -7 -9
-4 -18 7 -21 14 -7 14 6 0 13 -4 16 -10z m1132 -27 c-9 -9 -20 -13 -24 -9 -4
4 1 14 11 22 25 18 35 8 13 -13z m73 17 c0 -5 -5 -10 -11 -10 -5 0 -7 5 -4 10
3 6 8 10 11 10 2 0 4 -4 4 -10z m460 -22 c0 -5 5 -8 10 -8 6 0 25 -16 42 -35
17 -20 33 -33 37 -30 3 3 -1 10 -9 16 -13 8 -10 14 14 35 16 14 35 23 42 20 7
-3 16 0 20 6 5 7 2 8 -6 3 -8 -5 -11 -4 -6 3 4 6 14 8 23 5 13 -5 10 -12 -19
-37 -19 -17 -45 -46 -57 -63 -22 -33 -41 -43 -41 -22 0 5 6 7 13 3 10 -6 -54
78 -73 96 -3 3 -12 14 -20 24 -14 18 -14 19 8 5 12 -8 22 -17 22 -21z m105 22
c4 -6 1 -18 -6 -26 -11 -13 -14 -13 -27 0 -8 8 -11 19 -8 25 9 14 33 14 41 1z
m-1891 -48 c-1 -13 3 -19 12 -15 8 3 11 9 8 14 -3 5 -3 9 0 9 16 0 14 -21 -3
-30 -14 -7 -27 -7 -45 2 -30 13 -33 23 -8 37 24 14 37 8 36 -17z m1851 17 c11
-17 -1 -21 -15 -4 -8 9 -8 15 -2 15 6 0 14 -5 17 -11z m-1765 -10 c12 -8 10
-9 -9 -4 -17 5 -22 4 -16 -5 5 -9 4 -11 -4 -6 -6 4 -9 12 -6 17 8 12 16 11 35
-2z m1135 2 c3 -6 -4 -15 -15 -21 -19 -10 -20 -10 -8 9 15 24 15 24 23 12z
m57 -43 c-12 -12 -35 -1 -26 13 3 5 10 7 15 4 5 -4 9 0 10 7 0 10 2 10 6 0 3
-8 1 -18 -5 -24z m468 7 c0 -8 -2 -15 -4 -15 -2 0 -6 7 -10 15 -3 8 -1 15 4
15 6 0 10 -7 10 -15z m-1794 -16 c19 -22 19 -22 -3 -10 -13 6 -23 16 -23 21 0
15 5 12 26 -11z m-226 -16 c0 -19 -10 -37 -32 -56 l-33 -29 31 6 c28 4 32 2
37 -20 3 -18 1 -24 -9 -20 -24 9 -15 -3 14 -18 18 -10 22 -15 10 -16 -9 0 -21
-7 -25 -14 -7 -13 -14 -12 -51 4 l-42 19 0 60 c0 60 0 60 43 85 53 32 57 32
57 -1z m1514 -25 c-6 -19 -7 -19 -16 -4 -5 9 -6 26 -2 38 6 19 7 19 16 4 5 -9
6 -26 2 -38z m480 26 c3 -8 2 -12 -4 -9 -6 3 -10 10 -10 16 0 14 7 11 14 -7z
m-2149 -14 c0 -7 -6 -15 -12 -17 -8 -3 -13 4 -13 17 0 13 5 20 13 18 6 -3 12
-11 12 -18z m1722 -22 c-3 -8 -6 -5 -6 6 -1 11 2 17 5 13 3 -3 4 -12 1 -19z
m-1487 2 c0 -5 -8 -10 -17 -11 -13 0 -11 -3 7 -11 l25 -11 -29 -6 -30 -6 29
-13 c29 -13 29 -14 10 -28 -10 -8 -28 -14 -38 -14 -17 0 -19 5 -14 38 7 40 57
95 57 62z m-200 -59 c0 -60 7 -81 25 -74 8 2 24 -3 37 -12 23 -17 23 -17 -17
-12 l-40 6 28 -15 c38 -20 34 -25 -15 -18 -32 4 -39 3 -28 -5 8 -6 24 -11 35
-11 18 -1 18 -2 -3 -11 -15 -6 -31 -5 -45 2 -19 9 -19 7 3 -12 l25 -22 -27 7
c-33 8 -37 -1 -6 -13 21 -8 21 -8 -6 -13 l-29 -6 6 115 c4 95 9 117 24 129 29
22 33 17 33 -35z m2190 -42 c0 -11 -4 -17 -10 -14 -5 3 -10 15 -10 26 0 11 5
17 10 14 6 -3 10 -15 10 -26z m56 -66 c13 -32 24 -59 24 -60 0 -2 -10 7 -22
19 -14 14 -23 18 -26 10 -2 -7 -8 -10 -13 -6 -11 6 -12 24 -1 23 28 -5 35 2
14 17 -15 10 -22 25 -22 47 0 42 16 25 46 -50z m-1182 25 c8 -33 7 -50 -3 -44
-11 7 -20 66 -10 66 3 0 9 -10 13 -22z m1093 -10 c-3 -8 -6 -5 -6 6 -1 11 2
17 5 13 3 -3 4 -12 1 -19z m-1987 -8 c0 -5 -7 -7 -15 -4 -8 4 -15 8 -15 10 0
2 7 4 15 4 8 0 15 -4 15 -10z m457 -32 c-3 -8 -6 -5 -6 6 -1 11 2 17 5 13 3
-3 4 -12 1 -19z m280 -40 c-3 -7 -5 -2 -5 12 0 14 2 19 5 13 2 -7 2 -19 0 -25z
m-188 19 c-2 -1 -13 -9 -24 -17 -19 -14 -19 -14 -6 3 7 9 18 17 24 17 6 0 8
-1 6 -3z m1642 -19 c20 -25 24 -38 11 -38 -4 0 -16 14 -25 30 -21 35 -13 40
14 8z m-1761 2 c0 -5 -5 -10 -11 -10 -5 0 -7 5 -4 10 3 6 8 10 11 10 2 0 4 -4
4 -10z m53 -21 c-11 -12 -27 -19 -34 -17 -9 3 -3 11 16 21 40 22 43 21 18 -4z
m417 0 c0 -6 -4 -7 -10 -4 -5 3 -10 11 -10 16 0 6 5 7 10 4 6 -3 10 -11 10
-16z m1174 5 c5 -14 4 -15 -9 -4 -17 14 -19 20 -6 20 5 0 12 -7 15 -16z
m-1539 -54 c-3 -5 -11 -10 -16 -10 -6 0 -7 5 -4 10 3 6 11 10 16 10 6 0 7 -4
4 -10z m306 -12 c5 -13 21 -41 34 -63 24 -40 32 -75 17 -75 -16 0 -32 25 -32
50 0 14 -6 36 -13 50 -18 35 -27 60 -21 60 2 0 9 -10 15 -22z m-1044 6 c-3 -3
-12 -4 -19 -1 -8 3 -5 6 6 6 11 1 17 -2 13 -5z m1094 -36 c11 -21 11 -22 -4
-9 -10 7 -17 17 -17 22 0 15 9 10 21 -13z m-744 -40 c-3 -7 -5 -2 -5 12 0 14
2 19 5 13 2 -7 2 -19 0 -25z m1273 -8 c-14 -11 -29 -20 -35 -20 -5 0 1 9 15
20 14 11 30 20 35 20 6 0 -1 -9 -15 -20z m97 -6 c-16 -9 -31 -13 -34 -10 -3 3
5 10 18 15 37 15 47 12 16 -5z m-72 -24 c-16 -16 -34 -30 -39 -30 -10 1 53 59
63 60 3 0 -8 -13 -24 -30z m-877 -10 c-7 -11 -17 -20 -22 -20 -5 0 -1 9 9 20
10 11 20 20 22 20 2 0 -2 -9 -9 -20z m32 -7 c0 -5 -9 -19 -20 -33 -11 -14 -20
-32 -20 -40 0 -13 -1 -13 -10 0 -8 13 -10 13 -10 -2 0 -10 -9 -22 -20 -28 -18
-10 -20 -8 -20 18 0 16 8 36 17 43 14 12 16 12 9 -1 -5 -8 6 0 25 18 33 31 49
40 49 25z m9 -42 c-6 -17 -9 -40 -6 -51 3 -13 -3 -24 -19 -35 -30 -20 -34 -19
-34 5 0 11 7 23 15 26 8 4 15 13 15 21 0 17 30 77 36 71 2 -3 -1 -19 -7 -37z
m66 8 c8 -34 -1 -51 -15 -29 -12 19 -13 60 -1 60 5 0 12 -14 16 -31z m22 -16
c-3 -10 -5 -2 -5 17 0 19 2 27 5 18 2 -10 2 -26 0 -35z m853 27 c-28 -22 -88
-45 -97 -37 -2 3 8 12 24 21 15 8 24 15 19 16 -5 0 -25 -10 -45 -22 -33 -21
-34 -23 -13 -26 12 -2 19 -8 16 -14 -3 -5 7 -3 22 5 16 8 53 17 82 20 48 6 52
5 41 -9 -7 -9 -30 -24 -51 -35 -40 -20 -42 -35 -7 -60 39 -27 62 -49 51 -49
-6 0 -17 7 -26 15 -17 17 -26 19 -26 6 0 -5 9 -12 20 -16 11 -3 19 -11 17 -17
-1 -6 5 -13 13 -15 13 -4 13 -3 0 6 -8 6 -10 11 -5 11 18 0 32 -15 32 -33 0
-12 -4 -14 -11 -7 -5 5 -26 10 -45 10 -20 0 -55 9 -78 20 -62 28 -53 15 15
-19 31 -17 51 -30 44 -31 -7 0 -10 -4 -7 -10 3 -6 -1 -7 -9 -4 -9 3 -14 9 -12
13 3 3 -13 6 -34 6 -22 0 -33 -3 -27 -7 15 -9 -18 -10 -50 -2 -22 6 -23 11
-23 115 0 107 1 110 25 121 13 6 22 14 20 19 -3 4 0 11 6 15 8 5 9 3 4 -6 -6
-10 -4 -11 11 -5 10 4 38 8 61 9 23 1 45 4 49 9 4 4 10 7 13 7 3 0 -5 -9 -19
-20z m-914 -67 c-11 -29 -17 -6 -9 33 7 36 8 37 11 11 2 -16 1 -36 -2 -44z
m759 47 c-3 -5 -11 -10 -16 -10 -6 0 -7 5 -4 10 3 6 11 10 16 10 6 0 7 -4 4
-10z m265 -14 c0 -2 -7 -7 -16 -10 -8 -3 -12 -2 -9 4 6 10 25 14 25 6z m-1
-42 c-14 -17 -82 -54 -99 -54 -26 0 -5 19 48 43 67 31 68 32 51 11z m-55 -60
c9 -3 13 -10 10 -15 -8 -13 20 -11 34 3 8 8 12 9 12 1 0 -6 -6 -13 -12 -16 -9
-3 -8 -10 6 -26 11 -12 14 -21 7 -21 -17 0 -72 56 -63 65 4 5 -1 5 -11 2 -11
-4 -16 -3 -12 3 7 12 8 12 29 4z m99 -43 c4 -1 7 -5 7 -11 0 -15 -26 -12 -39
4 -10 12 -9 14 6 11 10 -2 21 -4 26 -4z m232 -11 c3 -5 1 -10 -4 -10 -6 0 -11
5 -11 10 0 6 2 10 4 10 3 0 8 -4 11 -10z m-132 -77 c-7 -2 -19 -2 -25 0 -7 3
-2 5 12 5 14 0 19 -2 13 -5z m-378 -17 c21 -8 41 -19 43 -25 5 -14 -15 -15
-23 -1 -3 6 -19 10 -36 10 -19 0 -29 5 -29 15 0 18 -4 18 45 1z m-9 -68 c16
-18 23 -28 15 -21 -15 13 -44 6 -35 -8 3 -5 0 -9 -5 -9 -6 0 -11 16 -11 35 0
19 1 35 3 35 2 0 16 -15 33 -32z m756 -174 c-3 -17 -8 -22 -15 -15 -7 7 -6 15
3 26 17 20 18 19 12 -11z m-955 -30 c-3 -3 -12 -4 -19 -1 -8 3 -5 6 6 6 11 1
17 -2 13 -5z m970 -46 c-3 -8 -6 -5 -6 6 -1 11 2 17 5 13 3 -3 4 -12 1 -19z
m-1170 -34 c-3 -3 -12 -4 -19 -1 -8 3 -5 6 6 6 11 1 17 -2 13 -5z m19 -24 c9
0 12 -4 9 -10 -10 -17 -55 -12 -55 6 0 11 5 14 16 10 9 -3 22 -6 30 -6z m37
-56 c38 5 39 5 12 -4 -34 -12 -95 -4 -95 11 0 6 8 5 21 -1 11 -7 39 -9 62 -6z
m358 -101 c-8 -15 -10 -15 -11 -2 0 17 10 32 18 25 2 -3 -1 -13 -7 -23z m199
-13 c0 -5 -8 -10 -17 -11 -15 0 -15 -2 2 -9 16 -7 14 -8 -12 -7 -18 1 -33 5
-33 9 0 5 26 17 58 27 1 1 2 -3 2 -9z m50 -10 c0 -5 -5 -10 -11 -10 -5 0 -7 5
-4 10 3 6 8 10 11 10 2 0 4 -4 4 -10z m-407 -15 c-3 -9 -8 -14 -10 -11 -3 3
-2 9 2 15 9 16 15 13 8 -4z m277 1 c0 -3 -4 -8 -10 -11 -5 -3 -10 -1 -10 4 0
6 5 11 10 11 6 0 10 -2 10 -4z m-39 -48 l-11 -33 25 30 c26 30 26 30 21 5 -5
-23 -4 -23 6 3 7 16 20 27 31 27 11 0 15 -4 11 -11 -5 -8 1 -10 20 -7 22 4 26
2 21 -11 -3 -9 4 -5 15 9 18 23 20 23 20 5 0 -17 2 -17 10 -5 8 12 10 11 10
-6 0 -14 -8 -24 -21 -27 -12 -3 -18 -10 -15 -16 4 -5 -2 -15 -11 -21 -16 -10
-16 -11 2 -5 56 18 159 44 162 42 5 -6 -39 -26 -87 -41 -25 -8 -36 -15 -25
-15 18 -2 18 -3 -5 -16 l-25 -15 30 5 30 6 -25 -15 c-33 -20 -27 -20 48 4 76
24 102 25 48 3 -32 -13 -36 -18 -21 -23 10 -3 39 -3 64 1 62 9 63 4 4 -14 -32
-10 -40 -15 -24 -16 20 -1 13 -8 -37 -41 -64 -41 -75 -51 -44 -43 22 5 49 -42
30 -53 -6 -4 -8 -3 -5 2 3 6 -3 16 -14 22 -18 12 -19 11 -10 -7 15 -28 14 -36
-4 -21 -8 7 -15 9 -15 5 0 -4 -7 -2 -15 5 -8 7 -15 9 -15 4 0 -4 -12 3 -27 17
-16 13 -8 2 17 -25 34 -36 38 -44 18 -31 -16 9 -28 13 -28 9 0 -5 -9 6 -20 24
-11 17 -23 32 -26 32 -4 0 -2 -6 3 -12 6 -7 10 -21 10 -30 0 -14 -3 -15 -14
-7 -7 6 -13 8 -13 4 0 -4 -8 -1 -17 6 -10 7 -5 -2 12 -20 24 -26 26 -31 10
-26 -18 6 -17 4 4 -14 26 -24 16 -28 -13 -6 -11 8 -17 17 -14 21 7 6 -27 44
-40 44 -5 0 -18 18 -31 40 -22 40 -41 58 -21 20 6 -11 8 -20 5 -20 -3 0 7 -17
22 -37 l28 -38 -33 25 c-18 14 -52 41 -75 60 l-42 35 38 -43 c44 -50 47 -60
10 -34 -16 11 -38 23 -50 26 -22 7 -23 11 -23 139 0 73 5 139 10 147 8 12 10
10 10 -8 0 -13 3 -21 8 -19 4 3 6 -20 5 -51 l-2 -57 13 65 14 65 2 -60 2 -60
12 47 c6 25 15 50 20 55 5 5 7 -1 3 -15 -3 -12 -1 -20 4 -16 5 3 9 9 9 14 0 5
5 21 10 36 15 38 25 22 11 -18z m203 10 c-6 -10 -4 -10 7 0 18 17 34 15 19 -3
-7 -8 -19 -15 -26 -15 -8 0 -14 7 -14 15 0 8 5 15 11 15 5 0 7 -6 3 -12z m91
2 c-3 -5 -11 -10 -16 -10 -6 0 -7 5 -4 10 3 6 11 10 16 10 6 0 7 -4 4 -10z
m188 -187 c-7 -2 -21 -2 -30 0 -10 3 -4 5 12 5 17 0 24 -2 18 -5z m-168 -28
c-16 -13 -25 -24 -18 -25 6 0 14 4 17 9 3 5 35 9 71 10 82 1 77 -14 -7 -24
-45 -6 -57 -10 -43 -15 19 -7 19 -8 2 -15 -12 -5 -27 0 -45 16 -25 22 -26 23
-8 2 23 -28 6 -31 -18 -4 -19 21 -20 19 39 53 42 24 45 22 10 -7z m128 8 c-7
-2 -21 -2 -30 0 -10 3 -4 5 12 5 17 0 24 -2 18 -5z m-528 -121 c-7 -7 -45 29
-45 41 0 6 11 0 25 -13 14 -13 23 -26 20 -28z m-35 -12 c0 -5 -2 -10 -4 -10
-3 0 -8 5 -11 10 -3 6 -1 10 4 10 6 0 11 -4 11 -10z m335 -38 c-3 -3 -16 5
-28 17 l-22 23 28 -17 c15 -10 25 -20 22 -23z m494 -227 l0 -20 -9 20 c-5 11
-9 27 -9 35 -1 13 0 13 9 0 5 -8 9 -24 9 -35z m-1067 -7 c-7 -7 -12 -8 -12 -2
0 14 12 26 19 19 2 -3 -1 -11 -7 -17z m248 -19 c-7 -11 -14 -18 -17 -15 -3 3
0 12 7 21 18 21 23 19 10 -6z m25 -52 c-26 -40 0 -41 30 -1 29 38 48 40 21 3
-12 -18 -13 -26 -3 -38 11 -14 10 -14 -5 -2 -10 7 -18 11 -18 7 0 -3 0 -9 0
-13 0 -15 25 -9 49 11 l24 21 -11 -21 c-9 -18 -8 -20 11 -20 18 1 22 -4 20
-29 l-2 -30 14 25 c9 16 15 19 15 10 1 -10 4 -8 10 6 6 17 15 19 46 16 l38 -5
-35 -18 c-19 -10 -29 -19 -24 -19 6 0 -1 -10 -14 -20 -17 -15 -39 -20 -80 -20
-52 -1 -54 -2 -32 -14 17 -10 35 -11 64 -4 72 16 64 1 -13 -22 -41 -13 -70
-25 -63 -27 6 -2 34 3 62 11 58 17 67 13 19 -8 -46 -20 -7 -21 57 -1 51 15 70
14 38 -3 -29 -16 -131 -32 -200 -32 l-63 0 0 124 0 125 28 13 c33 17 39 8 17
-25z m225 4 c0 -5 -7 -12 -16 -15 -14 -5 -15 -4 -4 9 14 17 20 19 20 6z m563
-6 c4 -8 2 -17 -3 -20 -6 -4 -10 3 -10 14 0 25 6 27 13 6z m-643 -14 c0 -5 -7
-12 -16 -15 -14 -5 -15 -4 -4 9 14 17 20 19 20 6z m90 -85 c0 -2 -7 -7 -16
-10 -8 -3 -12 -2 -9 4 6 10 25 14 25 6z m520 -56 c0 -5 -4 -10 -10 -10 -5 0
-10 5 -10 10 0 6 5 10 10 10 6 0 10 -4 10 -10z m-140 -95 c0 -8 -2 -15 -4 -15
-2 0 -6 7 -10 15 -3 8 -1 15 4 15 6 0 10 -7 10 -15z m170 -5 c-24 -15 -37 -11
-16 5 11 8 22 12 25 9 3 -3 -1 -9 -9 -14z m-680 -11 c-25 -4 -65 -14 -90 -22
l-45 -16 52 0 c28 -1 55 -5 58 -11 4 -6 -1 -7 -11 -3 -12 4 -15 3 -10 -5 5 -9
-7 -12 -41 -12 -30 0 -43 -3 -35 -9 11 -7 10 -10 -3 -15 -9 -3 -19 -6 -21 -6
-2 0 -4 26 -4 58 l0 57 97 -4 c84 -4 92 -5 53 -12z m560 -20 c0 -11 -4 -17
-10 -14 -5 3 -10 13 -10 21 0 8 5 14 10 14 6 0 10 -9 10 -21z m-60 -59 c0 -5
-5 -10 -11 -10 -5 0 -7 5 -4 10 3 6 8 10 11 10 2 0 4 -4 4 -10z m-545 -15
c-11 -8 -25 -19 -32 -25 -15 -12 -73 -14 -73 -1 0 4 24 15 53 23 67 20 76 21
52 3z m505 -38 c0 -24 -3 -28 -10 -17 -13 20 -13 63 0 55 6 -3 10 -21 10 -38z
m40 19 c0 -8 -4 -18 -10 -21 -5 -3 -10 3 -10 14 0 12 5 21 10 21 6 0 10 -6 10
-14z m-55 -56 c5 -16 4 -22 -3 -15 -5 6 -12 24 -16 40 -7 34 7 15 19 -25z
m-55 -3 c0 -5 -4 -5 -10 -2 -5 3 -10 14 -10 23 0 15 2 15 10 2 5 -8 10 -19 10
-23z m-460 13 c-20 -13 -53 -13 -45 0 3 6 18 10 33 10 21 0 24 -2 12 -10z
m720 -10 c0 -5 -5 -10 -11 -10 -5 0 -7 5 -4 10 3 6 8 10 11 10 2 0 4 -4 4 -10z
m-700 -15 c0 -11 -42 -25 -53 -18 -8 5 -2 10 18 14 17 4 31 7 33 8 1 0 2 -1 2
-4z m410 -30 c0 -5 -5 -3 -10 5 -5 8 -10 20 -10 25 0 6 5 3 10 -5 5 -8 10 -19
10 -25z m130 21 c0 -3 -4 -8 -10 -11 -5 -3 -10 -1 -10 4 0 6 5 11 10 11 6 0
10 -2 10 -4z m-30 -16 c0 -5 -4 -10 -10 -10 -5 0 -10 5 -10 10 0 6 5 10 10 10
6 0 10 -4 10 -10z m76 -5 c-11 -8 -27 -15 -35 -15 -10 0 -7 6 9 14 33 19 50
19 26 1z m-159 -55 c5 0 17 -16 27 -37 14 -29 15 -38 4 -45 -9 -7 -8 -8 5 -4
28 9 19 -9 -10 -21 -26 -10 -25 -10 12 -5 52 6 44 -1 -35 -32 -90 -34 -62 -32
43 3 48 17 87 28 87 26 0 -7 -128 -73 -151 -78 -13 -3 -3 -5 23 -4 53 2 53 -3
0 -20 l-37 -11 45 4 45 4 -45 -16 c-25 -10 -56 -25 -69 -35 -33 -27 -41 -24
-41 14 0 21 -8 41 -20 52 -20 18 -20 17 -20 -48 0 -57 -3 -68 -22 -81 -12 -9
-33 -16 -45 -16 -22 0 -23 2 -23 103 0 69 3 97 10 87 7 -11 10 -5 11 25 l1 40
14 -35 14 -35 -5 35 -5 35 21 -30 c12 -16 18 -22 15 -12 -18 54 -14 66 7 22
l24 -50 -3 75 -3 75 10 -54 c10 -59 19 -78 19 -43 0 12 4 22 9 22 5 0 7 19 4
43 -6 57 14 29 23 -33 7 -43 8 -44 15 -17 4 16 4 40 -2 54 -16 42 -9 50 12 13
11 -19 17 -26 15 -15 -3 11 -8 34 -11 50 -6 27 -5 28 8 13 8 -10 19 -18 24
-18z m87 3 c-9 -7 -21 -10 -25 -7 -17 10 -9 19 16 19 22 0 23 -1 9 -12z m-38
-30 c-4 -4 -11 -1 -16 7 -16 25 -11 35 7 17 9 -9 13 -20 9 -24z m-431 7 c-18
-20 -18 -20 1 -17 10 1 25 6 32 10 20 13 14 2 -15 -24 -14 -13 -23 -18 -18
-10 5 10 4 12 -4 7 -6 -4 -8 -12 -5 -18 4 -6 0 -14 -7 -19 -21 -13 -30 13 -12
33 9 10 12 18 8 18 -4 0 0 9 10 20 10 11 20 20 23 20 3 0 -3 -9 -13 -20z m533
-15 c-15 -8 -35 -16 -45 -18 -10 -1 -24 -6 -30 -10 -14 -9 -33 -1 -33 13 0 5
13 8 28 8 16 -1 37 4 48 10 10 6 28 11 39 11 17 0 16 -2 -7 -14z m-510 -42
c-30 -35 -32 -46 -5 -28 14 9 28 23 31 32 4 9 9 14 11 11 3 -3 -2 -24 -10 -48
-20 -57 -13 -60 19 -8 l26 43 -5 -45 -5 -45 13 44 c12 41 13 33 15 -111 2
-137 0 -156 -15 -170 -31 -26 -130 -78 -136 -71 -4 3 -7 30 -7 59 0 51 1 52
46 79 59 34 46 68 -16 41 -13 -5 -15 7 -13 85 2 85 4 94 29 121 30 31 46 39
22 11z m449 -9 c-3 -3 -12 -4 -19 -1 -8 3 -5 6 6 6 11 1 17 -2 13 -5z m83 -38
c0 -9 -61 -48 -67 -43 -3 3 10 15 28 26 36 22 39 23 39 17z m-95 -46 c-3 -5
-14 -10 -23 -9 -14 0 -13 2 3 9 27 11 27 11 20 0z m-50 -90 c-3 -5 -10 -10
-16 -10 -5 0 -9 5 -9 10 0 6 7 10 16 10 8 0 12 -4 9 -10z m58 -5 c-6 -18 -54
-45 -77 -45 -29 0 -4 29 37 44 23 8 43 15 44 15 1 1 0 -6 -4 -14z m57 1 c0 -2
-8 -10 -17 -17 -16 -13 -17 -12 -4 4 13 16 21 21 21 13z m-45 -36 c-3 -5 -11
-10 -16 -10 -6 0 -7 5 -4 10 3 6 11 10 16 10 6 0 7 -4 4 -10z m-105 -30 c-8
-5 -24 -10 -35 -10 -17 0 -17 2 -5 10 8 5 24 10 35 10 17 0 17 -2 5 -10z m47
-26 c-3 -3 -12 -4 -19 -1 -8 3 -5 6 6 6 11 1 17 -2 13 -5z m-126 -30 c29 -15
30 -16 14 -34 -26 -29 -53 -34 -80 -16 -29 19 -32 41 -7 55 24 14 38 13 73 -5z
m-128 -65 c12 -7 24 -15 27 -18 3 -4 18 -12 34 -19 27 -12 28 -13 10 -27 -17
-14 -17 -14 10 -5 26 10 28 9 16 -5 -8 -9 -26 -23 -42 -31 -25 -13 -28 -13
-28 1 0 20 -11 19 -63 -6 -51 -25 -82 -21 -123 15 l-27 23 69 41 c75 45 84 48
117 31z m154 0 c-9 -6 -15 -14 -12 -20 3 -5 -1 -6 -9 -3 -21 8 -20 21 2 27 30
8 37 7 19 -4z m-351 -125 l66 -41 -66 -39 -66 -38 0 -68 c0 -67 -4 -74 -34
-62 -14 5 -16 27 -16 140 0 124 2 137 23 165 22 31 22 31 25 7 2 -17 21 -35
68 -64z m348 39 c4 -4 -21 -22 -56 -40 -35 -17 -57 -32 -50 -33 7 0 11 -4 7
-10 -3 -5 15 0 40 11 25 11 58 19 73 17 l27 -4 -28 -14 c-15 -7 -26 -19 -23
-26 8 -20 -36 -52 -94 -67 -35 -10 -46 -16 -29 -16 14 -1 48 6 74 14 27 8 50
13 52 12 4 -5 -143 -87 -155 -87 -6 0 -12 -5 -14 -11 -4 -12 -150 71 -151 86
0 6 20 21 46 35 l46 25 46 -23 c25 -12 50 -22 55 -22 21 0 9 37 -15 48 -41 19
-29 36 48 74 78 38 90 42 101 31z m-564 -177 c0 -63 0 -64 -40 -90 -59 -39
-68 -35 -72 29 l-3 56 55 34 c30 18 56 34 58 34 1 1 2 -28 2 -63z m620 -12
c-8 -8 -23 -20 -34 -25 -13 -7 -9 -1 9 15 34 29 43 33 25 10z m-957 -34 c49
-1 51 -2 32 -16 -24 -19 -82 -12 -104 12 -15 15 -14 16 2 10 10 -3 42 -6 70
-6z m883 -49 c-3 -4 -18 -11 -33 -14 -16 -3 -36 -9 -45 -12 -10 -4 -18 -3 -18
3 0 5 17 14 38 20 49 13 64 14 58 3z m-102 -77 c22 -9 10 -24 -20 -24 -23 0
-31 10 -17 23 8 9 17 9 37 1z m-24 -38 c0 -3 -4 -8 -10 -11 -5 -3 -10 -1 -10
4 0 6 5 11 10 11 6 0 10 -2 10 -4z m60 -1 c0 -15 -38 -45 -57 -45 -33 0 -28
14 10 33 34 17 47 20 47 12z m100 -169 c0 -2 -8 -10 -17 -17 -16 -13 -17 -12
-4 4 13 16 21 21 21 13z m200 -151 c-7 -8 -17 -15 -23 -15 -5 0 -2 9 8 20 21
23 35 19 15 -5z m120 -104 c-5 -11 -15 -23 -22 -27 -7 -5 -8 -2 -3 7 21 37 44
55 25 20z m-41 -76 c-21 -35 -39 -53 -39 -38 0 15 40 73 50 73 5 0 0 -16 -11
-35z m-55 -49 c-3 -8 -13 -17 -22 -21 -13 -5 -13 -2 3 15 21 24 26 25 19 6z
m85 -86 c-22 -38 -44 -56 -33 -25 4 8 10 15 15 15 5 0 9 6 9 13 0 12 19 37 28
37 2 0 -7 -18 -19 -40z m-772 -26 c7 -10 13 -35 13 -55 0 -71 -85 -105 -135
-54 -32 31 -33 80 -2 113 19 20 29 23 66 19 27 -3 50 -12 58 -23z m713 -49
c-7 -9 -15 -13 -19 -10 -3 3 1 10 9 15 21 14 24 12 10 -5z m-10 -178 c0 -2
-10 -12 -22 -23 l-23 -19 19 23 c18 21 26 27 26 19z m46 -65 c-18 -16 -18 -16
-6 6 6 13 14 21 18 18 3 -4 -2 -14 -12 -24z m26 -74 c-7 -7 -12 -8 -12 -2 0
14 12 26 19 19 2 -3 -1 -11 -7 -17z"/>
<path d="M7710 11912 c0 -5 10 -17 22 -28 l21 -19 -18 28 c-18 28 -25 33 -25
19z"/>
<path d="M6735 11909 c-4 -6 -5 -12 -2 -15 2 -3 7 2 10 11 7 17 1 20 -8 4z"/>
<path d="M8602 11824 c10 -10 20 -15 24 -12 3 4 -5 12 -18 18 -22 12 -22 12
-6 -6z"/>
<path d="M7650 11681 c0 -6 4 -13 10 -16 6 -3 7 1 4 9 -7 18 -14 21 -14 7z"/>
<path d="M7749 11608 c4 -12 14 -24 20 -26 8 -3 7 5 -4 22 -21 32 -27 33 -16
4z"/>
<path d="M6498 11523 c7 -3 16 -2 19 1 4 3 -2 6 -13 5 -11 0 -14 -3 -6 -6z"/>
<path d="M3570 12539 l-55 -51 47 32 c26 17 52 40 58 50 6 11 9 20 8 20 -2 0
-28 -23 -58 -51z"/>
<path d="M6099 12013 c-13 -15 -12 -15 9 -4 23 12 28 21 13 21 -5 0 -15 -7
-22 -17z"/>
<path d="M6099 11983 c-13 -16 -12 -17 4 -4 9 7 17 15 17 17 0 8 -8 3 -21 -13z"/>
<path d="M5486 11949 c3 -5 0 -19 -6 -31 -10 -21 -10 -21 9 2 25 30 26 37 6
37 -8 0 -12 -4 -9 -8z"/>
<path d="M6085 11850 c-3 -5 -1 -10 5 -10 6 0 8 -5 4 -11 -4 -7 1 -7 16 1 18
10 20 14 9 21 -18 11 -26 11 -34 -1z"/>
<path d="M6351 10854 c0 -11 3 -14 6 -6 3 7 2 16 -1 19 -3 4 -6 -2 -5 -13z"/>
<path d="M7715 10258 l-16 -33 20 25 c20 24 26 40 16 40 -2 0 -12 -15 -20 -32z"/>
<path d="M6722 8550 c0 -14 2 -19 5 -12 2 6 2 18 0 25 -3 6 -5 1 -5 -13z"/>
<path d="M6692 8503 c-18 -13 -28 -14 -48 -4 -15 6 -23 7 -19 1 4 -6 -8 -10
-29 -10 l-36 0 0 -64 0 -64 -32 -7 c-105 -23 -251 -139 -307 -244 -80 -150
-82 -332 -5 -483 55 -109 185 -215 311 -253 71 -22 217 -19 295 5 251 77 403
343 343 599 -41 170 -179 322 -335 368 l-56 17 4 63 4 63 -37 0 c-29 0 -36 3
-31 15 7 18 7 18 -22 -2z"/>
<path d="M8580 7638 l-35 -31 33 19 c35 20 61 44 46 44 -5 -1 -25 -15 -44 -32z"/>
<path d="M8625 7360 c-3 -5 -2 -10 4 -10 5 0 13 5 16 10 3 6 2 10 -4 10 -5 0
-13 -4 -16 -10z"/>
<path d="M8725 6965 c-38 -39 -86 -83 -105 -98 -56 -45 -1 -14 74 42 77 56 98
59 45 7 -19 -19 -47 -51 -64 -72 l-30 -39 45 36 c58 47 94 50 52 5 -16 -17
-39 -49 -51 -71 -21 -39 -21 -39 30 15 28 30 48 46 44 35 -4 -11 -8 -26 -9
-32 -1 -7 -13 -24 -26 -38 -13 -14 -18 -25 -11 -25 7 0 9 -6 5 -12 -3 -7 5 1
19 17 14 17 28 27 32 24 3 -4 -6 -21 -20 -38 -33 -38 -19 -41 18 -3 21 22 26
36 25 79 0 33 -4 51 -10 47 -6 -4 -5 3 1 15 7 12 11 54 9 99 l-3 77 -70 -70z"/>
<path d="M8773 6653 c0 -7 5 -12 11 -10 15 5 18 24 3 24 -8 0 -14 -6 -14 -14z"/>
<path d="M1 6184 c0 -11 3 -14 6 -6 3 7 2 16 -1 19 -3 4 -6 -2 -5 -13z"/>
<path d="M80 6163 l-21 -28 7 25 c7 25 6 25 -14 6 -12 -10 -24 -27 -27 -37 -4
-11 -10 -17 -15 -14 -5 3 -9 -224 -10 -527 l0 -532 49 54 c28 30 50 49 51 43
0 -7 -22 -34 -50 -60 l-50 -47 0 -94 c0 -72 3 -92 12 -86 11 6 11 4 0 -7 -16
-17 -18 -1554 -2 -1564 8 -5 8 -11 0 -20 -8 -10 -7 -14 2 -18 10 -4 10 -6 0
-6 -18 -1 -17 -1057 1 -1065 9 -3 8 -7 -3 -15 -10 -7 -11 -11 -2 -11 15 0 16
-46 2 -55 -7 -4 -10 -143 -10 -408 1 -221 5 -395 9 -388 6 9 11 4 19 -17 9
-25 8 -33 -6 -44 -11 -9 -14 -10 -8 -1 4 7 2 21 -3 30 -7 13 -10 -44 -11 -192
0 -133 4 -205 10 -195 5 8 12 11 16 7 4 -4 0 -15 -9 -25 -15 -17 -17 -62 -17
-445 0 -392 1 -427 17 -427 9 0 26 8 37 17 20 17 20 17 7 1 -12 -17 -10 -18
27 -18 23 0 44 4 47 10 12 19 43 31 51 18 4 -7 3 -8 -4 -4 -7 4 -12 1 -12 -8
0 -14 134 -16 1303 -15 1002 1 1319 4 1377 13 l75 13 -47 13 c-62 16 -61 30 3
30 73 0 51 20 -24 21 -86 2 -30 16 73 19 79 2 80 3 11 20 -23 6 -41 14 -38 17
7 7 107 -17 107 -25 0 -4 -16 -32 -35 -62 l-34 -55 487 -3 c425 -2 487 0 495
13 4 8 13 15 19 15 7 0 6 -5 -2 -15 -11 -13 -4 -15 50 -15 54 0 65 3 82 25 11
14 24 25 31 25 6 0 0 -10 -13 -22 l-25 -23 63 -3 c54 -3 67 1 100 24 l37 26
-30 -26 -30 -26 556 1 c306 0 562 5 570 10 9 6 0 9 -28 9 -47 0 -57 14 -18 24
14 4 23 11 20 16 -3 6 -1 10 6 10 7 0 10 2 8 5 -3 2 -21 0 -40 -5 l-34 -10 30
25 c21 18 24 23 10 18 -25 -8 -18 0 14 17 18 9 22 9 16 0 -4 -7 4 -4 19 5 30
20 33 27 9 19 -10 -4 -5 5 12 20 32 27 15 37 -19 11 -33 -25 -43 -16 -13 10
15 14 23 25 16 25 -8 0 -8 5 2 18 11 14 10 13 -9 -2 -12 -11 -22 -16 -22 -12
0 4 -15 -3 -32 -15 l-33 -23 39 49 40 50 -35 -32 c-41 -39 -63 -44 -29 -8 13
14 25 33 26 43 2 12 -6 7 -24 -14 -35 -40 -77 -65 -96 -58 -23 9 -20 19 17 61
l32 38 -43 -34 c-24 -19 -53 -47 -65 -62 -11 -16 -25 -29 -29 -29 -5 0 20 37
55 83 106 136 105 148 -1 16 -60 -75 -151 -163 -159 -155 -2 2 21 27 52 56 30
29 53 55 50 58 -3 3 7 19 22 36 l28 31 -30 -25 c-16 -13 -48 -40 -70 -60 l-39
-35 27 35 c61 79 67 92 20 43 -44 -47 -63 -59 -77 -50 -2 1 -12 -5 -22 -14
-56 -48 -42 -8 20 58 52 57 23 45 -50 -20 -74 -67 -71 -55 10 32 28 30 38 45
22 33 -15 -12 -32 -20 -36 -17 -4 2 -20 -9 -35 -25 -16 -17 -33 -30 -39 -30
-5 0 -23 -12 -40 -27 -16 -16 1 8 39 52 59 69 62 73 20 33 -28 -25 -68 -56
-89 -68 l-40 -22 39 48 c22 26 34 45 27 40 -16 -10 -15 0 4 29 9 14 14 25 12
25 -3 0 -26 -32 -52 -71 -26 -39 -50 -68 -54 -65 -3 4 0 12 6 18 7 7 12 17 12
23 0 5 -5 2 -11 -8 -6 -9 -13 -16 -17 -13 -4 2 -8 -7 -8 -20 -1 -14 2 -21 9
-17 6 3 7 1 3 -6 -4 -6 -11 -9 -15 -6 -5 2 -16 -4 -26 -15 -10 -11 -14 -20
-10 -20 12 0 -37 -50 -60 -62 -11 -5 -2 6 20 26 41 36 38 48 -5 20 -14 -10 -2
7 25 37 28 29 40 45 28 35 -27 -23 -30 -11 -5 18 16 20 16 20 -2 6 -23 -18
-48 -22 -43 -7 2 7 9 12 15 12 5 0 13 3 17 7 4 3 -1 5 -12 4 -10 -2 -30 -20
-44 -41 -15 -21 -34 -40 -44 -41 -9 -1 -26 -11 -38 -21 -12 -10 10 18 48 62
38 44 51 63 29 42 -22 -20 -43 -35 -46 -32 -3 3 -11 -2 -19 -12 -12 -14 -12
-16 0 -8 10 6 12 4 6 -4 -5 -9 -10 -10 -18 -2 -8 8 -25 -2 -60 -36 -26 -27
-48 -43 -46 -38 5 29 -5 26 -37 -10 l-36 -40 26 37 c33 47 33 53 -1 31 l-28
-17 29 32 c33 36 38 39 30 17 -7 -17 21 -21 31 -5 4 6 10 8 15 5 5 -3 12 0 16
6 4 8 3 9 -4 5 -7 -4 -12 -2 -12 3 0 6 6 11 14 11 7 0 20 7 27 16 10 12 3 11
-23 -5 -33 -18 -36 -18 -31 -3 3 9 18 30 32 47 l26 30 -30 -25 c-16 -13 -50
-43 -75 -65 -43 -38 -44 -39 -15 -5 61 70 70 86 30 49 -22 -19 -58 -49 -80
-66 -39 -30 -41 -30 -72 -14 -18 9 -33 19 -33 24 0 12 24 8 49 -9 21 -15 24
-15 39 1 16 17 16 17 -1 12 -10 -4 -16 -3 -13 2 3 5 -8 14 -26 20 -17 6 -29
14 -26 17 7 7 58 -6 58 -15 0 -4 7 -8 15 -8 8 0 15 7 15 14 0 8 -4 12 -8 9 -5
-3 -21 4 -38 15 l-29 19 25 -1 c14 0 34 -4 45 -8 12 -5 25 -4 33 2 11 8 9 13
-10 23 l-23 13 25 2 c21 1 18 3 -15 14 -38 13 -29 21 18 17 10 -1 25 5 33 13
14 13 12 15 -17 15 -30 0 -31 1 -15 13 16 12 12 15 -40 27 l-59 14 53 12 c65
15 79 25 26 18 -31 -3 -35 -2 -19 6 15 8 8 9 -30 5 l-50 -5 53 35 c28 20 52
38 52 40 0 7 -33 -7 -62 -27 -28 -20 -48 -9 -22 13 8 7 20 22 26 33 6 13 -7 5
-33 -19 l-43 -40 42 49 c47 55 56 82 15 45 l-27 -24 18 30 19 30 -38 -35 -37
-35 16 35 17 35 -30 -35 -31 -35 16 39 c8 21 13 40 10 43 -2 2 -7 -5 -11 -16
-9 -28 -28 -27 -21 2 3 12 -3 3 -14 -20 -25 -56 -31 -54 -14 4 18 60 12 80 -9
30 -17 -40 -57 -96 -57 -81 0 5 6 18 13 29 7 11 18 34 25 50 12 28 11 29 -4
10 -8 -11 -19 -19 -24 -18 -5 2 -16 -10 -25 -26 -20 -39 -38 -51 -25 -17 5 15
17 40 26 57 l16 31 -25 -18 c-14 -11 -28 -33 -32 -51 -8 -43 -22 -51 -18 -10
l4 32 -19 -34 -19 -34 -7 28 c-4 15 -5 48 -2 74 4 39 2 36 -14 -24 l-18 -70
-2 65 c-2 66 -4 65 -15 -2 -3 -21 -10 -38 -15 -38 -4 0 -6 9 -3 20 11 42 -6
17 -27 -40 -23 -62 -42 -88 -34 -48 3 14 -3 8 -16 -15 -30 -54 -37 -39 -10 18
13 27 26 42 30 36 3 -7 11 5 18 26 10 36 10 37 -5 15 -18 -26 -34 -29 -27 -4
2 9 -4 -1 -14 -23 -11 -22 -36 -58 -56 -79 -34 -38 -36 -39 -36 -15 1 13 7 35
15 49 16 27 21 76 6 51 -7 -10 -10 -10 -13 -1 -2 7 -17 -21 -33 -61 -19 -48
-31 -67 -33 -53 -2 11 6 42 18 68 22 53 26 73 7 39 -7 -12 -16 -22 -21 -21 -5
0 -13 -6 -18 -14 -5 -8 -6 -3 -2 14 11 50 -4 30 -32 -42 -30 -78 -45 -88 -20
-14 9 26 16 49 16 51 0 13 -47 -48 -67 -89 -14 -27 -26 -48 -28 -46 -1 2 3 37
11 78 7 41 13 91 12 110 0 29 -3 24 -13 -25 -10 -45 -13 -52 -15 -30 -2 30 -2
30 -10 5 -4 -14 -9 -47 -10 -75 -4 -85 -18 -120 -17 -43 0 37 -2 71 -6 75 -4
3 -7 -13 -7 -36 0 -28 -12 -65 -35 -111 -19 -39 -37 -70 -40 -70 -2 0 5 25 16
57 22 64 23 73 10 73 -5 0 -12 -10 -16 -22 -3 -13 -12 -34 -18 -47 -11 -22
-12 -20 -17 34 -3 32 -10 60 -16 62 -6 2 -9 -8 -6 -26 2 -16 -1 -31 -6 -35 -6
-4 -8 -22 -5 -40 4 -25 -2 -45 -23 -82 -36 -61 -43 -42 -10 25 28 54 35 92 10
51 l-15 -25 6 30 c6 29 6 29 -9 10 -15 -19 -15 -19 -10 5 l5 25 -15 -25 -15
-25 -2 30 c-1 17 -3 23 -6 13 -3 -14 -15 -18 -47 -18 -23 0 -46 3 -50 7 -10
10 84 43 124 43 23 0 31 3 21 9 -7 5 -43 7 -80 5 -54 -4 -62 -2 -41 7 14 6 50
9 83 6 31 -3 57 -2 57 2 0 4 -19 8 -42 9 -71 3 -55 12 23 13 54 0 68 3 52 9
-13 5 -23 12 -23 16 0 7 62 -1 97 -12 14 -4 15 -4 3 4 -8 5 -39 15 -68 22 -72
17 -60 22 24 11 84 -12 96 -7 20 9 -31 6 -56 15 -56 20 0 5 -8 11 -17 13 -10
3 2 5 27 6 38 2 41 4 23 11 -30 12 -29 24 1 16 13 -3 39 1 57 9 l34 16 -59 -6
c-41 -5 -56 -3 -52 4 4 6 18 11 32 11 14 0 33 7 42 17 15 15 13 16 -38 10 -42
-6 -51 -5 -37 4 10 6 43 13 73 16 60 6 56 22 -6 24 l-35 2 35 7 c19 4 28 8 20
9 -13 1 -13 2 0 11 12 7 8 10 -15 11 l-30 1 35 13 c32 12 33 14 10 15 -25 2
-25 2 5 15 17 8 24 14 16 15 -11 0 -10 4 5 15 18 14 17 15 -11 9 -16 -4 -46
-13 -65 -21 -32 -12 -33 -12 -16 2 11 8 25 15 32 15 7 0 16 5 20 12 5 8 2 9
-9 5 -10 -4 -24 -10 -32 -13 -25 -10 -17 12 9 26 14 7 28 19 31 28 5 13 3 13
-17 0 -13 -8 -36 -23 -53 -33 l-30 -19 19 22 c26 30 32 59 8 40 -11 -9 -9 -1
7 27 12 22 14 29 4 15 -10 -13 -28 -36 -40 -50 l-22 -25 5 25 c2 14 7 41 10
60 6 34 5 34 -10 15 -16 -19 -16 -19 -10 8 5 22 3 26 -10 21 -9 -3 -16 -12
-16 -19 0 -7 -7 -19 -16 -26 -15 -12 -16 -10 -10 21 7 33 6 34 -9 16 -15 -19
-15 -19 -15 3 0 34 -25 5 -37 -44 l-10 -40 -7 43 c-4 23 -12 42 -18 42 -5 0
-7 -12 -4 -28 3 -15 2 -34 -4 -42 -7 -11 -10 -6 -10 21 0 26 -4 36 -16 36 -12
0 -14 -7 -9 -34 4 -20 2 -33 -5 -33 -5 0 -10 -9 -10 -20 0 -11 -4 -20 -8 -20
-5 0 -7 25 -4 56 3 41 2 55 -7 50 -6 -4 -11 -16 -11 -27 0 -11 -4 -18 -9 -15
-5 4 -5 -10 0 -32 11 -48 11 -60 -1 -42 -9 13 -10 13 -11 0 -1 -24 -17 21 -19
55 -2 23 -4 18 -11 -20 -5 -27 -6 -65 -2 -84 4 -24 2 -32 -6 -27 -6 4 -11 13
-11 19 0 19 -43 158 -47 153 -2 -2 3 -30 11 -63 19 -71 25 -188 11 -202 -7 -7
-9 10 -7 49 4 61 -13 86 -21 33 -2 -16 -5 1 -7 37 -3 71 -5 67 -16 -25 l-7
-60 -13 58 c-8 32 -19 66 -25 75 -9 15 -10 15 -4 -2 3 -11 8 -45 12 -77 5 -48
3 -60 -10 -65 -9 -3 -19 -20 -23 -37 l-6 -31 -14 25 c-7 13 -14 44 -14 69 0
30 -3 40 -9 31 -7 -11 -10 -9 -14 10 -3 17 -5 13 -6 -13 0 -21 -6 -38 -12 -38
-6 0 -8 16 -6 40 2 22 3 40 2 40 0 0 -16 -11 -35 -25 -34 -25 -52 -26 -32 -2
7 7 13 22 15 33 1 10 6 25 10 32 8 12 2 16 -18 13 -5 -1 1 7 15 18 59 46 64
53 27 32 -51 -28 -53 -27 -15 10 29 26 30 29 8 18 -24 -11 -24 -11 4 20 34 36
25 42 -12 9 l-25 -23 17 26 c15 25 15 27 0 33 -14 5 -15 9 -2 29 13 19 12 24
-3 39 -12 12 -20 13 -28 5 -6 -6 -11 -7 -11 -2 0 5 -12 -2 -26 -16 l-26 -24 6
25 c7 25 7 25 -18 -4 l-24 -29 -5 29 -4 29 -2 -30 c-1 -23 -3 -27 -11 -15 -9
13 -10 13 -10 0 -1 -9 -6 -6 -14 9 l-13 24 -13 -37 c-9 -29 -15 -35 -25 -26
-16 13 -16 -5 0 -30 7 -11 3 -11 -18 3 -20 13 -27 14 -28 5 -1 -7 -2 -20 -3
-28 -1 -8 3 -21 8 -28 11 -16 -6 -16 -22 0 -10 10 -12 8 -9 -7 1 -11 7 -26 11
-34 8 -12 2 -13 -29 -8 -35 6 -36 5 -19 -9 18 -14 18 -15 -6 -8 -24 6 -24 6
-5 -10 11 -8 16 -16 11 -16 -5 0 1 -11 14 -25 13 -14 20 -25 16 -25 -5 0 -2
-7 5 -17 13 -15 12 -15 -8 -4 -13 6 -23 18 -23 26 0 7 -4 16 -9 19 -10 6 -9
-12 0 -29 4 -5 9 -23 13 -39 l7 -29 -25 16 c-43 29 -51 19 -15 -20 35 -37 23
-37 -20 1 -13 12 -21 16 -17 9 3 -6 1 -15 -5 -18 -7 -5 -1 -18 18 -37 l28 -31
-30 19 -30 19 22 -37 22 -38 -37 16 c-55 24 -70 27 -42 10 14 -8 21 -16 15
-16 -5 -1 8 -10 30 -20 22 -10 34 -19 28 -19 -7 -1 -13 -8 -13 -17 0 -9 -5
-12 -12 -8 -8 5 -9 2 -5 -10 5 -13 1 -19 -13 -23 -16 -4 -18 -9 -10 -19 9 -9
6 -15 -10 -24 -12 -6 -28 -9 -36 -6 -7 3 -18 -3 -24 -14 -6 -11 -15 -20 -19
-20 -15 0 1 43 28 79 14 19 20 31 12 26 -11 -6 -13 -4 -7 11 6 15 3 14 -18 -5
-32 -31 -43 -22 -20 16 l18 28 -32 -29 c-23 -21 -32 -25 -32 -14 0 11 -7 14
-27 10 -22 -4 -25 -2 -20 12 4 10 7 20 7 22 0 2 8 4 18 4 13 1 11 4 -8 16 -23
14 -23 15 -3 11 12 -3 37 -1 55 3 32 7 32 7 -20 15 -29 4 -55 12 -59 18 -4 6
8 8 35 4 23 -3 42 -1 42 4 0 5 12 9 27 9 42 0 21 10 -43 20 l-59 9 72 -2 c79
-3 82 5 12 28 l-44 15 39 -6 c36 -5 39 -4 26 11 -13 15 -10 16 26 9 21 -3 36
-4 33 0 -3 4 -26 10 -50 15 -40 8 -41 9 -11 10 36 1 45 20 10 22 -16 1 -11 5
17 14 25 9 33 14 20 15 -17 2 -16 3 5 10 20 7 16 8 -25 10 -38 2 -44 4 -25 9
15 4 20 10 13 14 -6 4 -19 4 -30 1 -10 -3 -3 8 17 25 41 36 37 38 -25 11 -56
-24 -67 -25 -37 -4 22 15 22 41 0 28 -7 -4 -8 -2 -4 5 4 6 11 9 16 6 10 -6 32
20 23 28 -3 4 0 15 8 24 7 10 -10 -4 -39 -31 -53 -51 -62 -45 -28 19 22 41 21
67 -1 40 l-16 -20 8 20 c4 11 10 28 12 38 8 28 -19 16 -40 -17 -22 -34 -32
-29 -17 9 8 22 8 26 -3 22 -8 -3 -14 1 -14 9 0 9 6 13 16 9 9 -3 3 5 -14 19
l-30 24 28 13 28 13 -28 13 c-27 12 -26 12 19 9 28 -2 61 -13 80 -27 l33 -22
-30 32 -30 33 60 -4 60 -5 -35 16 -35 16 43 3 c49 4 54 13 15 30 -25 10 -22
10 22 6 l50 -5 -40 22 -40 23 40 8 c23 5 50 5 67 -1 38 -14 35 -3 -4 15 l-33
15 40 -5 c22 -2 32 -2 22 0 -9 3 -14 10 -11 16 5 7 2 8 -6 3 -9 -5 -11 -4 -6
3 5 8 -1 12 -18 12 -14 0 -28 5 -31 10 -9 15 38 3 104 -26 66 -30 78 -26 16 5
-51 26 -57 34 -17 25 15 -3 36 -8 47 -10 14 -3 11 0 -7 11 -39 22 -35 26 15
19 31 -4 38 -3 27 5 -8 6 -24 11 -35 11 -18 1 -18 2 3 11 15 6 31 5 45 -2 19
-9 19 -7 -3 12 l-25 22 28 -7 c19 -4 26 -3 22 4 -3 5 -14 10 -23 11 -9 0 -3 5
15 10 34 10 37 34 5 42 -12 3 -11 5 5 6 25 1 42 21 18 21 -9 0 -13 5 -10 10 4
6 -7 10 -27 10 -33 1 -33 1 -9 14 19 11 21 14 7 19 -9 4 -24 4 -33 1 -10 -4
-5 5 12 20 17 14 25 25 18 26 -6 0 -14 -4 -18 -9 -3 -6 -14 -9 -25 -8 -10 1
-16 5 -14 9 3 5 9 6 13 4 4 -3 6 7 5 22 -2 38 -3 39 -19 18 -11 -14 -15 -16
-15 -5 0 12 -2 12 -10 -1 -6 -10 -10 -11 -10 -2 0 6 -7 12 -15 12 -8 0 -15 8
-15 18 0 9 -9 -1 -19 -23 -21 -43 -27 -43 -11 1 10 24 9 26 -6 13 -9 -7 -20
-22 -25 -34 -7 -14 -7 -11 -3 14 4 23 3 31 -5 27 -6 -4 -11 -14 -11 -23 0 -9
-3 -13 -7 -10 -3 4 -12 -1 -19 -11 -11 -15 -13 -13 -22 18 l-10 35 -2 -30 -3
-30 -7 35 -7 35 -2 -32 c0 -17 -4 -33 -8 -35 -5 -1 -18 -23 -30 -48 -14 -28
-23 -37 -23 -25 1 11 7 29 15 39 8 11 15 24 15 29 0 13 -24 -14 -54 -63 l-28
-45 6 43 c4 23 2 42 -3 42 -5 0 -16 -19 -25 -42 l-16 -43 6 38 c4 33 3 38 -12
35 -10 -2 -22 -18 -27 -38 -8 -29 -11 -32 -16 -16 -6 16 -10 13 -24 -20 l-16
-39 -2 70 c-1 64 -2 67 -10 30 -4 -22 -9 -62 -10 -90 -2 -42 -3 -45 -7 -15
l-4 35 -18 -55 -18 -55 5 45 c6 41 5 44 -10 32 -14 -12 -19 -12 -32 1 -14 14
-13 17 7 31 12 9 19 16 15 16 -5 0 -28 -14 -52 -30 -24 -16 -47 -30 -52 -30
-12 0 40 46 79 70 39 24 23 26 -29 5 -42 -18 -59 -12 -18 7 23 10 25 13 9 18
-16 6 -15 9 11 23 39 21 24 22 -18 1 l-32 -16 30 33 30 33 -40 -29 c-41 -30
-38 -22 14 40 17 20 19 24 6 14 -39 -31 -49 -32 -21 -1 45 48 22 38 -37 -16
-49 -44 -50 -40 -3 18 12 15 5 11 -16 -9 -43 -39 -60 -36 -31 6 19 26 36 73
27 73 -2 0 -16 -24 -31 -52 l-27 -53 -7 35 c-5 29 -7 31 -9 10 -2 -24 -3 -24
-10 5 -8 30 -8 30 -9 -7 -1 -49 -18 -49 -26 0 -13 77 -24 89 -20 22 4 -60 3
-61 -5 -20 -17 88 -22 103 -31 88 -5 -7 -9 -33 -10 -58 l-1 -45 -11 32 c-14
37 -27 52 -27 32 -1 -10 -5 -8 -16 6 -16 20 -16 19 -9 -4 5 -15 3 -21 -3 -17
-6 3 -4 -14 4 -42 l14 -47 -25 30 c-14 17 -25 33 -25 38 0 4 -5 7 -10 7 -6 0
-1 -18 10 -40 11 -22 16 -40 10 -40 -6 0 -16 11 -22 25 -6 14 -17 25 -25 25
-17 0 -17 -15 2 -30 8 -7 15 -24 15 -39 0 -14 6 -37 13 -51 18 -35 29 -66 21
-57 -8 8 -18 24 -67 113 -21 38 -35 60 -31 49 4 -11 9 -31 12 -45 3 -14 13
-37 23 -52 23 -32 24 -37 3 -34 -9 1 -30 18 -45 37 l-29 34 23 -50 c12 -27 31
-63 41 -78 38 -57 7 -34 -59 43 -64 75 -86 97 -69 68 4 -7 22 -31 39 -53 59
-74 98 -137 105 -171 12 -51 -3 -41 -25 17 -11 28 -26 55 -32 61 -16 13 -16 7
-3 -26 17 -45 1 -28 -29 32 -35 67 -40 65 -10 -5 40 -93 42 -102 11 -64 -34
44 -98 111 -85 91 5 -8 23 -33 40 -55 32 -42 53 -105 34 -105 -7 0 -7 -8 -1
-26 6 -14 10 -30 10 -36 0 -18 -50 34 -70 73 -16 31 -50 50 -50 28 0 -11 18
-20 23 -12 2 5 2 2 0 -5 -1 -7 11 -40 27 -72 17 -33 30 -63 30 -66 0 -17 -45
36 -66 79 -13 26 -27 47 -30 47 -2 0 -1 -8 4 -18 5 -9 12 -30 16 -47 l7 -30
-21 25 c-15 18 -13 8 10 -38 17 -35 26 -61 19 -57 -7 5 -10 3 -7 -6 3 -8 11
-13 17 -11 7 1 10 -2 6 -8 -3 -5 -1 -19 5 -30 25 -47 -2 -14 -45 55 -25 41
-51 78 -58 82 -7 4 -5 -4 4 -17 30 -47 43 -75 44 -97 1 -12 8 -30 16 -40 13
-16 12 -17 -3 -4 -22 17 -24 -2 -2 -19 8 -8 20 -23 25 -34 6 -12 -5 -3 -25 19
-36 41 -46 62 -23 49 8 -5 7 -2 -2 9 -8 10 -16 15 -19 12 -3 -3 -12 1 -20 8
-11 8 -9 2 4 -18 15 -24 7 -20 -44 23 -34 30 -62 57 -62 60 0 3 5 1 12 -6 26
-26 29 -10 4 23 l-27 35 36 -21 c19 -12 35 -24 35 -28 0 -4 10 -7 21 -8 l21
-2 -21 23 c-11 12 -21 26 -21 32 0 5 -14 22 -32 37 l-33 28 30 -18 c28 -16 29
-16 16 0 -7 9 -10 17 -5 17 4 0 -1 7 -12 15 -10 9 6 4 36 -10 50 -24 51 -20 3
12 -15 11 -14 11 10 3 36 -13 26 7 -10 21 -39 15 -23 19 35 10 29 -4 52 -5 52
-1 0 10 -37 20 -73 20 -42 0 -22 20 21 22 36 1 36 1 -8 7 l-45 7 57 7 c75 11
82 24 17 33 l-52 7 29 13 29 14 -35 -5 -35 -6 38 21 c20 11 37 23 37 26 0 2
-9 0 -21 -6 -26 -14 -36 -6 -19 16 9 10 2 8 -24 -6 -20 -13 -39 -20 -42 -17
-3 2 16 17 41 32 50 29 56 46 8 22 -30 -15 -113 -33 -102 -22 4 3 29 15 55 26
27 11 39 18 27 16 -12 -3 -24 0 -25 5 -3 7 -12 7 -27 -1 -12 -7 -30 -10 -39
-8 -11 2 3 13 38 29 49 22 51 25 23 23 -17 -1 -44 -10 -58 -19 -36 -24 -43
-14 -9 13 34 27 24 27 -29 0 l-42 -22 19 22 c28 31 11 26 -35 -11 -21 -17 -41
-29 -44 -26 -3 2 19 21 47 41 29 20 71 53 93 73 35 31 32 30 -30 -12 l-70 -47
50 51 c54 57 53 70 -2 22 -18 -17 -39 -30 -46 -30 -7 1 -1 10 12 20 13 11 21
20 17 20 -11 0 -63 -35 -64 -43 0 -5 -4 -12 -8 -15 -4 -4 -3 -1 1 7 7 11 4 13
-11 6 -10 -5 -34 -8 -53 -7 -19 0 -44 -4 -55 -9 -16 -8 -15 -6 4 10 27 22 88
46 97 38 2 -3 -8 -12 -24 -21 -15 -8 -24 -15 -19 -16 5 0 25 10 45 23 33 20
34 22 13 25 -12 2 -19 8 -16 14 3 5 -7 3 -22 -5 -16 -8 -53 -17 -82 -20 -48
-6 -52 -5 -41 9 7 9 30 24 51 35 40 20 42 35 7 60 -39 27 -62 49 -51 49 6 0
17 -7 26 -15 17 -17 26 -19 26 -6 0 5 -9 12 -20 16 -11 3 -19 11 -17 17 1 6
-5 13 -13 15 -13 4 -13 3 0 -6 8 -6 11 -11 5 -11 -18 0 -32 15 -32 33 0 12 4
14 11 7 5 -5 26 -10 45 -10 20 0 55 -9 79 -20 61 -28 52 -15 -15 19 -32 17
-52 30 -45 31 7 0 10 4 7 10 -3 6 1 7 9 4 9 -3 14 -9 12 -13 -3 -3 13 -6 34
-6 24 0 34 3 27 8 -7 5 7 6 33 3 43 -6 44 -5 20 9 -14 8 -33 14 -42 15 -18 0
-34 18 -24 27 3 3 11 1 18 -4 7 -6 29 -13 49 -16 26 -4 36 -2 36 9 0 7 -8 16
-17 19 -9 3 -28 18 -41 33 -13 15 -18 22 -10 15 15 -13 44 -6 35 8 -7 12 3 11
28 -2 15 -8 19 -8 14 0 -12 19 12 12 72 -21 66 -36 60 -26 -17 26 -60 40 -59
42 19 21 73 -19 75 -12 3 14 -37 14 -46 19 -25 16 46 -7 40 9 -10 25 -49 15
-71 30 -44 30 20 0 142 -57 204 -95 78 -49 43 -15 -44 41 -84 55 -108 83 -42
48 18 -10 40 -18 48 -19 8 -1 26 -5 40 -9 24 -7 24 -7 -3 12 -16 11 -28 23
-27 27 1 4 -4 12 -12 16 -23 15 9 11 40 -5 25 -12 112 -29 112 -21 0 2 -29 13
-65 25 -36 12 -67 25 -69 28 -8 13 83 5 99 -8 14 -12 18 -11 25 1 7 10 4 15
-8 18 -9 2 -26 10 -37 17 -16 12 -17 14 -3 14 9 0 29 -5 44 -10 45 -18 40 -2
-7 20 l-44 20 40 2 c22 1 51 1 65 0 l25 -1 -24 13 c-23 13 -23 14 -5 18 14 4
11 7 -16 15 -38 11 -32 17 35 29 l40 7 -35 10 c-19 5 -57 10 -85 10 -45 -1
-47 0 -20 8 17 5 48 6 70 3 22 -3 37 -3 33 1 -3 3 -37 10 -75 14 l-68 7 50 17
c41 13 44 15 15 12 l-35 -5 30 15 c35 16 11 20 -32 5 l-28 -10 25 22 c14 13
39 33 55 46 20 14 23 20 10 16 -11 -4 -29 -14 -40 -23 -43 -36 -59 -46 -51
-33 4 7 1 15 -8 18 -13 5 -9 14 19 47 39 45 47 71 14 41 -22 -19 -22 -19 -10
6 l12 25 -20 -23 c-25 -28 -33 -28 -26 1 4 14 1 28 -8 35 -11 10 -16 6 -27
-16 -12 -24 -14 -25 -18 -7 -4 16 -6 15 -17 -10 -10 -23 -14 -26 -14 -10 0 11
8 40 19 64 36 78 21 83 -30 11 -19 -28 -40 -50 -47 -50 -6 0 -15 -9 -18 -20
-3 -11 -11 -20 -16 -20 -12 0 -12 4 6 47 20 46 19 53 -5 53 -16 0 -19 5 -14
33 l6 32 -27 -28 c-23 -26 -69 -42 -87 -30 -12 6 29 81 51 92 10 6 49 7 90 4
60 -5 71 -4 66 9 -5 13 -25 16 -122 21 -6 0 -9 6 -6 13 2 7 11 10 19 7 10 -4
12 0 8 11 -9 25 35 20 65 -6 14 -13 20 -15 13 -6 -7 9 -12 25 -10 35 2 15 -3
18 -29 16 -26 -1 -30 1 -21 11 23 24 66 12 104 -30 l36 -39 -34 45 c-52 68
-55 79 -10 36 23 -22 44 -37 47 -34 3 3 -1 11 -10 18 -30 25 -14 30 18 6 47
-36 59 -33 17 4 -19 16 -30 29 -23 30 6 0 25 -12 42 -26 34 -28 41 -23 14 10
l-18 20 30 -18 30 -19 -24 27 c-14 14 -19 26 -13 26 6 0 13 -4 16 -9 3 -5 14
-11 25 -14 19 -5 22 7 7 31 -6 10 -1 11 21 6 l28 -7 -25 22 c-14 13 -19 19
-11 15 9 -5 12 -3 7 4 -4 7 -13 12 -20 12 -8 0 -19 7 -26 15 -10 12 -10 15 4
15 21 0 21 17 -1 23 -15 4 -15 5 2 6 11 1 27 6 35 12 11 8 5 9 -25 4 -29 -4
-36 -3 -25 4 13 10 13 11 0 11 -8 1 -3 7 13 16 31 17 33 20 11 28 -8 3 -12 2
-9 -4 4 -6 -5 -5 -19 1 -22 10 -24 15 -13 27 8 11 8 14 0 9 -7 -4 -14 1 -18
14 -6 18 -9 19 -23 6 -33 -28 -47 -30 -22 -3 21 24 22 26 5 20 -11 -4 -33 -19
-50 -33 -30 -27 -21 -9 19 37 23 26 11 30 -16 5 -29 -26 -48 -25 -48 3 0 15
-4 23 -10 19 -7 -4 -9 3 -5 22 5 26 5 26 -5 5 -5 -13 -14 -21 -19 -18 -5 4
-19 -8 -31 -24 -12 -17 -25 -29 -28 -26 -3 4 -14 -2 -25 -11 -19 -17 -20 -17
-9 3 6 11 18 26 26 34 9 7 16 17 16 23 0 5 -8 4 -17 -4 -56 -45 -79 -42 -47 5
25 39 -1 39 -31 0 -29 -38 -48 -40 -21 -3 12 18 13 26 3 38 -10 14 -10 14 5 3
11 -9 18 -10 23 -2 14 22 -27 19 -54 -4 l-24 -21 11 21 c9 18 8 20 -11 20 -18
-1 -22 4 -20 29 l2 30 -14 -25 c-9 -16 -15 -19 -15 -10 -1 10 -4 8 -10 -6 -6
-17 -15 -19 -46 -16 l-38 5 35 18 c19 10 30 19 24 19 -5 0 1 10 14 20 17 15
39 20 80 20 52 1 54 2 32 14 -17 10 -35 11 -64 4 -72 -16 -64 -1 13 22 41 13
70 25 63 27 -6 2 -34 -3 -62 -11 -58 -17 -67 -13 -18 8 45 20 6 21 -58 1 -51
-15 -70 -14 -38 3 29 16 131 32 200 32 40 0 62 4 58 10 -3 6 -48 11 -98 11
-78 1 -85 3 -47 9 25 4 65 15 90 23 l45 16 -52 0 c-28 1 -55 5 -58 11 -4 6 1
7 11 3 12 -4 15 -3 10 5 -5 9 7 12 41 12 31 0 43 3 34 9 -10 6 -6 11 15 19 44
16 4 14 -51 -3 -54 -16 -72 -12 -31 6 14 7 26 16 26 21 0 4 16 8 36 8 30 0 33
2 22 14 -9 8 -27 11 -48 8 -45 -6 -35 4 21 23 l44 14 -53 -2 c-28 -1 -52 -1
-52 1 0 2 18 11 41 21 25 11 36 21 27 24 -9 4 -8 6 4 6 9 1 20 6 23 11 4 7 -3
9 -22 4 -27 -6 -28 -6 -8 11 l20 16 -20 -4 c-11 -3 -29 -8 -40 -13 -20 -7 -20
-7 -1 14 10 12 26 24 36 27 9 3 17 12 17 20 0 19 -1 19 -40 -1 l-32 -17 19 22
c21 24 19 25 -19 11 -14 -5 -24 -14 -21 -19 3 -4 -7 -19 -22 -32 -25 -23 -26
-23 -8 -1 19 22 19 22 0 19 -10 -1 -26 -7 -34 -11 -8 -5 -4 3 9 17 26 28 37
35 25 15 -4 -7 -3 -8 5 -4 6 4 9 12 5 17 -3 6 5 23 17 37 l24 27 -29 -25 c-22
-19 -28 -21 -23 -7 6 16 5 16 -17 1 -14 -8 -27 -22 -30 -31 -4 -9 -9 -14 -11
-11 -3 3 2 24 10 48 20 57 13 60 -19 8 l-26 -43 5 45 5 45 -15 -45 -15 -45 6
57 c3 34 1 59 -5 63 -7 4 -11 -5 -12 -22 l-1 -28 -8 30 -8 30 -1 -37 c-1 -47
-18 -59 -24 -16 -3 28 -4 26 -6 -12 l-3 -45 -14 35 -14 35 5 -35 5 -35 -21 30
c-12 17 -18 22 -15 12 18 -54 14 -66 -7 -22 l-24 50 3 -75 3 -75 -10 54 c-10
59 -19 78 -19 43 0 -12 -4 -22 -9 -22 -5 0 -7 -19 -4 -42 6 -58 -14 -30 -23
32 -7 43 -8 44 -15 17 -4 -16 -4 -40 2 -54 16 -42 9 -50 -12 -13 -11 19 -17
26 -15 15 3 -11 8 -33 11 -50 6 -27 5 -28 -8 -12 -8 9 -19 17 -24 17 -5 0 -17
16 -27 37 -14 29 -15 38 -4 45 9 7 8 8 -4 4 -29 -9 -20 9 10 21 25 10 24 10
-13 5 -52 -6 -44 1 35 32 90 34 62 32 -43 -3 -48 -17 -87 -28 -87 -26 0 7 128
73 151 78 13 3 3 5 -23 4 -53 -2 -53 3 0 20 l37 11 -45 -4 -45 -4 50 20 50 19
-40 -5 -40 -5 28 16 c42 24 33 26 -27 5 -45 -15 -54 -16 -49 -4 9 24 58 44
110 45 l48 2 -40 7 c-36 6 -38 7 -15 13 14 4 59 11 100 16 l75 8 -65 3 c-36 2
-81 3 -100 2 -33 -1 -33 -1 -11 9 14 5 39 8 55 5 l31 -5 -32 11 -32 11 35 28
c19 15 51 33 70 39 20 7 34 14 31 16 -2 2 -37 -7 -77 -21 -40 -14 -75 -23 -77
-21 -2 2 10 8 26 14 32 11 44 25 14 16 -10 -3 4 7 30 21 27 15 47 29 44 31 -3
3 -14 1 -25 -5 -45 -24 -33 -9 18 24 57 37 61 46 7 18 -30 -15 -107 -35 -107
-27 0 2 35 22 78 43 42 22 71 40 64 41 -7 0 -10 5 -7 11 4 6 -12 1 -35 -11
-24 -12 -55 -20 -73 -18 l-32 4 28 14 c15 7 26 19 23 26 -8 20 36 52 94 67 35
10 46 16 29 16 -14 1 -48 -6 -74 -14 -27 -8 -50 -13 -52 -12 -1 2 27 20 62 41
77 45 85 57 15 21 -59 -30 -74 -32 -40 -5 39 31 4 24 -59 -11 -54 -30 -55 -30
-33 -6 22 23 154 74 240 92 18 4 32 9 29 11 -4 4 -121 -16 -181 -32 -20 -5
-27 -3 -22 4 3 6 20 14 37 17 17 4 47 18 66 31 20 13 40 24 46 24 6 0 8 2 5 5
-3 3 -16 2 -29 -3 -54 -20 -76 -22 -76 -7 0 15 61 41 87 37 12 -2 12 -1 2 6
-11 7 -7 14 15 31 21 17 13 15 -34 -9 -34 -16 -65 -30 -68 -30 -3 0 4 14 17
30 13 18 31 30 44 30 13 0 26 5 29 10 3 6 1 10 -5 10 -6 0 -8 5 -4 11 3 6 -8
4 -24 -5 -36 -19 -42 -19 -42 -7 0 5 16 15 35 22 19 7 35 17 35 21 0 10 0 10
-51 -7 l-44 -15 30 27 c17 14 30 30 30 35 0 5 7 13 15 19 12 8 10 9 -7 4 -19
-5 -22 -3 -16 12 7 17 6 17 -21 0 -36 -24 -45 -15 -15 16 13 13 25 31 25 40 2
14 -3 13 -30 -5 -22 -16 -27 -17 -17 -5 8 10 12 20 9 22 -8 8 -49 -26 -42 -36
3 -5 2 -9 -3 -8 -4 1 -10 0 -13 -1 -38 -14 -40 -8 -15 37 14 25 23 48 20 51
-3 3 -5 1 -5 -4 0 -5 -9 -20 -20 -34 -12 -15 -18 -18 -14 -7 10 28 -5 20 -27
-15 l-21 -33 6 60 c5 56 -1 57 -18 2 -8 -25 -26 -12 -28 21 0 15 -4 5 -8 -23
l-7 -50 -1 51 c-2 62 -8 69 -35 43 -13 -12 -23 -15 -25 -9 -2 6 8 20 23 31 14
12 24 24 21 27 -3 3 -14 -2 -23 -10 -22 -19 -71 -29 -76 -15 -1 5 -13 6 -26 2
-17 -5 -20 -9 -11 -15 9 -6 0 -15 -29 -30 -24 -12 -45 -19 -48 -16 -3 3 11 13
30 22 20 10 34 21 31 25 -2 5 9 15 25 24 36 18 45 19 35 3 -4 -7 -3 -8 5 -4 6
4 9 12 6 17 -4 5 -2 9 2 9 5 0 18 7 29 15 10 9 -8 4 -41 -11 -85 -37 -85 -37
-85 -30 0 3 30 26 67 51 68 45 78 58 22 29 -17 -8 -33 -13 -36 -10 -3 2 18 16
46 30 64 33 66 42 4 15 -56 -23 -50 -17 32 41 73 52 47 45 -33 -8 -86 -58 -91
-59 -47 -11 22 24 33 38 26 32 -21 -18 -36 -16 -21 2 7 8 20 15 29 15 20 1 71
29 53 30 -7 0 -22 -5 -34 -11 -11 -6 -22 -8 -25 -6 -3 3 12 15 34 26 46 24 40
27 -12 5 -51 -21 -54 -13 -5 15 46 26 55 39 10 16 -45 -23 -49 -17 -10 17 41
36 24 28 -42 -19 l-47 -34 15 29 c19 38 38 54 83 68 30 10 32 12 12 13 -38 2
-15 16 72 46 43 15 76 30 74 32 -2 2 -15 0 -28 -5 -13 -5 -37 -12 -54 -16
l-30 -7 25 21 c23 20 23 20 2 10 -12 -6 -27 -8 -32 -5 -5 3 -7 -4 -5 -15 2
-11 0 -18 -5 -15 -5 3 -27 -4 -50 -15 -22 -11 -40 -18 -40 -15 0 2 18 14 40
25 41 21 54 34 23 23 -14 -5 -12 0 6 20 14 15 20 27 15 27 -5 0 13 16 40 35
27 19 52 38 55 41 13 15 -48 -21 -109 -64 -36 -25 -56 -36 -46 -24 11 12 16
22 11 22 -4 0 -2 7 5 15 7 8 9 15 5 15 -12 0 16 29 49 52 25 16 23 13 -9 -17
-22 -20 -32 -34 -22 -31 12 4 16 2 11 -6 -4 -7 -3 -8 5 -4 6 4 9 11 6 16 -3 5
12 22 32 40 21 17 30 28 21 24 -26 -9 -22 5 9 40 30 32 9 21 -42 -24 -35 -31
-85 -54 -85 -40 0 6 3 10 8 10 17 1 124 107 114 114 -5 3 -24 -5 -41 -20 -31
-26 -91 -49 -91 -35 0 4 9 16 20 26 15 13 17 21 8 26 -14 9 40 64 97 97 22 13
31 20 20 16 -11 -4 -28 -7 -37 -8 -9 0 -15 -2 -13 -5 5 -4 -71 -51 -83 -51 -4
0 18 26 48 57 30 32 42 46 25 32 -46 -38 -65 -52 -65 -46 0 3 7 13 16 22 9 9
13 19 10 22 -4 4 -29 -15 -56 -42 -28 -27 -50 -44 -50 -37 0 23 78 87 161 135
103 58 96 60 -17 6 -47 -22 -88 -38 -91 -35 -3 2 5 9 16 16 22 11 125 100 117
100 -2 0 -23 -11 -46 -24 -24 -13 -49 -22 -56 -19 -15 6 -9 23 7 23 6 0 7 -5
3 -12 -4 -7 -3 -8 5 -4 6 4 9 11 6 16 -3 5 1 12 8 17 16 9 81 83 74 83 -3 0
-29 -20 -58 -45 -51 -43 -79 -54 -46 -17 10 10 14 21 11 25 -4 3 10 16 31 28
25 15 33 24 24 30 -8 4 -23 0 -37 -12 -43 -33 -49 -20 -8 16 46 41 35 46 -18
10 -36 -25 -37 -25 -31 -4 6 16 4 20 -6 14 -8 -5 -5 1 5 13 23 26 34 29 15 5
-11 -15 -9 -14 9 1 12 11 20 21 17 24 -3 3 1 12 8 20 10 13 9 14 -3 7 -8 -4
-24 -15 -35 -24 -13 -10 -16 -11 -7 -1 25 29 11 33 -19 4 -22 -20 -28 -23 -21
-9 19 36 35 95 26 95 -1 0 -12 -12 -24 -27z m-41 -52 c-6 -18 -14 -30 -17 -27
-2 3 1 19 8 36 16 40 23 33 9 -9z m71 -115 c0 -2 -8 -10 -17 -17 -16 -13 -17
-12 -4 4 13 16 21 21 21 13z m10 -80 c0 -2 -8 -10 -17 -17 -16 -13 -17 -12 -4
4 13 16 21 21 21 13z m0 -277 c-7 -11 -14 -18 -17 -15 -3 3 0 12 7 21 18 21
23 19 10 -6z m10 -79 c-8 -5 -17 -7 -19 -4 -3 3 1 9 9 14 8 5 17 7 19 4 3 -3
-1 -9 -9 -14z m20 -225 c0 -2 -10 -9 -22 -15 -22 -11 -22 -10 -4 4 21 17 26
19 26 11z m-80 -70 c-18 -19 -36 -32 -39 -29 -6 6 54 64 66 64 4 0 -8 -16 -27
-35z m60 -330 c-7 -8 -18 -15 -24 -15 -6 0 -2 7 8 15 25 19 32 19 16 0z m50
-3 c0 -4 -9 -13 -20 -20 -23 -14 -26 -8 -7 13 13 16 27 19 27 7z m27 -24 c-3
-8 -6 -5 -6 6 -1 11 2 17 5 13 3 -3 4 -12 1 -19z m-167 -13 c-7 -8 -18 -15
-24 -15 -6 0 -2 7 8 15 25 19 32 19 16 0z m150 0 c0 -8 -2 -15 -4 -15 -2 0 -6
7 -10 15 -3 8 -1 15 4 15 6 0 10 -7 10 -15z m-110 -9 c0 -2 -7 -9 -15 -16 -13
-11 -14 -10 -9 4 5 14 24 23 24 12z m80 -37 c0 -6 -4 -7 -10 -4 -5 3 -10 11
-10 16 0 6 5 7 10 4 6 -3 10 -11 10 -16z m240 -3 c0 -2 -8 -10 -17 -17 -16
-13 -17 -12 -4 4 13 16 21 21 21 13z m-270 -51 c0 -5 -5 -3 -10 5 -5 8 -10 20
-10 25 0 6 5 3 10 -5 5 -8 10 -19 10 -25z m225 -505 c-3 -5 -11 -10 -16 -10
-6 0 -7 5 -4 10 3 6 11 10 16 10 6 0 7 -4 4 -10z m-48 -206 c-3 -3 -12 -4 -19
-1 -8 3 -5 6 6 6 11 1 17 -2 13 -5z m-62 -54 c-3 -5 -11 -10 -16 -10 -6 0 -7
5 -4 10 3 6 11 10 16 10 6 0 7 -4 4 -10z m-35 -14 c0 -2 -8 -10 -17 -17 -16
-13 -17 -12 -4 4 13 16 21 21 21 13z m70 -110 c0 -2 -9 -6 -20 -9 -11 -3 -18
-1 -14 4 5 9 34 13 34 5z m-65 -16 c-3 -6 -21 -17 -38 -26 l-32 -15 30 25 c30
26 51 34 40 16z m42 -76 c-3 -3 -12 -4 -19 -1 -8 3 -5 6 6 6 11 1 17 -2 13 -5z
m443 2 c0 -2 -8 -10 -17 -17 -16 -13 -17 -12 -4 4 13 16 21 21 21 13z m-425
-27 c10 -15 -1 -23 -20 -15 -9 3 -13 10 -10 16 8 13 22 13 30 -1z m-36 -23
c-2 -2 -24 -6 -49 -10 l-45 -6 40 20 c25 11 44 15 49 10 5 -5 8 -11 5 -14z
m55 -22 c9 -24 7 -28 -9 -14 -17 14 -20 30 -6 30 5 0 12 -7 15 -16z m-64 -4
c-8 -5 -26 -9 -40 -9 -23 0 -23 1 -5 9 11 5 29 9 40 9 17 1 17 -1 5 -9z m40
-18 c0 -4 -11 -7 -25 -7 -22 0 -23 1 -9 12 16 12 34 9 34 -5z m-82 -7 c-11
-11 -68 -23 -68 -15 0 5 10 11 23 13 35 7 51 7 45 2z m126 -21 c3 -8 2 -12 -4
-9 -6 3 -10 10 -10 16 0 14 7 11 14 -7z m55 -74 c0 -8 -9 3 -19 25 -24 53 -24
70 0 25 11 -19 19 -42 19 -50z m-179 55 c-33 -19 -50 -18 -26 0 11 8 27 15 35
15 10 -1 7 -6 -9 -15z m70 -5 c0 -5 -4 -10 -10 -10 -5 0 -10 5 -10 10 0 6 5
10 10 10 6 0 10 -4 10 -10z m-153 -6 c-3 -3 -12 -4 -19 -1 -8 3 -5 6 6 6 11 1
17 -2 13 -5z m123 -2 c0 -5 -17 -16 -37 -26 -41 -19 -39 -13 4 15 34 21 33 21
33 11z m95 -33 c9 -17 14 -33 11 -36 -4 -4 -36 49 -36 62 0 13 11 2 25 -26z
m-185 17 c0 -2 -7 -7 -16 -10 -8 -3 -12 -2 -9 4 6 10 25 14 25 6z m130 -15 c0
-11 2 -28 5 -38 3 -10 -2 -4 -10 12 l-15 30 4 -30 c3 -16 8 -48 11 -70 l5 -40
-15 30 c-22 46 -18 125 6 125 5 0 9 -9 9 -19z m-200 5 c0 -3 -15 -15 -32 -27
l-33 -23 24 27 c22 24 41 35 41 23z m150 -51 c0 -22 -17 -35 -43 -35 -7 0 -3
8 8 17 16 13 17 15 3 10 -22 -8 -23 1 -2 24 20 22 34 16 34 -16z m111 -48 c-8
-8 -11 -3 -11 19 1 25 2 27 11 11 8 -14 8 -22 0 -30z m-114 -17 c3 -39 -14
-48 -27 -14 -8 21 -8 29 2 36 20 12 23 10 25 -22z m-57 -46 c0 -8 -4 -14 -10
-14 -5 0 -10 9 -10 21 0 11 5 17 10 14 6 -3 10 -13 10 -21z m-126 -28 c-10 -8
-21 -12 -24 -10 -5 6 21 24 34 24 6 0 1 -6 -10 -14z m170 -1 c3 -8 1 -15 -4
-15 -6 0 -10 7 -10 15 0 8 2 15 4 15 2 0 6 -7 10 -15z m-144 -65 c0 -5 -5 -10
-11 -10 -5 0 -7 5 -4 10 3 6 8 10 11 10 2 0 4 -4 4 -10z m10 -30 c0 -5 -4 -10
-10 -10 -5 0 -10 5 -10 10 0 6 5 10 10 10 6 0 10 -4 10 -10z m525 -50 c-3 -5
-12 -10 -18 -10 -7 0 -6 4 3 10 19 12 23 12 15 0z m85 -85 c-7 -9 -15 -13 -19
-10 -3 3 1 10 9 15 21 14 24 12 10 -5z m-650 -17 c0 -18 -2 -20 -9 -8 -6 8 -7
18 -5 22 9 14 14 9 14 -14z m570 -3 c-7 -9 -15 -13 -19 -10 -3 3 1 10 9 15 21
14 24 12 10 -5z m311 -62 c-8 -15 -10 -15 -11 -2 0 17 10 32 18 25 2 -3 -1
-13 -7 -23z m-882 -53 c1 -13 0 -13 -9 0 -5 8 -9 24 -9 35 l0 20 9 -20 c5 -11
9 -27 9 -35z m903 28 c-7 -7 -12 -8 -12 -2 0 14 12 26 19 19 2 -3 -1 -11 -7
-17z m150 0 c-7 -7 -12 -8 -12 -2 0 14 12 26 19 19 2 -3 -1 -11 -7 -17z m-192
8 c0 -2 -8 -10 -17 -17 -16 -13 -17 -12 -4 4 13 16 21 21 21 13z m76 -257 c11
-19 -29 7 -51 32 l-20 23 32 -23 c18 -12 35 -27 39 -32z m-345 24 c13 -17 13
-17 -6 -3 -11 8 -22 16 -24 17 -2 2 0 3 6 3 6 0 17 -8 24 -17z m204 -23 c3 -5
1 -10 -4 -10 -6 0 -11 5 -11 10 0 6 2 10 4 10 3 0 8 -4 11 -10z m-81 -54 c13
0 22 -3 20 -5 -2 -3 8 -17 22 -32 l27 -28 -27 -46 c-30 -50 -46 -53 -61 -11
-7 20 -5 33 8 55 16 28 16 29 -6 52 -12 13 -27 31 -32 39 -6 9 -2 7 7 -3 10
-11 29 -20 42 -21z m-179 25 c-3 -5 -1 -12 5 -16 5 -3 10 -11 10 -18 0 -7 -7
-5 -16 5 -14 14 -13 38 2 38 3 0 3 -4 -1 -9z m95 -1 c0 -5 6 -10 13 -10 19 0
41 -45 33 -65 -5 -15 -9 -14 -25 6 -26 32 -36 19 -16 -20 14 -28 14 -34 0 -61
-9 -16 -19 -30 -23 -30 -4 0 -18 20 -31 43 l-24 44 29 51 c27 49 44 65 44 42z
m175 -10 c27 -30 12 -34 -15 -5 -13 14 -19 25 -13 25 5 0 18 -9 28 -20z m-337
-48 c8 -24 -25 -11 -37 15 -12 26 -12 26 10 11 13 -8 25 -20 27 -26z m27 16
c10 -15 11 -24 5 -26 -11 -4 -39 25 -40 41 0 15 19 6 35 -15z m-109 -9 c5 -8
8 -8 14 0 5 9 10 8 19 -3 10 -12 7 -14 -21 -12 -56 5 -58 6 -58 16 0 14 37 13
46 -1z m-19 -33 c0 -10 -17 -14 -66 -15 -94 -1 -61 22 40 28 16 0 26 -4 26
-13z m23 -21 c0 -2 -10 -9 -22 -15 -22 -11 -22 -10 -4 4 21 17 26 19 26 11z
m165 -45 l25 -50 -36 0 c-21 0 -35 3 -32 6 10 9 -40 56 -52 49 -6 -3 -8 -11
-5 -16 7 -10 8 -10 -60 -14 -50 -4 -50 -4 -20 10 29 14 29 14 5 15 -23 0 -22
2 15 25 27 17 55 24 87 25 47 0 48 -1 73 -50z m-272 33 c-7 -2 -21 -2 -30 0
-10 3 -4 5 12 5 17 0 24 -2 18 -5z m-40 -20 c-7 -2 -21 -2 -30 0 -10 3 -4 5
12 5 17 0 24 -2 18 -5z m448 -57 c11 -19 28 -36 38 -39 14 -3 17 -11 13 -36
-2 -17 -9 -34 -15 -38 -6 -4 -8 2 -5 15 4 12 2 20 -2 17 -5 -3 -11 -19 -15
-35 -4 -16 -11 -32 -16 -35 -12 -8 -11 7 1 42 l11 28 -26 -30 c-26 -30 -26
-30 -21 -5 5 23 4 23 -6 -2 -7 -17 -20 -28 -31 -28 -11 0 -15 4 -11 11 5 8 -1
10 -17 7 -23 -4 -24 -2 -24 39 0 30 -4 42 -12 39 -7 -3 -15 -1 -18 4 -4 6 13
10 40 10 42 0 47 3 62 35 9 19 21 35 25 35 5 0 18 -15 29 -34z m-231 5 c0 -5
-10 -11 -22 -14 -13 -2 -32 -8 -43 -11 -11 -4 -4 2 15 13 39 22 50 25 50 12z
m311 -86 c-9 -30 -9 -30 -10 10 -1 25 2 36 9 29 6 -6 6 -21 1 -39z m-282 15
c-8 -4 -30 -10 -49 -14 l-35 -6 40 19 c36 18 76 18 44 1z m372 -14 c-13 -26
-17 -29 -19 -14 -3 19 -4 19 -17 1 -20 -27 -30 -8 -11 22 10 15 26 25 40 25
23 0 23 0 7 -34z m-191 -76 c0 -5 -5 -10 -11 -10 -5 0 -7 5 -4 10 3 6 8 10 11
10 2 0 4 -4 4 -10z m-40 -12 c0 -9 -40 -21 -47 -14 -4 3 0 6 8 6 12 0 12 2 0
9 -10 7 -7 9 12 8 15 -1 27 -5 27 -9z m233 -3 c-3 -9 -8 -14 -10 -11 -3 3 -2
9 2 15 9 16 15 13 8 -4z m-846 -257 c-3 -7 -5 -2 -5 12 0 14 2 19 5 13 2 -7 2
-19 0 -25z m990 -34 c-3 -3 -12 -4 -19 -1 -8 3 -5 6 6 6 11 1 17 -2 13 -5z
m-969 -40 c-14 -14 -15 -14 -10 11 3 19 8 23 15 16 8 -8 7 -16 -5 -27z m385
-251 c-7 -2 -21 -2 -30 0 -10 3 -4 5 12 5 17 0 24 -2 18 -5z m137 -23 c8 -5
11 -10 5 -10 -5 0 -17 5 -25 10 -8 5 -10 10 -5 10 6 0 17 -5 25 -10z m-120
-20 c0 -5 -4 -10 -10 -10 -5 0 -10 5 -10 10 0 6 5 10 10 10 6 0 10 -4 10 -10z
m40 4 c0 -8 -19 -13 -24 -6 -3 5 1 9 9 9 8 0 15 -2 15 -3z m44 -33 c18 -19 17
-20 -10 -12 -15 4 -29 12 -32 19 -6 19 23 14 42 -7z m56 -9 c16 -16 26 -33 22
-37 -4 -5 2 -5 13 -1 14 5 17 4 9 -4 -12 -12 -47 -3 -38 11 9 15 -14 10 -48
-11 -43 -26 -58 -26 -25 0 14 11 30 20 36 20 16 0 14 10 -6 32 -27 30 4 21 37
-10z m-300 8 c0 -5 -2 -10 -4 -10 -3 0 -8 5 -11 10 -3 6 -1 10 4 10 6 0 11 -4
11 -10z m70 -16 c0 -2 -12 -4 -27 -4 -21 0 -24 3 -14 9 13 8 41 5 41 -5z m145
-4 c3 -5 -1 -10 -9 -10 -8 0 -18 5 -21 10 -3 6 1 10 9 10 8 0 18 -4 21 -10z
m-40 -10 c3 -5 1 -10 -4 -10 -6 0 -11 5 -11 10 0 6 2 10 4 10 3 0 8 -4 11 -10z
m195 -38 c0 -9 -20 -20 -90 -49 -32 -14 -33 -14 -20 2 27 32 110 67 110 47z
m-85 -82 c-3 -5 -12 -10 -18 -10 -7 0 -6 4 3 10 19 12 23 12 15 0z m235 -54
c0 -2 -17 -16 -37 -31 l-38 -28 29 31 c26 28 46 40 46 28z m-85 -45 c-6 -5
-21 -12 -35 -15 l-25 -7 25 15 c28 17 50 21 35 7z m155 -61 c-20 -13 -33 -13
-25 0 3 6 14 10 23 10 15 0 15 -2 2 -10z m65 -40 c-3 -5 -12 -10 -18 -10 -7 0
-6 4 3 10 19 12 23 12 15 0z m750 0 c-3 -5 -11 -10 -16 -10 -6 0 -7 5 -4 10 3
6 11 10 16 10 6 0 7 -4 4 -10z m-1662 -59 c10 -17 15 -31 10 -31 -9 0 -53 62
-53 74 0 14 24 -10 43 -43z m1737 24 c0 -2 -15 -12 -32 -21 l-33 -17 19 22
c17 19 46 29 46 16z m-1620 -20 c7 -9 8 -15 2 -15 -5 0 -12 7 -16 15 -3 8 -4
15 -2 15 2 0 9 -7 16 -15z m1327 -37 c-3 -7 -5 -2 -5 12 0 14 2 19 5 13 2 -7
2 -19 0 -25z m213 17 c-7 -8 -17 -15 -23 -15 -6 0 -2 7 9 15 25 19 30 19 14 0z
m110 11 c0 -3 -4 -8 -10 -11 -5 -3 -10 -1 -10 4 0 6 5 11 10 11 6 0 10 -2 10
-4z m-1773 -58 c30 -52 34 -68 17 -68 -14 0 -27 25 -40 75 -8 34 0 31 23 -7z
m153 14 c0 -4 -9 -8 -20 -9 -11 -1 -20 3 -20 8 0 6 5 7 10 4 6 -3 10 -1 10 5
0 6 5 8 10 5 6 -3 10 -9 10 -13z m-130 -20 c0 -15 -2 -15 -10 -2 -13 20 -13
33 0 25 6 -3 10 -14 10 -23z m1707 6 c-3 -8 -6 -5 -6 6 -1 11 2 17 5 13 3 -3
4 -12 1 -19z m-1680 -50 c-3 -7 -5 -2 -5 12 0 14 2 19 5 13 2 -7 2 -19 0 -25z
m133 -29 c0 -6 -4 -7 -10 -4 -5 3 -10 11 -10 16 0 6 5 7 10 4 6 -3 10 -11 10
-16z m1060 -32 c0 -5 -4 -5 -10 -2 -5 3 -10 14 -10 23 0 15 2 15 10 2 5 -8 10
-19 10 -23z m-1092 -29 c3 -14 7 -16 12 -8 13 21 29 1 28 -34 -1 -18 2 -38 6
-44 17 -28 -20 -9 -51 27 l-35 38 -38 -41 c-32 -34 -41 -39 -52 -28 -11 11 -8
18 17 38 17 13 24 24 17 24 -8 0 -10 5 -6 13 4 6 -7 -1 -24 -17 -44 -41 -50
-28 -7 14 19 19 35 39 35 46 0 34 88 8 98 -28z m-158 -13 c-13 -14 -26 -22
-29 -19 -3 3 5 14 18 25 33 27 39 24 11 -6z m834 9 c3 -8 2 -12 -4 -9 -6 3
-10 10 -10 16 0 14 7 11 14 -7z m376 -32 c0 -15 -2 -15 -10 -2 -13 20 -13 33
0 25 6 -3 10 -14 10 -23z m-533 -14 c-3 -8 -6 -5 -6 6 -1 11 2 17 5 13 3 -3 4
-12 1 -19z m67 -30 c-6 -19 -7 -19 -16 -4 -5 9 -6 26 -2 38 6 19 7 19 16 4 5
-9 6 -26 2 -38z m82 -35 c-6 -15 -4 -15 18 -7 12 5 13 10 5 26 -6 10 -8 24 -6
31 2 7 13 -6 25 -28 24 -46 29 -32 7 22 -20 47 -19 50 7 27 19 -17 21 -17 15
-1 -9 24 0 21 14 -4 8 -17 8 -20 -1 -14 -8 5 -11 3 -8 -6 3 -8 11 -13 17 -11
6 1 14 -5 17 -13 4 -8 11 -15 18 -15 15 -1 130 -109 123 -116 -3 -3 -18 2 -34
12 -17 11 -10 1 20 -27 32 -31 47 -53 47 -71 0 -15 3 -35 6 -45 3 -10 -7 4
-23 30 -36 59 -62 85 -39 40 10 -20 12 -33 6 -33 -7 0 -7 -7 1 -22 8 -16 -2
-10 -31 17 l-43 40 29 -40 c29 -41 23 -39 -36 10 l-25 20 25 -30 c14 -16 30
-33 35 -37 6 -4 7 -8 3 -8 -4 0 2 -21 13 -46 12 -25 19 -48 16 -50 -2 -2 -23
25 -46 61 -57 87 -72 94 -20 8 23 -37 44 -72 47 -77 3 -5 0 -6 -6 -2 -7 4 -12
2 -12 -5 0 -7 -14 0 -32 17 l-31 29 30 -45 c47 -70 58 -93 41 -88 -7 3 -21 1
-32 -4 -12 -7 -16 -7 -12 0 3 6 2 13 -4 17 -5 3 -10 11 -10 17 0 6 9 3 20 -7
40 -36 19 2 -22 40 -23 22 -36 33 -30 24 7 -10 14 -25 17 -35 2 -11 7 -28 11
-39 7 -18 6 -19 -11 -5 -10 8 -20 14 -23 12 -2 -2 -13 9 -23 25 -25 37 -24 26
2 -34 46 -106 48 -122 5 -48 -27 45 -47 64 -26 24 14 -26 40 -123 34 -128 -2
-3 -11 4 -19 15 -13 16 -14 16 -9 2 8 -23 -5 -23 -23 0 -10 12 -9 8 2 -16 15
-30 14 -34 0 -49 -13 -12 -16 -13 -14 -2 1 8 -3 25 -10 39 -10 23 -11 21 -7
-20 l4 -45 -18 40 c-16 35 -19 37 -20 15 l-1 -25 -14 25 c-19 33 -19 19 0 -26
8 -19 10 -32 6 -29 -5 3 -19 30 -32 60 -22 55 -32 64 -44 45 -8 -13 -35 -13
-35 0 0 11 27 39 56 57 18 12 18 12 -1 6 -11 -3 -29 -12 -40 -20 -30 -20 -40
-15 -14 8 16 13 18 19 7 16 -19 -7 -18 17 2 36 10 9 11 9 6 0 -4 -7 -2 -13 4
-13 6 0 8 -4 5 -10 -10 -16 11 -12 25 5 11 13 10 14 -6 8 -17 -6 -17 -5 -5 10
12 15 12 17 -3 11 -9 -4 -16 -1 -16 6 0 7 -16 -2 -35 -19 -41 -36 -50 -39 -35
-11 9 17 55 48 77 52 15 2 53 30 53 39 0 5 -17 2 -37 -7 -72 -31 -80 -27 -34
14 59 53 38 61 -29 10 l-54 -40 31 38 c40 50 59 67 108 93 30 15 34 20 15 17
-14 -3 -40 -12 -58 -21 -18 -9 -36 -14 -39 -11 -3 3 36 26 88 51 82 39 89 45
29 28 -8 -3 11 10 43 28 91 51 58 46 -46 -8 l-94 -49 41 48 c22 26 41 51 41
55 0 5 5 15 10 23 5 8 -7 3 -26 -11 -46 -34 -70 -46 -39 -19 14 12 44 40 68
61 l42 40 -30 60 c-16 34 -30 64 -30 68 0 3 16 -12 35 -34 20 -21 33 -45 31
-52z m-710 62 c-8 -8 -18 -15 -22 -15 -3 0 -1 7 6 15 7 8 17 15 22 15 5 0 3
-7 -6 -15z m118 -50 c3 -8 1 -15 -4 -15 -6 0 -10 7 -10 15 0 8 2 15 4 15 2 0
6 -7 10 -15z m477 2 c-1 -4 -4 -7 -7 -6 -4 0 -11 -5 -15 -13 -7 -10 -9 -10 -9
3 0 9 3 19 7 23 8 8 25 3 24 -7z m-540 -25 c13 -15 31 -36 39 -46 14 -18 14
-18 -7 -5 -13 8 -23 17 -23 21 0 5 -5 8 -11 8 -12 0 -38 29 -39 43 0 15 18 6
41 -21z m1699 18 c13 -9 13 -10 0 -10 -8 0 -22 5 -30 10 -13 9 -13 10 0 10 8
0 22 -5 30 -10z m-1102 -19 c-7 -11 -16 -17 -22 -14 -5 3 -1 12 9 20 25 18 27
17 13 -6z m1171 -29 c-8 -1 -31 4 -50 13 -30 14 -31 15 -6 10 20 -4 27 -2 22
6 -4 6 5 3 21 -7 19 -13 23 -20 13 -22z m-1149 13 c-11 -13 -10 -14 4 -9 26
10 18 -2 -21 -32 -36 -26 -37 -26 -15 -2 12 13 19 27 16 31 -8 8 4 27 18 27 6
0 6 -6 -2 -15z m-50 -15 c0 -5 -9 -14 -20 -20 -22 -12 -27 -1 -8 18 14 14 28
16 28 2z m1174 -6 c9 -3 16 -10 16 -16 0 -5 -4 -6 -10 -3 -5 3 -10 -2 -10 -12
-1 -10 -7 -29 -15 -43 -14 -24 -15 -24 -9 15 3 22 6 46 6 53 1 14 1 14 22 6z
m-1254 -8 c0 -3 -4 -8 -10 -11 -5 -3 -10 -1 -10 4 0 6 5 11 10 11 6 0 10 -2
10 -4z m1205 -24 c-3 -3 -11 0 -18 7 -9 10 -8 11 6 5 10 -3 15 -9 12 -12z
m-1785 3 c0 -9 -80 -58 -86 -52 -3 3 12 17 33 31 36 25 53 32 53 21z m50 -15
c0 -5 -2 -10 -4 -10 -3 0 -8 5 -11 10 -3 6 -1 10 4 10 6 0 11 -4 11 -10z m-49
-53 c-22 -21 -32 -26 -27 -14 5 15 2 17 -14 12 -31 -10 -24 2 17 30 52 35 69
16 24 -28z m92 17 c-4 -12 -8 -12 -20 -2 -10 8 -11 14 -4 16 6 2 8 9 4 15 -4
7 0 7 9 -1 9 -8 14 -20 11 -28z m1684 14 c-3 -8 -6 -5 -6 6 -1 11 2 17 5 13 3
-3 4 -12 1 -19z m-747 -19 c0 -6 -4 -7 -10 -4 -5 3 -10 11 -10 16 0 6 5 7 10
4 6 -3 10 -11 10 -16z m-985 2 c-3 -5 -1 -13 5 -16 16 -10 -8 -35 -26 -28 -8
3 -14 0 -14 -7 0 -6 -4 -8 -10 -5 -5 3 2 19 17 35 26 29 40 39 28 21z m1635
-18 c0 -14 -2 -15 -9 -4 -7 11 -9 11 -14 0 -4 -10 -6 -9 -6 4 -1 9 6 17 14 17
8 0 15 -8 15 -17z m40 -2 c0 -6 -4 -13 -10 -16 -5 -3 -10 1 -10 9 0 9 5 16 10
16 6 0 10 -4 10 -9z m-655 -52 c9 -17 14 -36 12 -42 -3 -7 -8 -3 -12 8 -3 11
-11 28 -16 37 -10 20 -11 28 -4 28 2 0 12 -14 20 -31z m-939 -40 c4 -8 1 -8
-14 0 -12 6 -24 16 -28 22 -4 8 -1 8 14 0 12 -6 24 -16 28 -22z m3004 23 c0
-5 -7 -17 -15 -28 -14 -18 -14 -17 -4 9 12 27 19 34 19 19z m-3170 -6 c0 -3
-4 -8 -10 -11 -5 -3 -10 -1 -10 4 0 6 5 11 10 11 6 0 10 -2 10 -4z m26 -32
c-3 -9 -6 -28 -6 -43 0 -20 -7 -31 -25 -39 -24 -11 -25 -10 -15 8 5 10 15 22
20 25 6 4 8 11 5 16 -9 13 4 49 17 49 5 0 7 -7 4 -16z m982 -30 c-4 -3 -12 5
-18 18 -12 22 -12 22 6 6 10 -10 15 -20 12 -24z m607 -6 c-11 -36 -22 -41 -17
-8 2 16 9 30 14 30 5 0 6 -10 3 -22z m-1641 -3 c-4 -8 -11 -15 -16 -15 -6 0
-5 6 2 15 7 8 14 15 16 15 2 0 1 -7 -2 -15z m157 -7 c11 -21 11 -22 -4 -9 -10
7 -17 17 -17 22 0 15 9 10 21 -13z m2429 18 c0 -2 -8 -10 -17 -17 -16 -13 -17
-12 -4 4 13 16 21 21 21 13z m-1511 -55 c6 -19 9 -36 6 -39 -5 -6 -35 61 -35
80 0 19 16 -3 29 -41z m-444 9 c-10 -11 -20 -18 -23 -15 -3 3 -12 -1 -21 -8
-14 -11 -14 -10 -2 5 7 10 17 16 21 13 4 -3 13 2 20 10 7 8 15 15 18 15 3 0
-3 -9 -13 -20z m-515 -10 c0 -5 -2 -10 -4 -10 -3 0 -8 5 -11 10 -3 6 -1 10 4
10 6 0 11 -4 11 -10z m2530 -36 c-8 -8 -23 -20 -34 -25 -15 -7 -13 -3 7 15 31
29 47 35 27 10z m30 -69 c0 -14 -4 -25 -10 -25 -5 0 -10 11 -10 25 0 14 5 25
10 25 6 0 10 -11 10 -25z m-1710 -76 c0 -18 -10 -8 -25 24 l-16 32 21 -24 c11
-13 20 -27 20 -32z m1710 19 c0 -18 -2 -20 -9 -8 -6 8 -7 18 -5 22 9 14 14 9
14 -14z m-1664 -15 c-7 -7 -26 7 -26 19 0 6 6 6 15 -2 9 -7 13 -15 11 -17z
m1699 7 c3 -5 1 -10 -4 -10 -6 0 -11 5 -11 10 0 6 2 10 4 10 3 0 8 -4 11 -10z
m-715 -40 c0 -13 -11 -13 -30 0 -12 8 -11 10 8 10 12 0 22 -4 22 -10z m1804
-54 c-3 -21 -9 -35 -11 -32 -3 3 -2 21 1 42 4 20 10 34 12 31 3 -3 2 -21 -2
-41z m-641 27 c-7 -2 -19 -2 -25 0 -7 3 -2 5 12 5 14 0 19 -2 13 -5z m682 -33
c-9 -41 -17 -33 -9 9 4 17 9 30 11 27 3 -2 2 -19 -2 -36z m-3134 13 c1 -10 3
-28 4 -41 2 -17 -1 -20 -10 -12 -14 11 -25 56 -17 65 11 10 22 4 23 -12z
m2512 10 c-7 -2 -21 -2 -30 0 -10 3 -4 5 12 5 17 0 24 -2 18 -5z m-2323 -34
c0 -6 -4 -7 -10 -4 -5 3 -10 11 -10 16 0 6 5 7 10 4 6 -3 10 -11 10 -16z
m1115 11 c8 -13 -5 -13 -25 0 -13 8 -13 10 2 10 9 0 20 -4 23 -10z m1170 -10
c7 -12 -12 -12 -40 0 -18 8 -17 9 7 9 15 1 30 -3 33 -9z m-76 -4 c-12 -10 -60
-16 -54 -6 3 5 18 10 32 10 15 0 24 -2 22 -4z m-1029 -14 c0 -13 -12 -22 -22
-16 -10 6 -1 24 13 24 5 0 9 -4 9 -8z m-277 -9 c-7 -2 -19 -2 -25 0 -7 3 -2 5
12 5 14 0 19 -2 13 -5z m37 -3 c0 -5 -4 -10 -10 -10 -5 0 -10 5 -10 10 0 6 5
10 10 10 6 0 10 -4 10 -10z m1930 -20 c-6 -12 -14 -19 -17 -17 -2 3 1 15 7 27
6 12 14 19 17 17 2 -3 -1 -15 -7 -27z m-3007 0 c3 -11 1 -18 -4 -14 -5 3 -9
12 -9 20 0 20 7 17 13 -6z m2829 -22 c-7 -7 -12 -8 -12 -2 0 14 12 26 19 19 2
-3 -1 -11 -7 -17z m-1806 -25 c-10 -10 -19 5 -10 18 6 11 8 11 12 0 2 -7 1
-15 -2 -18z m1556 -65 c-8 -8 -9 -4 -5 13 4 13 8 18 11 10 2 -7 -1 -18 -6 -23z
m-322 18 c0 -2 -7 -6 -15 -10 -8 -3 -15 -1 -15 4 0 6 7 10 15 10 8 0 15 -2 15
-4z m60 -36 c0 -5 -18 -10 -41 -10 -24 0 -38 4 -34 10 3 6 22 10 41 10 19 0
34 -4 34 -10z m50 0 c0 -5 -9 -10 -20 -10 -11 0 -20 5 -20 10 0 6 9 10 20 10
11 0 20 -4 20 -10z m209 -22 c-5 -10 -11 -18 -12 -18 -2 0 -3 8 -3 18 0 10 6
19 13 19 8 0 9 -6 2 -19z m1511 18 c0 -2 -8 -10 -17 -17 -16 -13 -17 -12 -4 4
13 16 21 21 21 13z m-1599 -60 c-11 -27 -24 -37 -16 -11 3 8 7 22 10 31 3 9 8
15 11 12 2 -3 0 -17 -5 -32z m1759 9 c-7 -8 -18 -15 -24 -15 -6 0 -2 7 8 15
25 19 32 19 16 0z m-1987 -12 c-13 -2 -33 -2 -45 0 -13 2 -3 4 22 4 25 0 35
-2 23 -4z m87 4 c0 -2 -9 -12 -19 -21 -19 -17 -19 -17 -14 3 3 12 12 21 19 21
8 0 14 -2 14 -3z m1450 -27 c0 -4 -7 -13 -15 -20 -13 -11 -14 -10 -9 5 6 14 4
16 -6 10 -8 -5 -11 -4 -7 2 7 11 37 13 37 3z m270 -10 c-6 -11 -16 -20 -22
-20 -6 0 -3 9 7 20 10 11 20 20 22 20 2 0 -1 -9 -7 -20z m-160 7 c0 -2 -10
-12 -22 -23 l-23 -19 19 23 c18 21 26 27 26 19z m-1672 -18 c-2 -6 -7 -10 -11
-10 -4 1 -24 1 -44 2 -34 1 -35 2 -13 9 37 12 72 11 68 -1z m28 -16 c-10 -10
-19 5 -10 18 6 11 8 11 12 0 2 -7 1 -15 -2 -18z m134 19 c0 -5 -7 -17 -15 -28
-14 -18 -14 -17 -4 9 12 27 19 34 19 19z m955 -2 c3 -5 -1 -10 -9 -10 -9 0
-16 5 -16 10 0 6 4 10 9 10 6 0 13 -4 16 -10z m308 -5 c-3 -9 -8 -14 -10 -11
-3 3 -2 9 2 15 9 16 15 13 8 -4z m476 12 c-2 -1 -13 -9 -24 -17 -19 -14 -19
-14 -6 3 7 9 18 17 24 17 6 0 8 -1 6 -3z m-815 -42 c-4 -8 -10 -12 -15 -9 -11
6 -2 24 11 24 5 0 7 -7 4 -15z m-4064 1 c0 -2 -7 -7 -16 -10 -8 -3 -12 -2 -9
4 6 10 25 14 25 6z m2805 -6 l30 -8 -30 0 c-16 0 -39 3 -50 8 l-20 9 20 -1
c11 0 34 -4 50 -8z m1156 -36 c8 -10 -2 -9 -35 6 -26 11 -54 20 -62 20 -9 0
-13 4 -9 9 7 12 89 -15 106 -35z m23 31 c11 -8 15 -15 10 -15 -6 0 -19 7 -30
15 -10 8 -14 14 -9 14 6 0 19 -6 29 -14z m471 6 c-7 -12 -125 -103 -125 -97 0
5 120 106 126 106 3 0 3 -4 -1 -9z m-355 -10 c0 -12 -20 -25 -27 -18 -7 7 6
27 18 27 5 0 9 -4 9 -9z m-4070 -16 c0 -2 -10 -9 -22 -15 -22 -11 -22 -10 -4
4 21 17 26 19 26 11z m77 -20 c-23 -22 -33 -18 -12 5 10 11 20 18 23 16 2 -3
-3 -12 -11 -21z m3923 5 c0 -5 -7 -7 -15 -4 -8 4 -12 10 -9 15 6 11 24 2 24
-11z m134 11 c3 -5 -2 -15 -12 -22 -15 -12 -16 -12 -5 2 7 9 10 19 6 22 -3 4
-4 7 0 7 3 0 8 -4 11 -9z m66 0 c0 -5 -7 -12 -16 -15 -14 -5 -15 -4 -4 9 14
17 20 19 20 6z m-4185 -30 c-3 -6 -15 -16 -26 -22 -18 -9 -19 -9 -10 9 10 19
32 33 40 26 1 -1 0 -7 -4 -13z m2680 -1 c-3 -5 -14 -10 -23 -10 -15 0 -15 2
-2 10 20 13 33 13 25 0z m1279 1 c3 -5 -1 -11 -9 -15 -9 -3 -15 0 -15 9 0 16
16 20 24 6z m221 -10 c-3 -6 -11 -11 -17 -11 -6 0 -6 6 2 15 14 17 26 13 15
-4z m-95 6 c0 -2 -10 -12 -22 -23 l-23 -19 19 23 c18 21 26 27 26 19z m-4060
-10 c0 -2 -12 -14 -27 -28 l-28 -24 24 28 c23 25 31 32 31 24z m-105 -27 c-3
-5 -11 -10 -16 -10 -6 0 -7 5 -4 10 3 6 11 10 16 10 6 0 7 -4 4 -10z m2800 0
c16 -7 11 -9 -21 -9 -23 -1 -57 -4 -75 -7 -23 -5 -31 -3 -24 4 20 20 86 27
120 12z m1035 -10 c0 -5 -5 -10 -11 -10 -5 0 -7 5 -4 10 3 6 8 10 11 10 2 0 4
-4 4 -10z"/>
<path d="M1065 907 c10 -15 20 -25 23 -22 3 3 -5 16 -17 28 l-23 22 17 -28z"/>
<path d="M1010 772 c18 -24 35 -40 38 -37 3 3 -11 22 -33 43 l-38 37 33 -43z"/>
<path d="M8730 6012 c0 -12 60 -45 68 -37 4 3 -4 15 -18 25 -26 20 -50 26 -50
12z"/>
<path d="M8657 5963 c-4 -3 -7 -31 -7 -60 0 -46 -3 -54 -17 -51 -13 2 -19 14
-21 41 -3 37 -22 53 -22 19 0 -27 -10 -33 -32 -21 -30 16 -36 0 -8 -21 22 -17
23 -19 7 -25 -9 -4 -17 -14 -17 -21 0 -12 4 -12 25 2 24 16 65 12 65 -7 0 -5
-22 -24 -50 -41 -27 -17 -47 -35 -44 -40 3 -5 22 1 42 13 98 59 87 56 129 32
47 -27 51 -40 19 -54 -20 -9 -32 -9 -52 0 -33 15 -46 5 -20 -15 20 -14 20 -14
0 -28 -26 -20 -13 -30 20 -15 20 9 32 9 52 0 32 -14 28 -27 -19 -54 l-38 -21
-58 32 c-63 34 -71 37 -71 23 0 -5 23 -23 51 -39 50 -29 51 -30 29 -42 -17 -9
-29 -9 -48 -1 -31 15 -43 4 -17 -15 19 -14 19 -16 3 -25 -27 -15 -22 -32 7
-25 20 5 25 3 25 -13 0 -11 5 -23 10 -26 6 -4 10 8 10 29 0 25 6 38 19 46 30
15 31 14 32 -37 0 -27 4 -57 9 -68 10 -24 11 -21 13 70 l2 69 40 23 c52 29 55
29 55 -6 0 -22 -7 -34 -29 -47 -34 -20 -31 -39 5 -30 19 5 24 2 24 -14 0 -11
5 -20 10 -20 6 0 10 36 10 89 l0 89 -35 16 c-19 9 -35 20 -35 24 0 4 16 17 35
30 l35 22 0 85 c0 55 -4 85 -11 85 -6 0 -13 -9 -16 -20 -4 -15 -11 -18 -29
-14 -30 8 -32 -11 -4 -26 25 -13 45 -59 32 -72 -14 -14 -92 29 -94 50 0 9 0
43 1 75 3 52 -5 68 -22 50z"/>
<path d="M155 5460 c-3 -5 -2 -10 4 -10 5 0 13 5 16 10 3 6 2 10 -4 10 -5 0
-13 -4 -16 -10z"/>
<path d="M8767 5412 c-15 -10 -24 -21 -21 -25 10 -9 54 15 54 30 0 16 0 16
-33 -5z"/>
<path d="M965 3219 c-4 -6 -5 -12 -2 -15 2 -3 7 2 10 11 7 17 1 20 -8 4z"/>
<path d="M1119 2473 l-24 -28 28 24 c25 23 32 31 24 31 -2 0 -14 -12 -28 -27z"/>
<path d="M1592 1700 c0 -14 2 -19 5 -12 2 6 2 18 0 25 -3 6 -5 1 -5 -13z"/>
<path d="M1035 1196 c21 -32 27 -33 16 -4 -4 12 -14 24 -20 26 -8 3 -7 -5 4
-22z"/>
<path d="M1136 1127 c3 -10 9 -15 12 -12 3 3 0 11 -7 18 -10 9 -11 8 -5 -6z"/>
<path d="M2040 1116 c0 -2 8 -10 18 -17 15 -13 16 -12 3 4 -13 16 -21 21 -21
13z"/>
<path d="M1992 1081 c-11 -7 -11 -9 0 -14 9 -3 15 1 15 9 0 8 -1 14 -1 14 -1
0 -7 -4 -14 -9z"/>
<path d="M2686 967 c-18 -13 -18 -14 -1 -21 10 -4 23 -2 29 4 7 7 6 10 -3 10
-7 0 -9 5 -6 10 8 14 2 13 -19 -3z"/>
<path d="M2056 893 c-6 -14 -5 -15 5 -6 7 7 10 15 7 18 -3 3 -9 -2 -12 -12z"/>
<path d="M2689 813 c-13 -16 -12 -17 4 -4 9 7 17 15 17 17 0 8 -8 3 -21 -13z"/>
<path d="M2684 785 c-10 -8 -14 -15 -8 -15 6 0 17 7 24 15 16 19 9 19 -16 0z"/>
<path d="M3616 545 c-3 -9 -6 -22 -5 -28 0 -7 5 -1 10 12 5 13 8 26 5 28 -2 2
-6 -3 -10 -12z"/>
<path d="M5229 276 c-25 -19 -49 -42 -53 -51 -3 -9 19 5 49 30 48 42 62 56 53
55 -2 0 -24 -16 -49 -34z"/>
<path d="M4395 139 c-4 -6 -5 -12 -2 -15 2 -3 7 2 10 11 7 17 1 20 -8 4z"/>
</g>
</svg>
